<svg id="Layer_1" data-name="Layer 1" xmlns="http://www.w3.org/2000/svg" viewBox="0 0 466.48 338.47"><defs><style>.cls-1{fill:#3b767b;}.cls-2{fill:#2e97a1;}.cls-3{fill:#215953;}.cls-4{fill:#389ea4;}.cls-5{fill:#98d2bf;}.cls-6{fill:#317f6a;}.cls-7{fill:#9cbc42;}.cls-8{fill:#2f3144;}.cls-9{fill:#327f6a;}.cls-10{fill:#9dbd42;}.cls-11{fill:#fac04b;}.cls-12{fill:#153644;}.cls-13{fill:#388f77;}.cls-14{fill:#327d6b;}.cls-15{fill:#9dbd43;}.cls-16{fill:#d53b1b;}.cls-17{fill:#b0502f;}.cls-18{fill:#3c7973;}.cls-19{fill:#388f76;}.cls-20{fill:#e2a634;}.cls-21{fill:#d53b1c;}.cls-22{fill:#e98562;}.cls-23{fill:#388e77;}.cls-24{fill:#225a53;}.cls-25{fill:#194352;}.cls-26{fill:#4b281a;}.cls-27{fill:#378e77;}.cls-28{fill:#e98763;}.cls-29{fill:#e8835f;}.cls-30{fill:#9dbd44;}.cls-31{fill:#25325a;}.cls-32{fill:#9dbc44;}.cls-33{fill:#2b5258;}.cls-34{fill:#492719;}.cls-35{fill:#9cbc43;}.cls-36{fill:#9cbd45;}.cls-37{fill:#4f8e8b;}.cls-38{fill:#dfdee2;}.cls-39{fill:#337f6c;}.cls-40{fill:#65b3b9;}.cls-41{fill:#e78360;}.cls-42{fill:#2f98a1;}.cls-43{fill:#e98461;}.cls-44{fill:#e16e49;}.cls-45{fill:#e36d48;}.cls-46{fill:#363749;}.cls-47{fill:#414f77;}.cls-48{fill:#d88d2d;}.cls-49{fill:#3d7679;}.cls-50{fill:#b4351b;}.cls-51{fill:#9ad2bf;}.cls-52{fill:#dc912f;}.cls-53{fill:#d17c5f;}.cls-54{fill:#a6bb55;}.cls-55{fill:#dc9a45;}.cls-56{fill:#572d14;}.cls-57{fill:#4e4743;}.cls-58{fill:#a0543c;}.cls-59{fill:#7f7e7e;}.cls-60{fill:#285d59;}.cls-61{fill:#6fb7bd;}.cls-62{fill:#183b47;}.cls-63{fill:#6db5b9;}.cls-64{fill:#de6c4b;}.cls-65{fill:#265f58;}.cls-66{fill:#de4e31;}.cls-67{fill:#3b757b;}.cls-68{fill:#75a4a2;}.cls-69{fill:#f78a29;}.cls-70{fill:#98d2c0;}.cls-71{fill:#f5f5f5;}.cls-72{fill:#f0f3f2;}.cls-73{fill:#f3f5f4;}.cls-74{fill:#498a85;}.cls-75{fill:#f3f5f5;}.cls-76{fill:#f1f4f4;}.cls-77{fill:#c7e3d9;}.cls-78{fill:#b1512f;}.cls-79{fill:#e9f1f0;}.cls-80{fill:#4a8e88;}.cls-81{fill:#b1532e;}.cls-82{fill:#b7ded1;}.cls-83{fill:#c0e0d6;}.cls-84{fill:#2d757b;}.cls-85{fill:#297985;}.cls-86{fill:#e58462;}.cls-87{fill:#20676d;}.cls-88{fill:#83b14c;}.cls-89{fill:#6f7451;}.cls-90{fill:#389da5;}.cls-91{fill:#aa4d2e;}.cls-92{fill:#cb7828;}.cls-93{fill:#b05839;}.cls-94{fill:#ebecee;}.cls-95{fill:#f1f2f2;}.cls-96{fill:#d8e5e8;}.cls-97{fill:#58a6b8;}.cls-98{fill:#3c7380;}.cls-99{fill:#a84c2e;}.cls-100{fill:#4a2719;}.cls-101{fill:#ae4f2f;}.cls-102{fill:#4b291a;}.cls-103{fill:#4b281b;}.cls-104{fill:#245c55;}.cls-105{fill:#ac5231;}.cls-106{fill:#447d6b;}.cls-107{fill:#dce5e1;}.cls-108{fill:#dae1db;}.cls-109{fill:#c48f37;}.cls-110{fill:#91afac;}.cls-111{fill:#c7de9a;}.cls-112{fill:#d57a58;}.cls-113{fill:#265850;}.cls-114{fill:#cce0a4;}.cls-115{fill:#c9df94;}.cls-116{fill:#cde19f;}.cls-117{fill:#e8aa3b;}.cls-118{fill:#c66543;}.cls-119{fill:#d86650;}.cls-120{fill:#3c4060;}.cls-121{fill:#98d2be;}.cls-122{fill:#dee9e6;}.cls-123{fill:#f3eee6;}.cls-124{fill:#eed6b2;}.cls-125{fill:#f1d9b7;}.cls-126{fill:#eedab0;}.cls-127{fill:#efdab1;}.cls-128{fill:#f0eadd;}.cls-129{fill:#f6e6d1;}.cls-130{fill:#e38864;}.cls-131{fill:#403f5f;}.cls-132{fill:#394063;}.cls-133{fill:#726e7c;}.cls-134{fill:#eceaeb;}.cls-135{fill:#484b6b;}.cls-136{fill:#ecf3f8;}.cls-137{fill:#a4a4b3;}.cls-138{fill:#9ebc44;}.cls-139{fill:#245b53;}.cls-140{fill:#876550;}.cls-141{fill:#d88264;}.cls-142{fill:#d7775e;}.cls-143{fill:#2d5951;}.cls-144{fill:#627662;}.cls-145{fill:#d8d9ce;}.cls-146{fill:#398977;}.cls-147{fill:#edbbb4;}.cls-148{fill:#21686d;}.cls-149{fill:#eff0f3;}.cls-150{fill:#f1f3f4;}.cls-151{fill:#d4dfe5;}.cls-152{fill:#99c4ce;}.cls-153{fill:#94cac4;}.cls-154{fill:#e9f6f8;}.cls-155{fill:#ccd7d9;}.cls-156{fill:#5b5e4a;}.cls-157{fill:#3b757a;}.cls-158{fill:#225953;}.cls-159{fill:#975543;}.cls-160{fill:#1e696e;}.cls-161{fill:#f5f4f3;}.cls-162{fill:#378c75;}.cls-163{fill:#583323;}.cls-164{fill:#235b54;}.cls-165{fill:#583424;}.cls-166{fill:#f68a29;}.cls-167{fill:#f58a28;}.cls-168{fill:#f3f3f3;}.cls-169{fill:#f4f4f5;}.cls-170{fill:#f5f4f5;}.cls-171{fill:#f2f3f5;}.cls-172{fill:#f1f2f4;}.cls-173{fill:#d57858;}.cls-174{fill:#e8ecf5;}.cls-175{fill:#3d322c;}.cls-176{fill:#bfdae0;}.cls-177{fill:#89c4c0;}.cls-178{fill:#abc1ca;}.cls-179{fill:#66b9ad;}.cls-180{fill:#bb6945;}.cls-181{fill:#b16248;}.cls-182{fill:#287279;}.cls-183{fill:#e5eae9;}.cls-184{fill:#4b2719;}.cls-185{fill:#f3f4f3;}.cls-186{fill:#f5bd8d;}.cls-187{fill:#3e7380;}.cls-188{fill:#3a3f63;}.cls-189{fill:#3c747d;}.cls-190{fill:#97d0ba;}.cls-191{fill:#215b54;}.cls-192{fill:#dfc4b6;}.cls-193{fill:#225b53;}.cls-194{fill:#729684;}.cls-195{fill:#f4f4f0;}.cls-196{fill:#cb7523;}.cls-197{fill:#f2c59e;}.cls-198{fill:#f4f0ed;}.cls-199{fill:#e8c495;}.cls-200{fill:#f2a152;}.cls-201{fill:#da6146;}.cls-202{fill:#cdd0d8;}.cls-203{fill:#57a4b7;}.cls-204{fill:#da7666;}.cls-205{fill:#f2f3f4;}.cls-206{fill:#c2d7d8;}.cls-207{fill:#f6f2f8;}.cls-208{fill:#225a54;}.cls-209{fill:#205a53;}.cls-210{fill:#91b64a;}.cls-211{fill:#f8c284;}.cls-212{fill:#893f2d;}</style></defs><title>cover</title><path class="cls-1" d="M114.14,207c-6.53-14.23-15.68-26.74-25.46-38.84-1.1-1.37-1.77-.82-2.93-.07-11.48,7.4-24.27,9.53-37.65,9.07a16.15,16.15,0,0,1-7-1.83c-4.43-2.33-4.92-6.69-1.29-10.18,2.62-2.52,5.83-3.11,9.25-3.15,11.63-.14,23.26-.07,35.47,1.73-3.35-4.8-7.21-8.28-10.69-12.09-1.23-1.34-2.13,0-3.13.51a55.45,55.45,0,0,1-33.54,5.36c-5.79-.81-8.34-3.28-8-6.76s4.1-6.21,9.18-6.09a193.14,193.14,0,0,1,28,2.38c.73.13,1.47.57,2.53-.12-3.13-3.34-6-6.1-11.13-6.83a67.87,67.87,0,0,1-31.39-12.5A16.74,16.74,0,0,1,19.55,115c-.26-3.24,1.35-5,4.53-5.48a14.46,14.46,0,0,1,10.27,2.6c9.93,6.51,18.18,15,26.71,23.1,2.89,2.76,5.88,5.41,9.58,8.79-1-5.64-2-10.35-2.78-15.08-.75-4.49-1.36-9-1.94-13.52a12.34,12.34,0,0,1,0-4c.64-3.12,1.77-6.12,5.45-6.62,3.9-.54,5.6,2.34,6.51,5.34,3.63,12,2.74,23.86-1.9,35.37-.95,2.35-.51,3.47,1,5.08,4.68,5,9.21,10.05,14.13,15.46,1.43-5.62,2.68-11,4.17-16.25,1.6-5.67,3.41-11.27,5.17-16.9a27.21,27.21,0,0,1,1.33-3.36c2.14-4.58,6.45-7.15,10.15-6.09,3.19.92,5.19,5.2,4.19,10.27A63.37,63.37,0,0,1,97.44,168c-2.19,2.08-2.7,3.17-.59,5.66,3.34,4,6.15,8.35,9.53,13,1.62-15.86,5.77-30.59,10.19-45.26,1.06-3.52,2.53-6.78,5.71-9,5-3.42,10.28-1.46,11.83,4.44,1.35,5.13.31,10.14-1.12,15-1,3.59-2.58,7-3.91,10.54-.44,1.16-1.65,2.33.12,3.4-1.18,1.63-3.21,1.68-4.8,2.57-5.69,3.18-6.49,5-4.53,11-1.58,3.55-4.57,5.86-7.51,8.07-2.24,1.68-2.33,3.13-.95,5.34,2.11,3.38,3.89,7,5.84,10.45.36.88,1.09,1.63,1,2.68C117.13,207.57,115.89,208.41,114.14,207Z" transform="translate(-19.52 -28.11)"/><path class="cls-2" d="M384.57,113.73c10.76,7.81,20.9,16.29,28.91,27,4.57,6.12,4.26,8-1.28,13.26-5.18,4.95-11.68,7.94-17.42,12.05-.9,1-1.79,2-3.34,1.76-3.26-2.95-7.66-4.95-8.45-10,2.75-4.2,7-6.84,11-10.79-6.63-1.27-12.17-4.35-18.46-7.73.95,7,.84,13.62,1.89,20.13a39.42,39.42,0,0,1,0,8.45,6.13,6.13,0,0,1-2.45,3.61c-3.11,2-2.93,5.16-3.06,8.22-.11,2.8,1.32,3.3,3.66,2.36,2.47,4.48,1.57,8.83-.48,13.14-3.85,2-7.89,1-11.89.75a3.69,3.69,0,0,1-1.44-2.33c-3.82-17.9-9.35-35.44-11.24-53.74a54.16,54.16,0,0,1,2.44-22.55c1.48-1.75,1.5-4.68,4.29-5.41C366,116.76,375.19,116.87,384.57,113.73Z" transform="translate(-19.52 -28.11)"/><path class="cls-3" d="M118.59,357.79q-9.41-.13-18.83-.27a2,2,0,0,0-2.08,1.26c-1.44,2.54-4.06,1.23-6.08,1.06-1.82-.16-1-2.16-1.09-3.36-.41-8.82-.9-17.62-3.08-26.22a24.67,24.67,0,0,0-3.31-8.09c-1.7-.78-2.1-2.38-2.36-4-2.8-16.82-10.41-31.66-18.89-46.16-.83-1.42-2.39-2.72-1.26-4.7C59.21,250.1,54,233.83,43.77,218.5A92.19,92.19,0,0,1,68.3,239.23c.95,1.1,2,2.14,3,3.2,2.07-.19,2.4,1.6,3.22,2.83a14.08,14.08,0,0,0,3.2,5.2,39.76,39.76,0,0,1,6.55,12.42c.1,2.55-1.73,3-3.65,3.36-2.45.51-5.65.57-6.21,3.5-.59,3.09,2.07,4.92,4.35,6.64,8.1,6.1,17.38,9.22,27.23,11,2.41.44,5.16,0,7.06,2.21,1.14,4.7,2.11,9.4.89,14.24-1.46,2.1-3,.9-4.53.1a89.52,89.52,0,0,0-14.27-6.32,15.56,15.56,0,0,0-9.08-.39c-4.48,1.2-5.46,4.23-2.38,7.73a28,28,0,0,0,10.42,7.32c4,1.61,6.26,3.73,6.16,8.08.4,1.49.2,3.08.59,4.78,2.87-2.12,2.22-4.94,2.22-7.6.53-1.68,1.82-1.21,2.91-.92,2.6.7,5.53.4,7.71,2.46a5.43,5.43,0,0,1,.74,3.09c-.41,10.87,3.11,21.14,4.79,31.69C119.48,355.24,120.1,356.68,118.59,357.79Z" transform="translate(-19.52 -28.11)"/><path class="cls-4" d="M267.51,365.47q-35.8.08-71.61.17c-3.35,0-4.72-2-5.47-4.81a5.11,5.11,0,0,1-1.85-4,26.82,26.82,0,0,1,0-3.76,7.44,7.44,0,0,1,.14-1.2,25.5,25.5,0,0,0,.73-6.35,7.79,7.79,0,0,1,.16-1.14,10.26,10.26,0,0,1,.27-1.11,11,11,0,0,0,.26-3.91c0-1.75-.18-3.52.39-5.22.9-1.07.11-2.52.8-3.65a10.36,10.36,0,0,0,.44-4c.08-2.31.76-4.55.8-6.87,1.17-3.19.84-7.26,5-8.69a7.14,7.14,0,0,1,4.4.08,2.15,2.15,0,0,1,1.12,1.05c1,2.52,2.12,3.31,3.77.44a3.71,3.71,0,0,1,2.55-1.73,10.55,10.55,0,0,1,6.35,1.13,4.13,4.13,0,0,1,1.5,3.69c-.35,3.08-.66,6.16-1,9.24-1,2.26-1.49,4.68-2.43,6.95-2.66,5.78-5,11.74-9.32,17.23,3.17.42,5.44-.64,7.78-1.25a13.5,13.5,0,0,1,4.18-1c4.83-.53,9.17-2.57,13.64-4.24,6.73-2.51,13.49-5,20.89-3.33,2.43,4.14,2.43,4.14,9.86,2a10.62,10.62,0,0,0,9.29-2.34c.9-.73,2.28-1.64,3.57-.25.48,3.54-1.6,6.4-2.71,9.47C269,353.73,267,359.34,267.51,365.47Z" transform="translate(-19.52 -28.11)"/><path class="cls-3" d="M391.62,167.56c1-.66,1.71-1.83,3.16-1.5,5.37,3.45,7.82,8.52,8.25,14.76.62,9-1.41,17.53-4.81,25.83-3.64,8.89-.18,16.48,9,19.15,4.75,1.37,9.43,2.89,14.08,4.58,2.25,0,3.46,1.82,5.15,2.81,6.1,4.62,8.88,10.84,8.92,18.4,0,1.47,0,2.95.05,4.42a21.64,21.64,0,0,1-5,13.92c-2.67,3-6.4,4.84-9,8-.82,1.12-1.3,2.61-3,2.7-3.36-2.31-4.09-4.31-3-8.54a22,22,0,0,0-.21-12.25,11.48,11.48,0,0,0-8.78-8.41c-4.85-1.28-5.79-2.87-5.19-7.81.13-1.06.28-2.12.42-3.18.74-5.5-.92-9.76-6.18-12.21-1.94-1.32-3.74-2.76-4.58-5.07-3-8.4-5.77-10.06-14.21-8.39-1.35.27-2.64.51-3.48-1-1-4.21-.65-8.45-.29-12.68.56-2,.26-4.27,1.75-6,.38-4.24,2.09-8.46.18-12.73-.87-.82-.53-1.84-.46-2.82a6.29,6.29,0,0,1,1.36-2.21c1.5-1.66,3-3.32,2.9-5.8,1.55-1.2,3.32-2.08,4.8-3.37A22.34,22.34,0,0,0,391.62,167.56Z" transform="translate(-19.52 -28.11)"/><path class="cls-5" d="M360.33,360.7H331.59c-1.07-1-.48-2.26-.55-3.42.8-4.9,2.3-9.64,3.38-14.48.35-1.55,1-3.1.21-4.7-1-1.66-2.36-.72-3.57-.39-2.71.73-5.2,2.11-7.91,2.87a5.68,5.68,0,0,1-1.17.13,40.71,40.71,0,0,1-9.32-2.08c-2-1.56-4.06-.93-6.14-.22-2.1-2-1.08-4.43-1.44-6.61-.33.35.45,2-1.18,1.78-1.3-1.22-.9-2.86-1.14-4.36-.18-1.15.62-2.7-1.16-3.31a3,3,0,0,1-2.23-.73c-3.59-5.94-3.32-7.77,1.47-10.32,17.67-.9,35.35-.32,53-.43a12.26,12.26,0,0,1,5.1.94,16.17,16.17,0,0,1,8.65,10.05c3.07,9.57,3.06,19.17-1.26,28.47A16.79,16.79,0,0,1,360.33,360.7Z" transform="translate(-19.52 -28.11)"/><path class="cls-6" d="M254.1,166.73,251,149.23c17.91.34,35.81.06,53.72.2a9.76,9.76,0,0,1,3.55.54,3.43,3.43,0,0,1,1.91,4c-2,12.09-4.33,24.13-7.36,36-.06.23-.33.41-.52.6-4.41,1.75-9,.6-13.52.9-2.81.18-5.62-.26-8.44-.22-5.43.43-10.88.22-16.31.22a7.75,7.75,0,0,1-4.93-1.2c-3.13-4.33-2.54-9.69-4-14.49a8.64,8.64,0,0,1-.31-1.22C254.06,172,254.59,169.33,254.1,166.73Z" transform="translate(-19.52 -28.11)"/><path class="cls-7" d="M61.62,267.36c3.51,6.44,7.09,12.84,10.53,19.32A104.92,104.92,0,0,1,82.67,317.2a48.11,48.11,0,0,0,1.45,5c.39,5.54.6,11.1,1.21,16.61.67,6,.28,12,.33,18,0,2.42-1.06,2.92-3.34,3.33-7.25,1.3-11.06-2.27-13.87-8.36a127.77,127.77,0,0,1-11.62-46c-.94-15.06-1.24-30.19-6.61-44.61a51.23,51.23,0,0,0-8-14.13c5.42,2.48,8.28,6.33,11.33,9.85C56.45,260.23,59,263.86,61.62,267.36Z" transform="translate(-19.52 -28.11)"/><path class="cls-5" d="M114.14,207c1.6.3,2.82-.5,4-1.36a1.76,1.76,0,0,1,1.72-.63,23.17,23.17,0,0,0,15.46.62c3,.2,3.92,2.12,3.94,4.79s0,5.07,0,7.6c0,2.73-.9,4.42-4,4a6.33,6.33,0,0,0-4.18,1c-3,.86-6,.32-9,.5-1.52.09-3.2-.4-4.42,1-1.91,2.83.3,5.83-.36,8.7a7.46,7.46,0,0,1-1,2.52c-1.9,3.19-.06,5.11,2.31,6.86,4.91,3.65,10.22,3.4,15.68,1.62,2.22-2.89.72-6.11.83-9.18.18-1.56.13-3.21,1.76-4.15,2.11,0,2.23,1.57,2.33,3a20.55,20.55,0,0,0,.69,5.52,73.86,73.86,0,0,1,.21,12.85c-.57,3.17.05,6.24.79,9.3,1.12,6.29,1.88,12.57-.06,18.85a6.86,6.86,0,0,1-4.09,1.41,102.12,102.12,0,0,1-25.1-.14c-2.91-1.14-2.93-3.63-2.85-6.15-.22-4,.13-8.08-.31-12.1-.14-1.6-2-2.46-1.82-4.21a8,8,0,0,0-1-10.87c-1.9-1.54-3.85-3-3-5.89,2-2.49,3.15-5,.75-7.95,2.2-3.68,2.47-7.82,2.85-11.93,1.32-2.6,2.67-5.19,1-8.16,2.41-1.6,3.74-4,5-6.5Z" transform="translate(-19.52 -28.11)"/><path class="cls-3" d="M258.84,67.12a95.44,95.44,0,0,0-11.93-35.23c7.05,3.51,12.46,9,17.51,14.88A82.57,82.57,0,0,1,277,67.19c3.19,7.21,5.42,14.76,8,23.2,4.4-12.53,10.52-22.94,20.18-30.94,1.68-1.39,3.22-3.07,6.23-3.84A78.71,78.71,0,0,0,302.05,82c.69,3.65-1.12,6.32-3.46,8.79a10.3,10.3,0,0,1-2.67,1.09,6.77,6.77,0,0,1-3.09.1c-.8-.15-1.66-.32-1.57.94.06.8.34,1.72,1.3,1.62,1.39-.15,2.67-.45,2.88,1.51a9.51,9.51,0,0,1-1.15,3.4,73.53,73.53,0,0,0-6.88,31.85,14.09,14.09,0,0,1-.3,3.58,7.41,7.41,0,0,1-10.52-.13c-1.05-5.18,0-10.52-1.14-15.69-.09-1.1,0-2.21-.08-3.32-1.21-14.93-6.27-28.54-13.92-41.31C260.14,72.22,258.26,70.07,258.84,67.12Z" transform="translate(-19.52 -28.11)"/><path class="cls-8" d="M452,355.89c-3.82.82-3.76-3.48-6.1-4.61-2.08.5-2.41-1.34-3-2.49-2.07-4.32-5-8.16-6.72-12.67-.95-2.53-1.93-2-3.13-.17-1.68,2.55-3.27,5.17-5.2,7.55-2.51,3.09-4.66,6.44-7,9.64a13.24,13.24,0,0,1-5,4.41c-7.48,6.09-14.67,6.7-23.39,2-.9-2,.71-3,1.77-4,5.05-4.73,7.79-10.7,9.54-17.23.23-3.93,2.27-6.64,5.55-8.69a27.73,27.73,0,0,0,5.24-5,49.48,49.48,0,0,1,14.23-11,7.11,7.11,0,0,0,3.51-3.14c1.68-1.62,3.52-2.89,6-2.68,1.72.3.78,2.16,1.72,2.91,2.3,1.55,3.69,3.86,4.93,6.21a170.55,170.55,0,0,1,14.09,34.8A18,18,0,0,0,452,355.89Z" transform="translate(-19.52 -28.11)"/><path class="cls-9" d="M480.25,178.06c1.32-.65,2-3.06,3.91-1.93s2,3.36,1.65,5.4a15.7,15.7,0,0,1-3.71,7.46c-1.56,1.8-2.56,3.8-2.15,6.24.65,3.87-1.2,6.51-4.28,8.34a6.92,6.92,0,0,0-3.84,5.66c-.64,7.17-3.59,13.12-8.39,18.63-4.39,5-5.86,11.95-8.49,18-6.85,15.83-12.87,32-19.18,48.08-.28.7-1.36,1.61,0,2.36a.9.9,0,0,1,.3.67c0,.26,0,.38-.09.39a3.36,3.36,0,0,1-1,.69,14.36,14.36,0,0,0-2.19.93c-4.38,2.67-7.18,1.56-9.3-3.63,7.39-19.56,14.62-39.18,22.74-58.46a46.15,46.15,0,0,1,3.1-6.09,22.89,22.89,0,0,0,3.5-9.72,15.49,15.49,0,0,1,6-11.07c8.59-6.29,12.62-15.4,16.56-24.69C476.6,182.63,477.74,179.89,480.25,178.06Z" transform="translate(-19.52 -28.11)"/><path class="cls-6" d="M434.31,256.08c.48-6.79-.3-13.2-4.92-18.69a14.82,14.82,0,0,0-3.95-3.7c.75-9.49,2.7-18.81,3.92-28.23a22.16,22.16,0,0,1,1.72-6.17,12.28,12.28,0,0,0,1-7.85,20.23,20.23,0,0,1,4.33-18.14c7.52-8.9,8.26-19.77,10.36-30.31.66-3.31,1.41-6.53,3.42-9.32,1.1-1.17,1.43-3.7,3.75-2.78a4.8,4.8,0,0,1,3,4.84c0,2.27.18,4.57-.8,6.73-1.93,4.21-3.2,8.26-1.2,13.07,1.18,2.84-.91,5.74-3.15,7.78s-2.87,4.62-2.46,7.61c1,7.35.4,14.41-3.79,20.87a11.55,11.55,0,0,0-1.62,4.5c-2.64,17.86-6.45,35.54-8,53.56C436.09,252.1,437.52,254.69,434.31,256.08Z" transform="translate(-19.52 -28.11)"/><path class="cls-10" d="M258.84,67.12C263,75.43,268.24,83.2,271.33,92a91.12,91.12,0,0,1,5.08,23.26c-.26,1.09-1.61,2.21.07,3.27,1.42,5.58.7,11.24.74,16.88-2.79,2.76-8,3-11.74.57,0-1.73-2.64-7.6-3.27-9.31-1.12-3-4.32-6,.39-10.43-4.07,1.79-4.2-.22-4.59-1.89a129.33,129.33,0,0,1-3.17-24.65c-.44-12.8-2.16-25.27-9.92-37.24C251.52,56.5,254.58,62.38,258.84,67.12Z" transform="translate(-19.52 -28.11)"/><path class="cls-11" d="M404.63,338.18c-1,7-4.53,12.62-9.13,17.73-1.06,1.17-2,2.41-3,3.63l-2.32.35c-4.13-2.55-6.49-6.65-9.13-10.5-7.51-10.58-10.49-22.53-10.62-35.33-.24-4.28,0-8.5,1.95-12.43a8.58,8.58,0,0,1,3.18-3.48c4.68-2.63,7.79.37,11,3.07,3.23,3.73,6.42,7.47,6.39,12.83-1.09,1.61-2.81,2.42-4.46,3.24-2.2,1.1-2.83,2.49-1.7,4.81a36.58,36.58,0,0,0,7.34,10.35c2,2,4.43,3.45,7.55,2.47S405.44,335.42,404.63,338.18Z" transform="translate(-19.52 -28.11)"/><path class="cls-12" d="M384.57,113.73c-5.23,4.49-11.46,3.67-17.46,2.86-3.66-.5-7.75-.86-10.23-4.45-1.44-1.89-.5-3.85,0-5.71a133.39,133.39,0,0,0,3.65-21.14c.17-1.93.7-4-.74-5.72-2.68-1-4.94-2.4-6-5.24,2.45-4.7,5.7-8.59,10.75-10.66.74.12,1.07.67,1.44,1.24,3,4.69,7.35,4.83,10.78.34a4.27,4.27,0,0,1,1.39-1.38c5.11,1.58,7.52,5.54,9.14,10.25.43,1.27.68,2.75-.83,2.94-3.74.46-7.09,3.17-11.23,1.67-1.81-.66-3.95-.42-5.94-.57s-2.12,1.05-1.77,2.56c1.16,2.44,1.41,5.09,1.85,7.7.84,4.89,1,5,5.89,4.37a8.54,8.54,0,0,1,2-.08c2.42.38,3.21,2.21,3.69,4.24a37.42,37.42,0,0,0,3.46,9.81Z" transform="translate(-19.52 -28.11)"/><path class="cls-13" d="M178.22,104.71l.8-19a2.14,2.14,0,0,1,1.62-1.52c1.95-.2,3.42-1.32,4.94-2.43a304.88,304.88,0,0,0,27.93-22.65,4.63,4.63,0,0,1,2.67-1.63c3.26,1.85,2.71,4.6,1.56,7.32-1.73,4.08-4.95,7-8.35,9.6-7.61,5.76-15.56,11-25.36,12.22-1.67.22-2.57.92-2.61,2.82-.1,5.89-.36,11.78-.55,17.66.39.7.89.38,1.29.07,8.78-6.79,17.86-13.2,26.22-20.53a47.15,47.15,0,0,0,4.53-4.56c1-1.17,2-2.15,3.76-1.62,2.36,1.35,1.71,3.78,2.08,5.84-2.71,3.17-5.16,6.39-9.7,7.52-3.82.95-3.4,5.27-4.69,8.2a45.92,45.92,0,0,1-18.07,8c-2.93.61-4.22,1.95-4.59,5-.4,3.29-.25,6.64-1,9.9-.49,1.17-.49,2.61-2.71,4,.12-5.32-.3-9.92.34-14.56a11.64,11.64,0,0,1-.1-2.77c.61-3-1.26-3-3.42-3.31a55.33,55.33,0,0,1-31.94-15.93c-2.47-2.44-4.4-5.43-2.29-9.2,2.73-.35,4.36,1.62,6.3,3,8.89,6.11,17.57,12.54,27,17.85C175.14,104.61,176.49,106,178.22,104.71Z" transform="translate(-19.52 -28.11)"/><path class="cls-14" d="M265.47,136c3.92,0,7.88.79,11.74-.57,3,1,6,.17,9,.06,3-1.13,6-.19,9-.42,4.72-.26,9.45.15,14.16-.44,5,0,6.1,1,6.25,5.56.19,5.73-1.24,7.43-6.51,7.73-18.56.41-37.11.07-55.67.18a12.42,12.42,0,0,1-2.75-.5c-.7-1.8-3.53-.26-3.81-2.14a55.24,55.24,0,0,1-.18-7.56c0-2,1.41-1.91,2.77-1.91Z" transform="translate(-19.52 -28.11)"/><path class="cls-15" d="M434.31,256.08c1.67-1.79,0-4.42,1.6-6.24,4.25-9.05,6.94-18.7,10.44-28a33.78,33.78,0,0,1,11.32-15.6c4.5-3.42,7-7.65,8.43-13.42,1.76-7,6-13.08,14.15-14.73-3.33,7.11-6.63,14.24-10,21.33-1.83,3.85-5,6.48-8.26,9.11-5,4.06-8.34,9-8.44,15.68a6.75,6.75,0,0,1-.76,3.08c-11.5,20.53-18,43.1-26.8,64.76-.53,1.32-.54,3-2.17,3.66-1.4.2-2-.72-2.37-1.81-.1-5.93,3.32-10.87,4.66-16.4.65-2.68,1.47-5.43,3.41-7.6C432.22,265.67,434.48,261.29,434.31,256.08Z" transform="translate(-19.52 -28.11)"/><path class="cls-15" d="M450.21,133.67q-2.85,13.89-5.7,27.78c-.78,3.8-3.18,6.69-5.38,9.73-4.29,6-7.76,12.12-5.79,20a13.26,13.26,0,0,1-1.16,8.53c-2.41,5.55-2.34,11.74-3.4,17.65-.85,4.72-1.25,9.52-1.78,14.3-.12,1.07-.44,1.78-1.55,2l-4.11-3.32c.87-14.82,2.55-29.56,4.26-44.3.68-5.88,4-10.44,7.31-14.93a27.62,27.62,0,0,0,5.66-17.39C438.57,145.38,442,137.86,450.21,133.67Z" transform="translate(-19.52 -28.11)"/><path class="cls-16" d="M240.34,169.4c4.23-.47,8.45-3.46,12.68,0,2.73,1,1.7,3.74,2.64,5.56l0-.09c1.3,6.73-.28,12.31-6.41,16.08a35.09,35.09,0,0,1-14.06,2.85c-2.65-.07-5.3-.13-7.94,0-3.28.14-4.91-1.44-5.33-4.54s-1.09-6.26-.87-9.45c.7-2.44,2.73-3.39,4.8-4.3C230.49,173.06,234.72,169.56,240.34,169.4Z" transform="translate(-19.52 -28.11)"/><path class="cls-1" d="M112.39,208c0,3.4-.86,6.09-4.84,6.49-5.52,2.39-10.66.11-15.88-1.27-.67-.42-1-1.33-1.76-1.54-2.67-.81-3.91-2.32-3.2-5.2.11-.44-.41-.93-1.23-.87-.19,1.78,1.89,4-.69,5.41A3.58,3.58,0,0,1,81,209.64c-5.24-2.6-10.33-5.44-14.31-9.87-1.52-1.69-3.15-3.54-2.19-6s3.41-3.19,5.86-3.5a24.17,24.17,0,0,1,13.25,2.05C93.6,196.77,103,202.42,112.39,208Z" transform="translate(-19.52 -28.11)"/><path class="cls-1" d="M106.81,222.36c1.3,3.94-.67,11.17-3.31,12.21-11.49-2.09-22.82-4.61-32.18-12.24a23.24,23.24,0,0,1-4-3.93c-2.57-3.42-1.66-5.87,2.37-7.3,3.4-1.2,6.88-.66,10.33-.7A54.52,54.52,0,0,1,106.81,222.36Z" transform="translate(-19.52 -28.11)"/><path class="cls-1" d="M102.75,242.51c.83,2.58,1.89,5,4.84,5.8,1.4.39,1.71,1.48,1.74,2.79a29.05,29.05,0,0,0,.31,5.17c.52,2.56-.52,3.42-2.89,3.25a1.72,1.72,0,0,1-1.4.66C95.6,258.6,85.86,257,77.7,250.79c-1.27-1.73-2.81-3.26-3.95-5.1l-2.49-3.25c.21-7.05,2.94-9.19,11-8.28,6.78.77,12.55,4.21,18.37,7.43C101.32,242,101.89,242.54,102.75,242.51Z" transform="translate(-19.52 -28.11)"/><path class="cls-3" d="M144.06,141.32a31,31,0,0,1,11.12-10.64c1.45-1.81,3.12-1.06,4.73-.36a34.54,34.54,0,0,0,14,3.27c2.34,0,4.23.78,4.59,3.49-.64,3.23-.42,6.51-.53,9.78a6.22,6.22,0,0,0,1.29,4c-.18,1.63-1.55,1.81-2.64,1.76-3.62-.16-4.58,1.78-4.32,4.94a4.49,4.49,0,0,1-.48,2.3c-1.63,1.8-3,.31-4.11-.57a204.84,204.84,0,0,0-22.25-15.68A2.46,2.46,0,0,1,144.06,141.32Z" transform="translate(-19.52 -28.11)"/><path class="cls-17" d="M267.51,365.47c-3-4.54-.26-8.74.82-13,1.2-4.78,3.8-9.11,4.74-14,.41-4.28,2.94-7.57,5.27-10.91,1.06-1.52,2.64-2.93,4.69-2.22s1.8,2.71,1.87,4.42c0,.66,0,1.32,0,2a22.16,22.16,0,0,1-1,5c-1.7,5.61-3.37,11.22-5.57,16.67-1.54,3.81-1,4.41,2.95,4.69a46.42,46.42,0,0,1,5.55.74c5.84,1.24,11.65.24,17.47-.25a4.56,4.56,0,0,1,1.33,0c2.94.89,5.62,2,4.7,5.93a3.4,3.4,0,0,1-.8,1C295.5,366.29,281.5,365.73,267.51,365.47Z" transform="translate(-19.52 -28.11)"/><path class="cls-18" d="M371.56,314.14a62.67,62.67,0,0,0,10.75,35.63c.36,5.6-3.22,9.82-9.23,10.91l-12.75,0c2.91-4.34,6.58-8.23,7.35-13.75,1.16-8.4,1.58-16.66-2.64-24.5-1.38-2.57-3.5-4.27-5.64-6,1.57-2.71,5.12-1,6.95-3.11A44.63,44.63,0,0,1,371.56,314.14Z" transform="translate(-19.52 -28.11)"/><path class="cls-19" d="M180.94,84.72l-1.91,1-.24-.09c-.61-1.37-1.27-2.74-.4-4.26-5.62-12.61-8.82-25.66-7.29-39.58.48-4.33,2.88-7.7,5.86-10.64,1.66-1.63,3.68-2.72,6.17-1.68a6.19,6.19,0,0,1,1.34,4.88c-1.66,14.7-.93,29.55-2.8,44.23C181.41,80.6,182.49,82.82,180.94,84.72Z" transform="translate(-19.52 -28.11)"/><path class="cls-15" d="M180.94,84.72c-.62-11.65.74-23.24,1.18-34.86.26-6.81.67-13.62,1-20.43,4.2,2.32,5.6,6.2,5.74,10.67.32,10.52-2.32,20.66-4.2,30.89-.64,3.51-1.63,7-2.13,10.66,6.59-7.12,13.52-13.78,20.57-20.31,3.7-3.42,7.54-6.53,13.07-3.89C206.49,67.9,194.86,76,183.54,84.52A2.12,2.12,0,0,1,180.94,84.72Z" transform="translate(-19.52 -28.11)"/><path class="cls-20" d="M295.8,91l2.34-.77c2.8-1.08,4.22-4.29,7.39-4.81a44,44,0,0,0,6.71-6.65c2.5-2.93,5.5-4.49,9.42-2.88C321.94,79.72,318.6,78,317,79s-1.49,1.79-.23,2.78a36.29,36.29,0,0,0,5.58,4c.4-2.32-1-4.13-.63-6.14,1.76-1.83,1.76-1.83,3.85,1.68,1.77,3.39.56,7.72,3.57,10.8.88.9-.11,2.29-.92,3.2-3.57,4-7.57,7.48-11.3,11.27-1.93,2-3.87,1.37-5.41-.66-1.69-2.22-3.32-4.5-4.91-6.8-1.12-1.62-2.4-2.85-4.53-2.77a14,14,0,0,1-3.78-.38C296.28,94.91,292.89,94.53,295.8,91Z" transform="translate(-19.52 -28.11)"/><path class="cls-21" d="M220.07,124.3c6.3,1.48,8.27,6.56,9.93,11.92-.3,3.44-3.06,4.16-5.63,5.1-6.85.42-13.71-.22-20.55.38-4.77-.84-5.68-1.69-6.34-5.91.21-2.38,1.2-4.54,1.9-6.78,1.24-2.76,2.81-5.14,6.15-5.6a10.43,10.43,0,0,1,7.59,6.86A7.73,7.73,0,0,1,220.07,124.3Z" transform="translate(-19.52 -28.11)"/><path class="cls-22" d="M224.77,140.39c1.92-1.17,4-2.09,5.23-4.17,1.79,5.87,3.51,11.77,5.39,17.61,1.55,4.83,3.65,9.63-1.41,13.75-4.87,3.19-10.56,4.46-15.83,6.74a25.86,25.86,0,0,1-6.66-.07c-2.2-.38-3.76-1.45-2.4-4.07.36-.39.8-.84,1.32-.82,5.92.21,10.19-3.26,14.57-6.46,3.19-1.35,3.72-3.61,2.54-6.72-1.11-2.94-2-6-3-9a20.36,20.36,0,0,1-.65-2.55,5.88,5.88,0,0,1,.12-2,9.41,9.41,0,0,1,.17-1A3.61,3.61,0,0,1,224.77,140.39Z" transform="translate(-19.52 -28.11)"/><path class="cls-23" d="M177.56,137.07c-.15-1.89-1.36-2.46-3-2.35-5.88.42-11.23-1.44-16.37-3.95-1.17-.57-2-.09-3-.1.36-2.15-1.64-2.14-2.73-2.8-4.53-2.76-9.16-5.42-12.44-9.72-1.93-2.52-3.83-5.28-1.09-8.51,3.89.92,6.81,3.51,9.94,5.74,8.15,5.8,16.22,11.72,25.08,16.43,1.08.57,2.17,1.9,3.51.37.41-6-.21-12,.88-17.88,0,4.32,0,8.65,0,13.37,1.38-1.17.42-2.75,1.6-3.47,1.83,1.74,1.14,4,1.23,6.07a2.86,2.86,0,0,0,1.56,3.13,3.8,3.8,0,0,1,1.58,2.16c-.66,2-3.32,1.89-4,3.9a1.47,1.47,0,0,1-1,.32C177.84,139.44,178.28,137.88,177.56,137.07Z" transform="translate(-19.52 -28.11)"/><path class="cls-24" d="M138.21,168.48c.12-4.82-.19-9.67.87-14.44,1.55-.43,2.46.71,3.5,1.46a65.75,65.75,0,0,0,24.09,11c1.23.28,2.77.15,3.09,1.93-5,3.71-4.5,9.22-4.74,14.49a1.83,1.83,0,0,1-2.53.11c-3.09-2.2-6.58-3.93-8.7-7.28a4.31,4.31,0,0,1-.13-2c.45-3,0-5.78-2.73-7.43-2.88-1.74-5.36.23-7.81,1.54C141.55,168.71,140.22,171.21,138.21,168.48Z" transform="translate(-19.52 -28.11)"/><path class="cls-25" d="M204.05,101.78c.15-6.92,1.36-8.53,7.86-10.33,1.27-.35,2.56-.35,2.8-2.18.29-2.25,2-2.92,4-3,2-2.76,5.06-2.41,7.93-2.55a2.21,2.21,0,0,1,2.14,1.54c.94,2-1.32,9.51-3.48,10.15-3.23,1-3.51,2.78-2.85,5.53a11.1,11.1,0,0,1-.17,3.19c-.56,1-1.29,1.59-2.46.81-1.48-1.4-1.2-3.46-1.95-5.13-1.07-2-2.47-2.51-4.34-1a26,26,0,0,1-2.87,1.94c-.57.38-1.07.85-1.6,1.28a7.19,7.19,0,0,0-2.28,2.72c-1.26.95-2.22.47-3.06-.62A2.17,2.17,0,0,1,204.05,101.78Z" transform="translate(-19.52 -28.11)"/><path class="cls-3" d="M427,343.07c2.09-3.09,4.28-6.12,6.24-9.29,1.61-2.59,2.47-1.74,3.34.43a95.41,95.41,0,0,0,9.24,17.07l-1.28,5.49c-3.53.87-7.12.2-10.68.39a1.74,1.74,0,0,1-2-1.56C431.54,350.92,428.75,347.21,427,343.07Z" transform="translate(-19.52 -28.11)"/><path class="cls-26" d="M118.59,357.79a4.5,4.5,0,0,0-.45-3.31c2.2-5.21,4.73-5.68,8.78-1.65.76,1.57.09,3.52,1.31,5,1.08,1.06.87-.21,1.11-.65.19-.91.36-1.81.5-2.73.45-2.19,1.15-4.26,3.65-4.77,2-.41,3.29.74,4.19,2.4.65,1.26.56,2.7,1,4,.13.35.24.72.34,1.08.29,1.26.9,2.51.12,3.81.58,4.43-2.54,5.22-5.7,5.2a62.21,62.21,0,0,0-8.14.25C118.56,367.21,117.39,365.5,118.59,357.79Z" transform="translate(-19.52 -28.11)"/><path class="cls-27" d="M169.54,168.4c-8.24-2-16.21-4.56-23.43-9.17-2.47-1.58-4.72-3.41-7-5.18-1.55-2.81-4.27-5.33-2.29-9,2.78-1,4.55,1.08,6.41,2.33,8.74,5.83,17.94,10.91,26.92,16.33.85.52,1.63,1.21,2.75.87a3.16,3.16,0,0,1-.09,4.24A2.47,2.47,0,0,1,169.54,168.4Z" transform="translate(-19.52 -28.11)"/><path class="cls-13" d="M178.54,85.48c-14.62-.1-26.3-6.74-36.32-16.71-2.09-2.08-3.8-5-1.55-8.25,1.69-.91,2.74.44,3.93,1.18C153,66.89,160.55,73.26,169,78.44c1.94,1.19,3.9,2.26,5.93,3.26C176.51,82.5,178.42,83.17,178.54,85.48Z" transform="translate(-19.52 -28.11)"/><path class="cls-28" d="M324.63,81.49c-.41-.67-.81-1.35-1.25-2-.85-1.25-.84-.12-1,.39-2.5,1-4.79,1.18-6.39-1.54,1.34-2.14,4.88.87,5.71-2.45,6.72-.68,12.83,1.77,19,3.83,6.62,2.22,6.59,2.33,11.14-3,.69-.81,1.35-1.64,2-2.46,2.14,1.29,3.45,3.76,6.09,4.35a29.45,29.45,0,0,1-8.51,10.81c-2.63,2.24-5.71.77-8.31-.58-4.39-2.29-8.77-4.6-13.11-7A5.46,5.46,0,0,0,324.63,81.49Z" transform="translate(-19.52 -28.11)"/><path class="cls-29" d="M367.53,60.62c.39-6.2-2.82-10.63-7.14-14.51.7-1.07,1.9-1.71,2.5-2.88,1.22-4.77,2.94-6,7.7-5.25,4.45.7,8.75,1.74,10.59,6.68.34.9,1,1.94.34,2.64-2.53,2.75-3.11,6.9-6.48,9C372.51,57.68,369.58,58.39,367.53,60.62Z" transform="translate(-19.52 -28.11)"/><path class="cls-30" d="M178.54,85.48c-2.64-3-6.68-3.7-9.84-5.93-9.24-6.49-18.67-12.71-28-19,3.28-3.16,7-3.4,11.44-.36a192.05,192.05,0,0,1,23.09,18.9,9.05,9.05,0,0,0,3.18,2.26,4.59,4.59,0,0,1,.4,4.26Z" transform="translate(-19.52 -28.11)"/><path class="cls-31" d="M335.3,337.34c2.65.19,1.15,1.87.91,2.87-1.38,5.83-2.87,11.63-4.32,17.44-3.09,1.35-3.25,4.37-4,7l-3.65.23c-4.8.56-4.94.54-3.94-4.06,1.55-7.12,2.9-14.31,5.63-21.12C328.8,338,331.82,336.75,335.3,337.34Z" transform="translate(-19.52 -28.11)"/><path class="cls-32" d="M177.44,132.18c-.3,2.49-1.84,1.79-3.14,1.09-8.91-4.77-17.08-10.71-25.38-16.44-3.38-2.33-6.67-4.79-10-7.19,3.44-2.92,7-3.15,11.21-.09,9,6.51,17.78,13.25,25.27,21.51A3,3,0,0,0,177.44,132.18Z" transform="translate(-19.52 -28.11)"/><path class="cls-33" d="M250.72,147.62c1.16-1.34,2.73-.88,4.15-.88q27.35,0,54.7,0c1.13,1.62.69,2.93-.8,4q-26.58,0-53.16,0c-1.74,0-3.5.2-4.62-1.55Z" transform="translate(-19.52 -28.11)"/><path class="cls-30" d="M178.22,104.71c-.18,3.08-1.94,1.86-3.28,1.1-10-5.68-19.3-12.39-28.7-19-1.86-1.3-3.78-2.51-5.67-3.76,4.24-3.22,7.52-3.15,12.64.5A209.46,209.46,0,0,1,178.22,104.71Z" transform="translate(-19.52 -28.11)"/><path class="cls-34" d="M119.47,179.67c-3.14-3.85-3.36-7,2.1-10.67,2.31-1.57,4.67-3.09,7.63-3.09l8.26,3.44a3.23,3.23,0,0,1,2.14,1.81,26,26,0,0,1,1.07,4c.8,4.12-2.48,6.24-4.4,9-2,1.15-2.75-.35-3-1.78-.49-3.29-1.75-5.56-5.49-5.47-3.89.09-5.14,2.66-5.68,6a2.15,2.15,0,0,1-1.4,1.76c-1.58-1-1.36-2.72-1.23-4.37Z" transform="translate(-19.52 -28.11)"/><path class="cls-35" d="M172.23,164.53c-1.06,2.1-2.11.2-2.82-.2-10.51-5.79-20.73-12.07-30.76-18.65a8.54,8.54,0,0,0-1.85-.67c1.55-3,5.11-2,7.27-3.69,5.93,4,11.91,8,17.79,12.11,3.17,2.21,6.19,4.64,9.27,7C173,161.37,173.17,162.8,172.23,164.53Z" transform="translate(-19.52 -28.11)"/><path class="cls-36" d="M216.67,80.44c-4.29,2.7-7.29,6.84-11.2,10-7.11,5.79-14.47,11.24-21.82,16.7-.89.66-1.92,1.9-2.78-.08a204.79,204.79,0,0,1,23.94-24.44C209.12,78.85,212.38,78.24,216.67,80.44Z" transform="translate(-19.52 -28.11)"/><path class="cls-37" d="M139.13,360.95l-.93-4.23c1.38-1.37,3.17-1.3,4.89-1.3q20.83-.08,41.67,0c1.74,0,3.5.07,4.88,1.39l.8,4Z" transform="translate(-19.52 -28.11)"/><path class="cls-26" d="M373.84,55.8c2-1.53,3.94-3.17,4.24-6a2.22,2.22,0,0,1,1.69-2c1.94-.63,1.09-1.21.49-2.7-1.71-4.26-5.19-5.17-8.94-5.87-5.1-1-6.16-.2-7.71,5.09-2.37-.8-2.83-2.66-2.47-4.79a4.69,4.69,0,0,1,4.36-4c4.23-.48,8.48-.63,12.62.66a22.87,22.87,0,0,1,2.21.83c8,3,9.08,6.45,4.19,13.15a4.58,4.58,0,0,0,.4,3.72c.88,2-.2,4-2,3.78-2.59-.28-5.1,1.11-7.61.06C373.79,57.85,373.17,57.31,373.84,55.8Z" transform="translate(-19.52 -28.11)"/><path class="cls-38" d="M435.12,297.22a1.91,1.91,0,0,0,.66-.07c3.08-.37,2.57,3.65,5,4.09a9.81,9.81,0,0,0,7.51,1c-2.28,3.89-6.21,5-10.17,6.14l-5.42,2.73c-3.28,1.85-6.95,1.41-10.49,1.73-1.56-1.25-2.58-2.75-2.18-4.87,1.57-3,4.68-4.28,7.33-5.92S432.53,298.83,435.12,297.22Z" transform="translate(-19.52 -28.11)"/><path class="cls-39" d="M427,343.07a13.27,13.27,0,0,1,5.55,10.48c.19,2.71,1.16,3.42,3.62,3.28,2.78-.15,5.58,0,8.37-.05-.92,1.51-2.4.78-3.6.79-8.38.06-16.76,0-25.14,0Z" transform="translate(-19.52 -28.11)"/><path class="cls-40" d="M377.09,93.48c-7.48,1.52-7.49,1.52-8.87-5.92-.42-2.26-1.66-4.46-.66-6.86,4.3-1.26,8.57-.34,12.85.12.43,2.65.65,5.33,1,8C379.16,89.65,377.49,91,377.09,93.48Z" transform="translate(-19.52 -28.11)"/><path class="cls-41" d="M377.09,93.48c-1-4.59-1-4.59,4-4.92,2.43,1.83,5.66,1.89,8.1,3.68,0,3-.2,6,0,9,.29,3.67-1.13,5.48-4.83,5.44-3.41-1.23-3.06-4.55-4-7.17C379.64,97.38,380.36,94.32,377.09,93.48Z" transform="translate(-19.52 -28.11)"/><path class="cls-42" d="M389.21,92.25c-3-.47-6.92.88-8.1-3.68-2-2.41-2-5-.71-7.74a5.11,5.11,0,0,1,1-.6c3.27-1,7.83-3,9.68-.6,2.22,2.84.48,7.57,0,11.46C391,92,389.94,92,389.21,92.25Z" transform="translate(-19.52 -28.11)"/><path class="cls-43" d="M220.36,104.69c.81.33,1.36-.18,1.95-.56,1.42,4.2-3.48,5.12-4.29,8.25-.4,1.54-2.07,2.7-1.93,4.58a9,9,0,0,1-7.16-.81,7.55,7.55,0,0,1-1.58-1.78c-1.45-1.91-1.76-4.53-3.78-6.09-.72-1.06-1.12-2.11.23-3,2.56-.16,5.26.34,7.42-1.7.46-.44,1.48-.74,1.8-.19C215,106.81,217.89,104.44,220.36,104.69Z" transform="translate(-19.52 -28.11)"/><path class="cls-44" d="M373.84,55.8c-.1,1.09.79,1.43,1.45,1.94-1.56,3.23.55,4.73,2.88,6.12-.58,3.89-2.77,5.61-6.76,5.8-4.47.22-6.15-2.2-6.86-6a7.73,7.73,0,0,0,3-3C367.73,56.53,371.61,57.25,373.84,55.8Z" transform="translate(-19.52 -28.11)"/><path class="cls-45" d="M209.13,115.34c2.07,1.63,4.88,0,7,1.62-.34,3.35,1.42,5.57,4,7.35-3.52,2.1-6.61,4.52-7.07,9.5-.26-5.25-3.63-7.61-7.25-9.78C207.44,121.35,207.42,118,209.13,115.34Z" transform="translate(-19.52 -28.11)"/><path class="cls-46" d="M463.38,356.71c3.41,1.08,6.81,2.2,10.24,3.21,1.22.36,2.55.67,2.34,2.17s-1.67,1-2.64,1q-8.78.06-17.57,0c-4.24,0-4.4-.33-3-5C456.1,356.22,460,358.06,463.38,356.71Z" transform="translate(-19.52 -28.11)"/><path class="cls-47" d="M326.5,340l-6,24.52,3.68.39c-4.86,1.49-9.81.58-14.73.57a3.14,3.14,0,0,1,.15-.69c.2-.17.41-.45.63-.46,5.72-.21,6.87-4.29,7.6-8.83.63-3.93,1.87-7.74,2.64-11.64A6.3,6.3,0,0,1,322.4,340l.85-.17C324.36,339.43,325.46,339.08,326.5,340Z" transform="translate(-19.52 -28.11)"/><path class="cls-48" d="M378.75,37.34a33.9,33.9,0,0,0-11-1c-6,.49-7.15,2.77-4.1,8-.93.84-1.66,2.06-3.22,1.73a6.7,6.7,0,0,1-4.13-5c-.94-3.9.53-6,4.6-6.8,1.94-.38,4,0,5.85-1,4.49-.2,9-.51,13.14,1.84A1.72,1.72,0,0,1,378.75,37.34Z" transform="translate(-19.52 -28.11)"/><path class="cls-49" d="M138.73,170.82l-1.28-1.47.76-.87c1.17.82,2.07.56,3.14-.4,2.88-2.59,6.09-4.91,10.13-3,3.16,1.48,4,5.75,2.77,10.6a2.48,2.48,0,0,1-3-.52C147.71,171.9,143.33,171.07,138.73,170.82Z" transform="translate(-19.52 -28.11)"/><path class="cls-50" d="M218.64,173.37a54.76,54.76,0,0,1,15.34-5.8l6.36,1.82c-4.69,2.12-9.54,3.93-13.7,7.07-2.2-1.67-4.9-.17-7.22-1.15A1.61,1.61,0,0,1,218.64,173.37Z" transform="translate(-19.52 -28.11)"/><path class="cls-51" d="M373.09,360.67c5.32-1.74,7.7-6,9.22-10.91l7.82,10.12C384.51,361.53,378.77,360.55,373.09,360.67Z" transform="translate(-19.52 -28.11)"/><path class="cls-52" d="M378.75,37.34l.83-1.67a1.19,1.19,0,0,1,1.66,0,17.64,17.64,0,0,1,8.24,4.61,6.51,6.51,0,0,1,2.28,6.1c-.5,2.62-2.77,3-4.87,3.41-.78.17-1.58.3-2.36.44-1-1.13-.13-1.77.53-2.64,2.61-3.45,1.7-6.67-2.32-8.51C381.43,38.44,380.08,37.91,378.75,37.34Z" transform="translate(-19.52 -28.11)"/><path class="cls-53" d="M463.38,356.71c.56,1.56-.33,1.78-1.57,1.74-3-.11-6.05-.21-9.08-.31l-.78-2.24c1.14-3.5,3.55-4.79,7.11-4.05C459.41,354.43,461.82,355.19,463.38,356.71Z" transform="translate(-19.52 -28.11)"/><path class="cls-54" d="M305.53,85.44c-2.16,2.07-3.87,4.82-7.39,4.81,1.61-2.61,3.39-5.15,3.91-8.27,1.07,2.15,1.61.06,2.06-.38,1-.92,1.21-2.73,3.37-2.23C306.79,81.42,305.46,83.23,305.53,85.44Z" transform="translate(-19.52 -28.11)"/><path class="cls-55" d="M368.47,31.65c.94-2,2.14-4,4.59-3.44,3.13.76,7.66.25,7.19,5.72C376.24,33.56,372.22,33.29,368.47,31.65Z" transform="translate(-19.52 -28.11)"/><path class="cls-56" d="M368.47,31.65a19.38,19.38,0,0,1,11.78,2.28l1,1.69-1.67,0c-3.06-1.37-6.42-.85-9.6-1.44-1.14-.21-2.4.1-3.27-1Z" transform="translate(-19.52 -28.11)"/><path class="cls-57" d="M438.12,308.4l10.17-6.14c.71.11,1.64-.68,2.12.25s-.12,1.69-1.06,2.14c-2.36,1.15-4.72,2.29-7,3.51-1.08.57-2.67.81-2.26,2.68Z" transform="translate(-19.52 -28.11)"/><path class="cls-58" d="M327.87,364.69c-1.07-5-.16-6.61,4-7,.5,1.08-.26,2-.31,3.07C330.63,362.3,331.26,365.37,327.87,364.69Z" transform="translate(-19.52 -28.11)"/><path class="cls-59" d="M440.77,301.25c-.17.44,0,1.55-.94.47-1.37-1.51-1.87-3.79-4.05-4.57,0-.28,0-.55,0-.83,1.29-1.34,1.7,0,2.22.78C439,298.46,439.86,299.86,440.77,301.25Z" transform="translate(-19.52 -28.11)"/><path class="cls-60" d="M116.45,203.77c2.4-2.26,3.84-5.39,6.63-7.3,1.72,3.88.48,7-3.67,9.19l-1.24,0C117.13,205.44,116.41,205,116.45,203.77Z" transform="translate(-19.52 -28.11)"/><path class="cls-3" d="M308.76,150.76l.8-4c1.77-.09,4,.51,4.49-2,.49-2.8,1-5.76-.36-8.46-.91-1.79-3.07.74-4.2-.91a3.59,3.59,0,0,1-1-2.93c-.06-15.06,10.76-29.44,27.74-27.76,6.82.68,12.2,4.4,16.65,9.5a4.1,4.1,0,0,1,1,3c-4.68,16.58-1.36,32.71,2.65,48.82,2.47,9.93,4.72,19.91,7.07,29.87,1.43,1.64,3.05,3.13,4,5.14,1.07,5.16,2.6,10.22,3,15.5a30.64,30.64,0,0,1-.67,5,6.09,6.09,0,0,1-2.84,3.22,11.1,11.1,0,0,1-3.25,1.83c-3.68.53-7.21.29-10.31-2-1.8-1.34-5,.24-6-2.83a7.17,7.17,0,0,1-.45-2.38c0-.81,0-1.62-.05-2.42,0-1.21,0-2.42,0-3.63,0-.41,0-.82,0-1.24s0-.84,0-1.26,0-.86-.07-1.29c0-3.1,0-6.2,0-9.31,0-.46,0-.92,0-1.39a8,8,0,0,1,.84-4.81c.6-1.08,2.09-1,2.9-2.4-14.26,0-28.3,0-42.34,0-2.08,0-4.33.46-6.08-1.29.52-8.26,3.26-16.12,4.36-24.25C307.39,160.87,309.88,156,308.76,150.76Z" transform="translate(-19.52 -28.11)"/><path class="cls-61" d="M380.26,159.73c1.14-.52,1.88-1.79,3.29-1.8.83,3.3,3.94,4.7,5.9,7.05.72.86,2.15,1.12,2.17,2.57-2.28,2.37-4.79,2.85-7.59.92-2.15-.31-2.68-2.43-4-3.62C379,163.1,377.23,161.28,380.26,159.73Z" transform="translate(-19.52 -28.11)"/><path class="cls-62" d="M374.75,179.8c.63.81.31,1.68.14,2.54-.11,1.06-.1,2.39-1.42,2.52-.92.09-1.5-.94-2-1.78-1.84-3.32-.43-9.91,2.58-12.11,1.45.92,3.35-.69,4.69.84,1.18.89,1.93,1.76.42,3.1a37.52,37.52,0,0,0-2.89,3.2C374,177,375.27,179.24,374.75,179.8Z" transform="translate(-19.52 -28.11)"/><path class="cls-63" d="M366.68,200.45c-1.61-1.15-3.61-2.05-3.11-4.63,3.61-1.74,7.46,0,11.14-.75.12,2,.85,4-.75,5.72C371.46,202.32,369,202.52,366.68,200.45Z" transform="translate(-19.52 -28.11)"/><path class="cls-64" d="M378.78,171.82c-1.44-.95-3.75,2.92-4.69-.84l2.28-2.7c1.15-1.53,1.87-3.52,4.14-3.83a8.59,8.59,0,0,1,3.51,4A6.12,6.12,0,0,1,378.78,171.82Z" transform="translate(-19.52 -28.11)"/><path class="cls-65" d="M380.51,164.44c-1.35,1.31-2.4,2.95-4.14,3.83q0-4.73-.06-9.46l3.94.92C378.49,161.41,379.91,162.9,380.51,164.44Z" transform="translate(-19.52 -28.11)"/><path class="cls-66" d="M137.11,352.73c-1-1.13-1.63-2.85-3.62-2.24s-2.52,2.37-2.65,4.26c-2.52,0-1.81-2.15-2-3.43a126.5,126.5,0,0,1-1.16-17.91c0-8.9,0-17.8,0-24.43.15,8.84-.24,19.95.17,31.06.48,3.16.17,6.35.3,9.52.06,1.43-.07,3-1.5,3.89-3.38-4.22-6-2-8.51,1-2.47-11.72-5.54-23.34-5.17-35.48a19.54,19.54,0,0,1,.14-14.58c.36-5.13-.5-10.18-1-15.25-1.33-2.66-2.58-5.32-.46-8.17,9.65,0,19.33.79,28.95-.72,3,1.42,2.37,4.59,3.4,7a69.54,69.54,0,0,1,.11,9.88c-.38,6-1,12.07-1.66,18.08-.08,1.55-.6,3-.76,4.56a17.78,17.78,0,0,1-.34,3.8,12.19,12.19,0,0,0-.53,4.23,13.16,13.16,0,0,1-.31,3.07,7.63,7.63,0,0,0-.41,3,31.46,31.46,0,0,1-.32,5.65c-.78,2-.45,4.1-.75,6.15a7.58,7.58,0,0,1-.26,1.23C137.92,348.76,139.27,351.26,137.11,352.73Z" transform="translate(-19.52 -28.11)"/><path class="cls-1" d="M111.7,281l.46,8.17c-13.42-.87-25.66-5-36.2-13.47-1.85-1.49-3.91-3.81-3.25-6.32.6-2.3,3.12-3.19,5.55-4,1.73-.56,5.11,1.27,5.14-2.68,5.3,2.36,11,3.72,16.16,6.39,3.4,2.17,7.57,3.12,10.32,6.35C110.31,277.37,109.24,279.76,111.7,281Z" transform="translate(-19.52 -28.11)"/><path class="cls-67" d="M113.12,304.42c.59,4.87.18,9.72-.14,14.58-2.94-.55-6-.41-8.79-1.84a5.7,5.7,0,0,0-.6.81c-2.16-.35-3.42.74-4.19,2.61-.26-3.93-2.25-5.89-6.08-7.4a26.48,26.48,0,0,1-10.71-7.6c-4.09-5-1.74-8.24,2.49-9.38,7-1.9,12.84,1.16,18.83,3.73C107.05,301.27,110.06,302.91,113.12,304.42Z" transform="translate(-19.52 -28.11)"/><path class="cls-68" d="M77.68,249.92l-.9.72a7.51,7.51,0,0,1-3-4.95C75.28,246.9,77,248,77.68,249.92Z" transform="translate(-19.52 -28.11)"/><path class="cls-69" d="M209,311.5c-.47.46-1.17.84-1.35,1.4-.54,1.66-.88,3.83-3.14,3.26-1.77-.44-2.09-2.44-2-4.22-.64-5.51-1.28-11,1.07-16.33-.49-5.41-7.94-10.62-14.79-9.42a18.92,18.92,0,0,1,8.37,13.58c.28,4.11.34,8.18-1.44,12a3.05,3.05,0,0,0-.87,2.53,2.44,2.44,0,0,1-2.75,2.68c-4.74-.18-9.53.62-14.22-.6a11,11,0,0,1-4.1-4.28c-5.52-10.07-5.53-20.33-.55-30.57a11.35,11.35,0,0,1,5.92-5.18,6.63,6.63,0,0,1,1.4-.37c3.95-.51,7.92.15,11.87-.22,15.38-.08,30.75-.12,46.12.09,9.14-.08,18.28-.4,27.41.21a3.66,3.66,0,0,1,1.31.45c1.52,1.58-.18,2.36-.91,3.28C259,289,259,304,266.39,313c.88,1.07,2.4,2,1.14,3.76a4.4,4.4,0,0,1-3.06.74c-14.3-.92-28.61-.18-42.91-.43-1.86,0-3.77.09-5.37-1.19-.26-1.16.49-2.54-.74-3.5-1.05-4,.89-7.25,2.63-10.56a3.54,3.54,0,0,0,1.75-4.36c-.94-4-2.54-7.43-6.21-9.87,2.24,5,1,9.89-.36,14.73C212.28,305.61,211.81,309.09,209,311.5Z" transform="translate(-19.52 -28.11)"/><path class="cls-70" d="M216.2,315.92q24.85.19,49.7.36a6.86,6.86,0,0,0,1.85-.53c2.37-2.19,5.29-.81,7.93-1.25,4.81.32,9.8-1.19,14.41,1.37,1.74,3.66,1.45,4.64-2.14,7.31-4.67.69-1.36,4-2,6-.4.93-.24,2.34-1.86,2.28-.67-1.84,1.2-4.93-1.61-5.47-2.43-.47-3.49,2.39-4.8,4.18-1.89,2.57-2.45,5.87-4.65,8.26a12.54,12.54,0,0,0-3.2,1.63c-2.45,2.34-5.08,3.51-8.42,2.14-3-1.72-6.62-1.14-9.79-2.3-9.1-1.09-17.29,2.09-25.47,5.38-3.21,1.29-6.44,2.5-10,2.57-.34-.42-.78-.88-.72-1.38.8-7-.48-14-.37-21Z" transform="translate(-19.52 -28.11)"/><path class="cls-71" d="M138.8,339.82l.45-6.57c.81-1.57,2.29-1.73,3.8-1.73,15.16,0,30.31-.16,45.47.06a5.27,5.27,0,0,1,1.18.25,3.12,3.12,0,0,1,1.62,1.63l-.13,6.42c-.92,2-2.72,1.94-4.47,1.95q-21.85.07-43.7,0C141.4,341.79,139.33,342.3,138.8,339.82Z" transform="translate(-19.52 -28.11)"/><path class="cls-72" d="M140.41,323.75l.43-3.93c1.43-1.59,3.38-1.41,5.21-1.42q21.18-.08,42.36,0c1.87,0,3.76,0,5.24,1.46l-.9,7.12c-1.26,1.32-2.91,1.19-4.51,1.2-14.45,0-28.9.05-43.34,0C140.5,328.13,140.19,327.73,140.41,323.75Z" transform="translate(-19.52 -28.11)"/><path class="cls-73" d="M190.39,344.74c0,2.43.24,4.88-.77,7.2-1.28,1.26-2.92,1.17-4.52,1.17q-21.44,0-42.88,0a6.25,6.25,0,0,1-3.86-.76c-1.05-2-.64-4-.31-6.08l.19.07c.46-2.06,1.87-2.74,3.83-2.75q22.5-.1,45,0A4.36,4.36,0,0,1,190.39,344.74Z" transform="translate(-19.52 -28.11)"/><path class="cls-74" d="M193.66,319.84l-52.81,0c-.36-1.44.18-2.75.6-4.07,1.88-1.69,4.21-1.13,6.4-1.26,4.06-.24,8.13.43,12.18-.1,3.57-.16,7.13.43,10.71.05,2.53-.12,5-.09,7.28,1.35a104.36,104.36,0,0,1,10.81.26c3.73.45,6-.45,6.48-4.45a1.74,1.74,0,0,1,2.41.17C194.61,313.57,194.66,317,193.66,319.84Z" transform="translate(-19.52 -28.11)"/><path class="cls-75" d="M191.3,333.46l-.83-.79c-1.36-.83-2.87-.41-4.3-.42-14.26,0-28.52,0-42.78-.07-1.25,0-3,1-3.76-1.08l.34-3.25a3.26,3.26,0,0,1,2.3-.42c15.62,0,31.24,0,46.86-.05,3,0,4,.88,3,3.72Z" transform="translate(-19.52 -28.11)"/><path class="cls-76" d="M189.64,356.79l-51.44-.08,0,.06a3.47,3.47,0,0,1,.09-3.64,3.92,3.92,0,0,1,3-.77h46.42a3,3,0,0,1,1.91.41Z" transform="translate(-19.52 -28.11)"/><path class="cls-77" d="M190.39,344.74q-23.78,0-47.57,0c-1.74,0-3.51-.19-4.59,1.62-.13-2.2-.39-4.41.56-6.52.91,1.07,2.16.88,3.34.88q22.6,0,45.19,0a6.48,6.48,0,0,0,3.83-.84c-.06,1.38.31,2.83-.67,4.06-1.37-1.22-3-.82-4.61-.82q-20.08,0-40.15,0,20.07,0,40.15,0c1.57,0,3.24-.38,4.62.82Z" transform="translate(-19.52 -28.11)"/><path class="cls-78" d="M197.71,311.75l-2.41-.17.83-12.77c.39-.53.88-1,1.21-1.55,2.58-4.27,2.57-4.27,7.67-2.35-1.78,2.67-1.89,5.66-1.75,8.72a23.74,23.74,0,0,1-.75,8.3Z" transform="translate(-19.52 -28.11)"/><path class="cls-79" d="M212.28,348.73c-2.1,1.32-4.63,1.17-6.87,2-.6.23-1.34.57-1.85-.07a1.74,1.74,0,0,1,.06-2.24c4.24-4.79,6-11,9.23-16.31C216.24,337.8,214.71,343.28,212.28,348.73Z" transform="translate(-19.52 -28.11)"/><path class="cls-80" d="M212.28,348.73c.66-5.51,1.79-11,.57-16.58.82-2.18.72-4.68,2.27-6.62,2.5,7.35,2.34,14.83,1.09,22.37Z" transform="translate(-19.52 -28.11)"/><path class="cls-81" d="M218.71,302.22c-1.6,3.24-2.18,6.8-3.25,10.2L209,311.5l3.21-9.42C214.41,301.62,216.59,300.82,218.71,302.22Z" transform="translate(-19.52 -28.11)"/><path class="cls-82" d="M192.13,331.09c.35-3.1-1.47-3.33-4-3.31-16.07.09-32.13.06-48.2.06a6.48,6.48,0,0,1,.43-4.1c-.21,2.69,1.17,3.3,3.66,3.29,16.23-.1,32.46-.07,48.68-.07C192.79,328.37,193.21,329.85,192.13,331.09Z" transform="translate(-19.52 -28.11)"/><path class="cls-83" d="M189.6,352.78l-47.13,0c-1.46,0-2.95-.15-4.2.86a1,1,0,0,1,0-1.73l51.32,0Z" transform="translate(-19.52 -28.11)"/><path class="cls-84" d="M251.65,339.95c3.7-1.08,7-.63,9.79,2.3-2.92.21-5.32,2.41-8.75,1.26C249.68,342.5,250.19,341.67,251.65,339.95Z" transform="translate(-19.52 -28.11)"/><path class="cls-85" d="M256,358.45c-3.47,1.08-6.19-.39-8.67-2.72C250.54,355.29,253.3,356.66,256,358.45Z" transform="translate(-19.52 -28.11)"/><path class="cls-6" d="M420.39,307.82c-.4,1.92,1.46,2.86,1.91,4.42-.38,1.81-1.89,2.46-3.29,3.21-3.87,2.07-7.92,3.79-11.78,5.9-5.21,1.56-5.5,1.4-8-3.37-1.17-2.24-2-4.66-3.29-6.81-2.82-4.71-4.32-10.3-9.12-13.69-1.56-1.68-2.22-3.56-1.32-5.79,2.61-2.52,2.45-6.07,3.42-9.21,2.94-3.24-.06-6-.73-8.95-.09-2.29-1.19-4.5-.58-6.85s.35-5,.49-7.55c0-.43,0-.85,0-1.28,0-.86,0-1.73,0-2.59,0-.44,0-.88,0-1.32-.07-2.88-.1-5.77,0-8.65q0-1,0-2c-.07-1.34-.06-2.67,0-4,0-.68,0-1.36,0-2,0-2.51-.45-5,.68-7.45,2.19-1.18,4.15-3,6.92-2.61,8,3.37,8,7.4,6.78,16.1-.66,4.62-.22,5.86,4,7,6.75,1.79,10.31,5.61,10.88,12.47.28,3.38.62,6.86-.92,10.24-1.33,2.92.06,5.39,2.43,7.31a2.66,2.66,0,0,1,1,2.47c.14-1.91,1.25-3.67.82-5.67l8.88-7.22c-2.07,6.35-4.14,12.7-6.19,19.06-.53,1.65-1.25,3.26-1.1,5.06-2.49,2.43-2.57,5.39-1.44,8.35.78,2,1.22,3.71-1,5.1-.43.28-.55.64-.18.26C419.73,307.62,420.13,307.8,420.39,307.82Z" transform="translate(-19.52 -28.11)"/><path class="cls-6" d="M374.12,214.35c2.59-.28,4.75-2,7.62-1.65,5.89.81,9.38,4.26,9.94,10.5.85,1.73.22,3.11-1.53,3.29-5.39.53-10.83,1.4-16.13-.63-1.23-1.41-.77-3.2-1.07-4.83C373.08,218.76,372,216.27,374.12,214.35Z" transform="translate(-19.52 -28.11)"/><path class="cls-86" d="M374.12,214.35l-.22,7.09c-2.57-.46-1.72-3.9-4-4.61l-3.22-16.37,7.28.34Z" transform="translate(-19.52 -28.11)"/><path class="cls-87" d="M373.92,224.77c5.46,1.76,11.06.58,16.59.66,1.18,0,1.07-1.32,1.17-2.24l4,4c-1.88,1.77-4,3-6.68,2.57-6,2.22-12.07,1.16-18.15.66C369.35,227.87,370.08,226.53,373.92,224.77Z" transform="translate(-19.52 -28.11)"/><path class="cls-88" d="M420.63,277.1c2.14,2.79-.58,5.38-.2,8.13a5.2,5.2,0,0,1-1.62-4.92Z" transform="translate(-19.52 -28.11)"/><path class="cls-89" d="M374.75,179.8c-1-.73-1.85-2.07-1.09-2.85,1.08-1.11,2,.13,2.64,1.17Z" transform="translate(-19.52 -28.11)"/><path class="cls-90" d="M285.23,329.59c-.35-1.49-.71-3-1.05-4.48-.54-2.36.15-3.31,2.59-2.23.91.33,1.22,1.13,1.51,1.93a24.58,24.58,0,0,1,2.12,6.44c.87,5.32,4.17,6.72,9.24,3.95,1-2,.55-4.12.64-6.18a7.25,7.25,0,0,1,1.3-4.42c1.7-.19,2.41.59,2.41,2.28,0,2.26.12,4.51.18,6.77,2,4.72,1,9.1-1.53,13.31a55.93,55.93,0,0,1-16.46,12.85c-2-.2-4-.43-6-.61-4.82-.42-4.95-.54-3.4-4.94,2.07-5.89,4.22-11.76,6.34-17.64C285.13,334.65,284.55,331.94,285.23,329.59Z" transform="translate(-19.52 -28.11)"/><path class="cls-91" d="M287.35,325.29l-.59-2.41c2.89-1.21,3.92-3.4,3.34-6.41-1.82-2.29-2.46-5.25-4.33-7.56a3.72,3.72,0,0,1,0-4.16c1-.76,2.23-1.14,3-2.41,1.91-3.18,4.31-6,8.62-5.09,4.51.92,6,4.38,6.72,8.44.09.53.17,1.05.27,1.58a5,5,0,0,1-.36,2.31c-.34.89-.75,1.75-1.07,2.64a4.89,4.89,0,0,1-3,3.75c-2.67,2.2-3.1,4.46-.37,7,.47.44.37,1.48.54,2.24a73.35,73.35,0,0,0-4,9.76,1.74,1.74,0,0,1-2.6-1.51C293.16,329.38,290.12,327.47,287.35,325.29Z" transform="translate(-19.52 -28.11)"/><path class="cls-31" d="M322.4,340c-1.31,6-2.56,11.95-3.93,17.9-1.61,7-1.65,7-8.82,6.89.67-3.23-1.77-4.26-3.89-5.53a2.6,2.6,0,0,1-.54-2.24c1.09-6,2.47-11.91,4-17.8.47-1.81,1.63-2.7,3.58-1.82C315.77,339.09,319.32,338.67,322.4,340Z" transform="translate(-19.52 -28.11)"/><path class="cls-92" d="M300,316c1.3-1.11,1.35-2.88,2.22-4.22a11.39,11.39,0,0,1,3.14-.59c18.16.09,36.33-.22,54.49.16,2.48.14,5.3-.81,7,2.05.13,1.89-.79,2.6-2.63,2.6-1.59,0-3.17.29-4.76.45-3.58-.75-7.21-.43-10.82-.44Q324.27,315.93,300,316Z" transform="translate(-19.52 -28.11)"/><path class="cls-93" d="M301.34,347.22c2.72-4.16,2.93-8.84,2.83-13.59l1-3,1.93,7.59a2.26,2.26,0,0,1,.89,2.1c-.91,6.37-1.53,12.81-3.91,18.88a1.14,1.14,0,0,1-1.58-.76C301.36,354.79,299.92,351.15,301.34,347.22Z" transform="translate(-19.52 -28.11)"/><path class="cls-94" d="M304,359.25l3.14-21c1.48-3.19,3.66-1.52,5.69-.81-2-.32-2.31,1-2.65,2.52-1.39,6.46-2.91,12.89-4.38,19.34l-.93.08A.64.64,0,0,1,304,359.25Z" transform="translate(-19.52 -28.11)"/><path class="cls-95" d="M295.78,334.74c.22-3.74.57-7.41,4.35-9.52l1.45-.62c-.17,4,.46,8.12-.93,12.05C298.76,336.67,296,339,295.78,334.74Z" transform="translate(-19.52 -28.11)"/><path class="cls-96" d="M326.5,340l-3.25-.18c2.88-1.19,5.75-2.42,8.66-3.56,1.34-.52,2.86-1.2,3.39,1.05Z" transform="translate(-19.52 -28.11)"/><path class="cls-97" d="M235.5,192.67c4.6.1,8.91-1.37,13.28-2.45a14.83,14.83,0,0,1,10.2-.81c3.53,1.6,7.26.55,10.9.76s7.11.1,10.66.14c1,1.62-.38,2.47-1.2,3.38-2.93,3.26-4,7.06-4.07,11.39-.14,6.65,0,13.13,4.93,18.38a1.82,1.82,0,0,1,.37,2.22c-4.19,2.34-8.71.92-13.09,1.18-10.63.18-21.25.24-31.88.09-12,.08-24.06.06-36.1,0-2.4,0-4.83.13-7.14-.74a11.5,11.5,0,0,1-7.79-8.87c-1.44-6.57-1.76-13.18.42-19.68.85-2.53,2-4.94,4.57-6.3,7.69,2.51,15.32,1.59,22.92-.49a10.11,10.11,0,0,1,5.46.49A38.8,38.8,0,0,0,235.5,192.67Z" transform="translate(-19.52 -28.11)"/><path class="cls-98" d="M280.56,224.83a12.93,12.93,0,0,1-5.63-8.37c-1.71-9.47-2.17-18.71,5.61-26.17l21.8-.12,46.9,0c1.07,0,2.14,0,3.2.06s1.91.51,1.82,1.68c-.07.9-.86,1.31-1.71,1.39-1.45.14-3-.1-4.23.9a16.47,16.47,0,0,1-5.56.52q-27.28,0-54.56,0c-2.65,0-5.42-.31-7.47,2a5.44,5.44,0,0,0-1.78,3.33,33.55,33.55,0,0,0-1.21,9.43,8.19,8.19,0,0,0,.79,4.54c2.62,7,2.62,7.09,10,7.11,18.46,0,36.92.08,55.38,0a16.2,16.2,0,0,1,4.36.46c1.21,2.7,4.13-.45,5.53,1.62.8,2.72-1.21,3.18-3,3.53a37.92,37.92,0,0,1-7.17.24c-9.71,0-19.42-.15-29.12.39-7.54-.9-15.11-.15-22.66-.39-2.26-.07-4.52.06-6.77-.1C283.34,226.75,281.64,226.47,280.56,224.83Z" transform="translate(-19.52 -28.11)"/><path class="cls-97" d="M138.35,210.27c.08-2.25-.79-3.74-3.21-4-4.8-4-5.35-10.68-1.31-16,3.44-2.16,7.28-1.4,10.95-1.25a58,58,0,0,0,10.38,0c2.11-.29,4.3-.18,6.08,1.37,1.06,1.39-.19,2.19-.83,3.1-6,8.44-5.9,20.87.16,29,.86,1.14,2.22,2.24.48,3.73a34.67,34.67,0,0,1-14.24.17c-2.07-1.08-2.33-3.08-2.53-5.08-.33-3.18-.8-6.32-2.44-9.14-.63-.92-.87-2.4-2.57-1.76A.8.8,0,0,1,138.35,210.27Z" transform="translate(-19.52 -28.11)"/><path class="cls-99" d="M134.12,190.84c-3.2,5.38-1.82,10.46,1,15.45-5.35,2.54-10.59,2.08-15.73-.62,2.45-2.57,4.19-5.43,3.67-9.19.08-3.27-.64-6.2-3.61-8.09-1.72-1.09-2-2.63-.74-4s1-2.89,1.07-4.42c1.31.94.17,2.59,1.21,3.86.46-2.26,0-4.52,1.85-6.33a6.87,6.87,0,0,1,5.87-1.8c3.34.28,5.57,1.68,5.53,5.47,0,1.06-.7,2.86,1.61,2.64,2.84,1.5,3.23,3.9.74,5.31C135.71,189.65,134.68,189.86,134.12,190.84Z" transform="translate(-19.52 -28.11)"/><path class="cls-100" d="M143.44,286.52c-2.07-1.57-1.52-4.32-2.79-6.25L140,261.09c1.29-1.35,2.78-1.23,4.34-.6,1.71,1,.88,3.79,3.17,4.34,3.78,2.46,2.75,6.45,3.17,10a57.19,57.19,0,0,1-.06,6.75C150.2,286.33,148.24,287.66,143.44,286.52Z" transform="translate(-19.52 -28.11)"/><path class="cls-26" d="M138.77,210.28c.19-.69-.13-2,.75-1.91,1.56.07,2.42,1.31,2.79,2.81,1.82,5,1.22,10.28,1.55,15.42.51,7.94,1.66,15.88,1.11,23.88-1.44,3.78-2.06,4-5.74,2.46l-.43-13.62C137.14,229.65,138.15,220,138.77,210.28Z" transform="translate(-19.52 -28.11)"/><path class="cls-101" d="M117.79,242.47c-4.35-1.47-4.74-4.22-1.21-8.65,5.93-1.71,10.89-5.51,16.57-7.77a7.28,7.28,0,0,1,2.61,1.4c1.14,1,1.93,2.18.87,3.74l-1,3.91a2.35,2.35,0,0,1-1.29,1.24,38.14,38.14,0,0,0-13.19,5.21A5.58,5.58,0,0,1,117.79,242.47Z" transform="translate(-19.52 -28.11)"/><path class="cls-102" d="M117.79,242.47c5.06-3.35,10.21-6.5,16.46-7.06a11,11,0,0,1,.8,9.53c-.5,1.84-2.1,1.46-3.31,1.44-3.6-.07-7.2-.54-10.79-.48C118.3,245.95,117.78,244.59,117.79,242.47Z" transform="translate(-19.52 -28.11)"/><path class="cls-103" d="M133.31,226.35c-3.78,2.45-7.48,5.06-11.74,6.68-1.6.61-3.22,1.25-5,.79.27-3.27-2-6.49-.23-9.8,5.2-1.68,10.54-.65,15.8-.67C133.71,223.35,134.23,224.83,133.31,226.35Z" transform="translate(-19.52 -28.11)"/><path class="cls-104" d="M99.53,269.89a49.44,49.44,0,0,1,9.6-7.43c1.58,4.26.65,8.67.75,13C106.31,273.83,102.67,272.32,99.53,269.89Z" transform="translate(-19.52 -28.11)"/><path class="cls-105" d="M139.23,252.94c1.9-.14,4.34.88,4.85-2.26,4.32.85,5,2,4.61,7.61a3.79,3.79,0,0,1-1.85,2.44,4,4,0,0,1-2.36.36H140C138.69,258.47,137.91,255.8,139.23,252.94Z" transform="translate(-19.52 -28.11)"/><path class="cls-106" d="M136.63,231.18c0-1.32-.23-2.52-1.51-3.24-1.26-2-.94-5-4-5.73.76-1.48,2.16-1.53,3.45-1.27,3,.6,4-.51,3.69-3.52a58,58,0,0,1,.11-7.15h.42q0,14.52,0,29c-.94-1.76-.37-3.67-.55-5.51C138.13,232.66,138.45,231.27,136.63,231.18Z" transform="translate(-19.52 -28.11)"/><path class="cls-107" d="M131.1,222.21c4.88-.57,3.82,3,4,5.73-1.2.15-1.26-1-1.8-1.59.45-2-.53-2.44-2.35-2.4-4.87.11-9.74.06-14.6.07.89-1.78,2.55-1.56,4.11-1.59Z" transform="translate(-19.52 -28.11)"/><path class="cls-108" d="M135.05,244.94l-.8-9.53,1.41-.32C136.5,238.44,138,241.83,135.05,244.94Z" transform="translate(-19.52 -28.11)"/><path class="cls-7" d="M302.52,95.28c-.46,10.49-.78,21-4.18,31.1-1.09,3.23-3.08,6.12-3.5,9.58-2.89.23-5.78.67-8.6-.45-.49-14.17,1.9-27.72,8.81-40.27,1-.74,2.11-.43,3.19-.14Z" transform="translate(-19.52 -28.11)"/><path class="cls-109" d="M298.25,95.1l-3.19.14a3.15,3.15,0,0,0-.75-.27c-1.3-.12-1.65,2.92-3,1.33-1.08-1.3-1.38-3.41-1.58-5.21a1.09,1.09,0,0,1,2-.74c1.27,1.44,2.7.58,4.07.67C294.27,93.79,296.72,94.17,298.25,95.1Z" transform="translate(-19.52 -28.11)"/><path class="cls-110" d="M288.35,94.1c.18,1.61-1,1.9-1.91,2.05-1.22.21-1.45-1.18-1.58-1.86-.24-1.31,1-1.59,2-1.83C288.51,92.09,287.58,93.86,288.35,94.1Z" transform="translate(-19.52 -28.11)"/><path class="cls-111" d="M276.48,118.57c-.67.18-1.59,1.11-2,.09-.63-1.65.77-2.51,1.91-3.36Q276.44,116.94,276.48,118.57Z" transform="translate(-19.52 -28.11)"/><path class="cls-112" d="M407,320.54l15.33-8.3a29.36,29.36,0,0,1,10.41-1.12,2.13,2.13,0,0,1-1.47,2.51c-7.84,3.32-13.51,9.4-19.39,15.22a10.63,10.63,0,0,1-1.76,1.63c-2.94,1.8-5,4.14-5.45,7.7-.09-1.82.08-3.68-2.84-2.22-3.77,1.89-6.56-.79-8.83-3A37,37,0,0,1,385,321c-.81-1.87-.43-3,1.38-3.88,2-1,4-2,6-3.07,3.09.27,3.69,3,5,5,1,1.51,1.07,3.68,3.34,4.11A18.5,18.5,0,0,0,407,320.54Z" transform="translate(-19.52 -28.11)"/><path class="cls-113" d="M420.39,307.82l-1,1.51c3.2-4.56-2.11-9.25.28-13.93.74-1.45.9-2.39,2.59-1.4l1.61,1.69a14.68,14.68,0,0,1,1.45,1.3c2.32,2.69,4.67,4.14,7.62.72.4-.46,1.47-.34,2.23-.49C430.9,301.71,425.3,304.29,420.39,307.82Z" transform="translate(-19.52 -28.11)"/><path class="cls-114" d="M266.34,120.64c.67,2.3,0,3.26-1.29,4.29C264.11,123.12,265,122.2,266.34,120.64Z" transform="translate(-19.52 -28.11)"/><path class="cls-115" d="M270.52,114.17c-.83-1.51-.43-2.5.71-3.2a1,1,0,0,1,1,.26C272.62,112.57,272,113.42,270.52,114.17Z" transform="translate(-19.52 -28.11)"/><path class="cls-116" d="M273.27,102.44c-.27,2.06-1,2.87-2.8,3C270.48,103.64,271.44,103,273.27,102.44Z" transform="translate(-19.52 -28.11)"/><path class="cls-6" d="M366.8,313.36c-2.06-1.24-4.38-.44-6.55-.87a4.25,4.25,0,0,1-1.07-3c0-.42,0-.85,0-1.27,0-1.89,0-3.78,0-5.67,0-.43,0-.85,0-1.28,0-.65,0-1.3,0-1.94,0-.44,0-.88-.07-1.33,0-3.39-.1-6.78,0-10.17q0-1,0-2c-.08-1.81-.2-3.62.68-5.3,1.81-2,5.52-.58,6.77-3.67a3.29,3.29,0,0,1,3.12-.25,4.13,4.13,0,0,1,1.8,2.52c.15,2.67,1.22,4.75,3.8,5.87a4.5,4.5,0,0,1,1.26,2.26c.06,2.52.78,4.95,1,7.44a5.35,5.35,0,0,1-1.2,4.06c-3.86,2.52-4.31,6.51-4.56,10.58-.1,1.6-.11,3.21-.16,4.81C369.81,314.87,367.87,316.75,366.8,313.36Z" transform="translate(-19.52 -28.11)"/><path class="cls-117" d="M400.55,323.79c-.42,1.88-1,1-1.61.1-2.34-3.15-3.12-7.33-6.49-9.8A25.75,25.75,0,0,0,386,302.19a3.33,3.33,0,0,0,.58-3.26c-.33-.82-.4-1.88,1.06-1.88,5.11,3.22,6.59,8.81,9,13.81.53,3.32,2.15,6.23,3.43,9.27C400.53,321.28,401.61,322.41,400.55,323.79Z" transform="translate(-19.52 -28.11)"/><path class="cls-118" d="M387.63,297.05a1.27,1.27,0,0,0-.06,2c2.44,2.54.61,2.91-1.58,3.1-2.81-2.35-5.38-5.36-9.71-3.45l-.56-11.9a23.89,23.89,0,0,0,10.36,4.81A5.56,5.56,0,0,0,387.63,297.05Z" transform="translate(-19.52 -28.11)"/><path class="cls-119" d="M235.5,192.67c-6.32.72-12.63,1.3-18.92-.43-1.49-.41-3.17-.09-4.77-.11-1.19-2.43,1.48-4.51.6-6.91a6.54,6.54,0,0,1,1.6-2.33c2.22-2,3.89-5.16,7.77-3.91.55,3.64,1.29,7.27,1.58,10.93.2,2.44,1.43,2.73,3.39,2.69C229.66,192.53,232.58,192.64,235.5,192.67Z" transform="translate(-19.52 -28.11)"/><path class="cls-120" d="M221.78,179c-3,.53-5.25,2.38-7.21,4.61a4.42,4.42,0,0,1-3.29,1c-2.79-.15-4.19-2.59-2.8-5a5.55,5.55,0,0,0,1.15-2.87c1.62-2.07,4.13-.83,6.08-1.67a4.89,4.89,0,0,1,3.52,0,36.09,36.09,0,0,1,4.64-.36c1.15,0,2.84-.31,2.78,1.8A12.76,12.76,0,0,0,221.78,179Z" transform="translate(-19.52 -28.11)"/><path class="cls-1" d="M91.41,212.1A15.93,15.93,0,0,1,85,210.33c.09-1.17.39-2.45-.7-3.27-.64-.48-1.55-.72-1-1.71a2.69,2.69,0,0,1,2.27-1.41c1,0,2.49.49,2.24,1.11C86.25,208.93,89.63,210.07,91.41,212.1Z" transform="translate(-19.52 -28.11)"/><path class="cls-8" d="M172.23,164.53a9.36,9.36,0,0,0-1.09-4.14c0-.4,0-.8,0-1.2,0-6.9,0-6.89,6.7-7.7a4.54,4.54,0,0,0,1.37-.7l.48-.5c1.73-.94,3.61-.66,5.46-.69a69.81,69.81,0,0,1,7-.06c3.15.11,6.31-.36,9.46.19a4.28,4.28,0,0,1,3.31,2.87c1.14,5.89,2.12,11.82,3,17.75.56,3.67-.3,4.82-3.9,4.83-9.76,0-19.53.38-29.29-.19-2.87-1.4-2.7-3.82-2.13-6.38C172.67,167.23,173.07,165.82,172.23,164.53Z" transform="translate(-19.52 -28.11)"/><path class="cls-13" d="M177.56,137.07l1.7,2.54a11.52,11.52,0,0,1,0,11.17h0c-1.59.07-2.51-.49-2.44-2.27C176.93,144.69,176.34,140.82,177.56,137.07Z" transform="translate(-19.52 -28.11)"/><path class="cls-121" d="M304,359.25l.87.1c-6.19,1.29-12.38,2.1-18.64.44,4.73-4.58,10.59-7.79,15.16-12.57C302.44,351.18,302.2,355.43,304,359.25Z" transform="translate(-19.52 -28.11)"/><path class="cls-122" d="M285.23,329.59c.1,1.67.17,3.34.32,5,.16,1.85-.93,2.15-2.4,2l1-5.11Z" transform="translate(-19.52 -28.11)"/><path class="cls-123" d="M316,78.35c1.79,1.94,4.39.49,6.39,1.54.6,2.52,1.77,5,1.43,8.38-3.32-2.43-6.25-4.4-9-6.62C312.46,79.77,314.64,79.14,316,78.35Z" transform="translate(-19.52 -28.11)"/><path class="cls-124" d="M316.78,90.38c-.11,1.26-.72,1.67-1.63,1.64a1.28,1.28,0,0,1-1.37-1.55c.09-.88.58-1.53,1.54-1.46S316.53,89.88,316.78,90.38Z" transform="translate(-19.52 -28.11)"/><path class="cls-125" d="M321.08,90.35a1.67,1.67,0,0,1,1.69-1.48c1,0,1.33.75,1.3,1.62s-.54,1.51-1.53,1.39A1.46,1.46,0,0,1,321.08,90.35Z" transform="translate(-19.52 -28.11)"/><path class="cls-126" d="M320.81,97.61c-.18.9-.68,1.46-1.59,1.4a1.34,1.34,0,0,1-1.38-1.53,1.43,1.43,0,0,1,1.6-1.34C320.4,96.14,320.82,96.71,320.81,97.61Z" transform="translate(-19.52 -28.11)"/><path class="cls-127" d="M308.79,88.9c-.07.86-.52,1.35-1.24,1.38-1.22,0-1.59-.88-1.55-1.84a1.13,1.13,0,0,1,1.37-1.08A1.62,1.62,0,0,1,308.79,88.9Z" transform="translate(-19.52 -28.11)"/><path class="cls-128" d="M311.1,96.86a1.08,1.08,0,0,1-1,1c-.94.07-1.37-.59-1.42-1.46s.51-1.17,1.22-1.15S311.14,95.61,311.1,96.86Z" transform="translate(-19.52 -28.11)"/><path class="cls-129" d="M312.34,82.34c.84.21,1.39.71,1.26,1.62a1.25,1.25,0,0,1-1.32,1.14,1.38,1.38,0,0,1-1.22-1.65C311.11,82.68,311.63,82.38,312.34,82.34Z" transform="translate(-19.52 -28.11)"/><path class="cls-13" d="M200.11,129.26c-5.33,2.11-10.1,5.65-16,6.25a3,3,0,0,1-1.73-1.77c-.27-1.82,1.12-2.61,2.28-3.42,7-4.85,13.49-10.32,20-15.72,1-.82,2-1.9,3.5-.88l.95,1.62c-.29,3.22.54,6.88-3.38,8.69C203,124.82,201.35,126.83,200.11,129.26Z" transform="translate(-19.52 -28.11)"/><path class="cls-130" d="M192.27,150.61c4.2-4.21,4.57-10,6.11-15.24-.5,3.7,2.64,4.41,4.84,5.89a1.8,1.8,0,0,1,.88,1.29,4.84,4.84,0,0,1,0,1.56,7.51,7.51,0,0,0-.2,2.9,3.37,3.37,0,0,1-.19,1.48c-.36,1-1.34,1.51-1.94,2.32Z" transform="translate(-19.52 -28.11)"/><path class="cls-131" d="M203.44,142.66l-.22-1.4c1.8-1.66,4-.88,6-.92,5.17-.12,10.34,0,15.51.06q0,.77,0,1.53c-1.37,1.44-3.17,1-4.85,1.12-4.34.23-8.71-.45-13,.45A3.51,3.51,0,0,1,203.44,142.66Z" transform="translate(-19.52 -28.11)"/><path class="cls-132" d="M201.8,150.8l1.13-2.46a7.31,7.31,0,0,1,4.56-1.16c4.8,0,9.6,0,14.4,0,2.36,0,3.83.94,4,3.45.23,4.29,2.6,8.57.06,12.87-4.9,3.52-9.43,7.93-16.29,6.67-1.6-.22-2-1.32-2.32-2.74-1.11-4.45-1.52-9-2.37-13.49-.13-.67-.19-1.3-.94-1.56C203.31,151.83,203,150.7,201.8,150.8Z" transform="translate(-19.52 -28.11)"/><path class="cls-133" d="M204,152.42c1.64-2.46,1.55-.09,1.68.69.63,3.77,1.06,7.58,1.73,11.35.36,2,.6,4.18,2.22,5.75-1,2-.29,3,1.89,3l7.12.12.58,1.66-2.8.6c-12.19.52-24.38.77-36.57.6-1.94,0-4.4.69-5.4-2.07,9.62,0,19.25-.12,28.87,0,2.94,0,4.4-.19,3.51-4C205.46,164.33,204.91,158.34,204,152.42Z" transform="translate(-19.52 -28.11)"/><path class="cls-134" d="M225.92,163.53c-.27-4-.78-8-.72-11.94,0-2.77-1.11-3.34-3.5-3.31-6.25.09-12.5,0-18.76.06l.31-1.53c.18-.19.35-.53.55-.56,7.06-1,14.13-1.53,21.16.26,2.32,4.06,3.31,8.6,4.52,13C230.22,162.29,227.25,162.32,225.92,163.53Z" transform="translate(-19.52 -28.11)"/><path class="cls-135" d="M225,146.52l-21.71.3c-.81-.89-.16-1.71.14-2.54,1-.9,2.28-.67,3.47-.86a114.23,114.23,0,0,1,16.1,0,3,3,0,0,1,1.26.75C225.09,144.74,224.91,145.66,225,146.52Z" transform="translate(-19.52 -28.11)"/><path class="cls-136" d="M206.49,144.2l-3.1.08.05-1.62,3-.09c6.1-.23,12.21-.79,18.3.29l-.54,1.29-.35.05-.35,0A105.1,105.1,0,0,0,206.49,144.2Z" transform="translate(-19.52 -28.11)"/><path class="cls-137" d="M224.75,142.86l-18.3-.29c6.05-1.49,12.2-.27,18.29-.64C224.75,142.24,224.75,142.55,224.75,142.86Z" transform="translate(-19.52 -28.11)"/><path class="cls-138" d="M208.18,113.73c-3.82,1.52-6.28,4.82-9.46,7.2-5.54,4.15-10.92,8.53-16.37,12.81-1.74.35-2.63-.24-2.36-2.12,6-5.31,10.76-11.85,16.91-17,2.46-2.06,4.71-4.36,7.06-6.55C207.46,108.39,206.15,112.3,208.18,113.73Z" transform="translate(-19.52 -28.11)"/><path class="cls-139" d="M179.86,139.51a41.82,41.82,0,0,1,5.33,11.1l-6,.17q0-5.58,0-11.17A3.21,3.21,0,0,0,179.86,139.51Z" transform="translate(-19.52 -28.11)"/><path class="cls-21" d="M174.45,174.16c1.12,1.45,2.71.83,4.09.83,11.33,0,22.67,0,34,0,1.32,0,2.68-.21,3.88.63-1.92,1.63-4.63.09-6.57,1.62-2.12,1.72-4.33.46-6.43.07-3-.56-4.54.3-4.53,3.55,0,2.08.13,4.3-1.88,5.77-2.54.71-4.8,1.44-6.42,4.07-1.2,2-4.11,1.39-6.37,1.46a40.48,40.48,0,0,1-5.18-.12,7.17,7.17,0,0,1-1.23-.22c-1.69-.66-3.55-.64-5.23-1.32-3.41-1.28-6.41-3-7.33-6.93-.43-1.8-1-3.57-1.25-5.39-.64-4.57,1-7.39,5.54-9.82l3.11.21C174,170.21,172.72,172.68,174.45,174.16Z" transform="translate(-19.52 -28.11)"/><path class="cls-35" d="M165.24,183.61c2.16,2.29,4.06,4.92,7.22,6-1.83,3.1-4.64,1.37-7.08,1.46-8.12-4.44-16-9.35-23.79-14.3a7.71,7.71,0,0,1-1.82-2.08c-1.12-1.08-.68-2.59-1-3.88,3.27-1.85,6.33-.84,9.25.81,2.16,1.22,4.18,2.68,6.27,4C157.87,178.38,161.24,181.44,165.24,183.61Z" transform="translate(-19.52 -28.11)"/><path class="cls-140" d="M204.14,105.54l.25-1.24c.72.13,1.48.95,2.11-.16s2.94-.49,2.35-2.6c.1-.64.25-1.24,1-1.36,3-.27,5.94-.53,8.88-1,1.3,1.63.5,3.86,1.59,5.55-2.79,1.76-5.62,3.82-7.89-1.21C210.35,107.32,207.16,106,204.14,105.54Z" transform="translate(-19.52 -28.11)"/><path class="cls-141" d="M218.77,99.14c-2.62,3.26-5.82,1.55-8.88,1a9.81,9.81,0,0,0,2.64-1.75C215.1,95.08,217,96.15,218.77,99.14Z" transform="translate(-19.52 -28.11)"/><path class="cls-142" d="M208.85,101.54c1.12.24,2.13.76,1.46,2.06-.93,1.8-2.57.1-3.81.54C206.07,102.17,207.11,101.54,208.85,101.54Z" transform="translate(-19.52 -28.11)"/><path class="cls-143" d="M126.65,353.47,127,340c.6-1.66.15-3.38.3-5.07.07-.76,0-1.66,1.2-1.48q.75,9.83,1.5,19.67a1.74,1.74,0,0,0,.84,1.66l-.67,2.78a2.63,2.63,0,0,1-2.72.78C126,356.89,126.06,355.23,126.65,353.47Z" transform="translate(-19.52 -28.11)"/><path class="cls-144" d="M138.3,351.89l0,1.73-.09,3.15c-1.38-1.08-.61-2.73-1.07-4,.58-2.11-.34-4.45.93-6.46Z" transform="translate(-19.52 -28.11)"/><path class="cls-145" d="M127.45,358.31c.66-1.1,1.71-.86,2.72-.78l-.32,3.08C128,360.72,128.33,358.91,127.45,358.31Z" transform="translate(-19.52 -28.11)"/><path class="cls-146" d="M139.77,174.7l25.11,15.4c-.89,1.26-1.95,1.85-3.41.9-3-1-6-.66-9.07-.45-4.22.29-8.48-.21-12.73-.32a12.88,12.88,0,0,0-5.54.6,1.88,1.88,0,0,1,1.25-2.17c3.32-1.24,2.55-3,.5-4.83a2.81,2.81,0,0,1,1.28-2.68A6.22,6.22,0,0,0,139.77,174.7Z" transform="translate(-19.52 -28.11)"/><path class="cls-147" d="M215.08,110.69c-2.14,2-3.46,1.51-5.22,1C211.5,110,212.83,110.73,215.08,110.69Z" transform="translate(-19.52 -28.11)"/><path class="cls-148" d="M369.87,277.11h-3.15a4.77,4.77,0,0,1-3.29,1.28c-15.74,0-31.47.52-47.2-.25-8.62-3.52-11-11.25-12.42-19.28a44.08,44.08,0,0,1,1.94-23.32c1.55-4.23,3.67-8,8.57-9.17,11.72-1.52,23.51-.44,35.26-.76,1.85-.05,3.94.34,4.27-2.4,3,2.93,6.82,2.32,10.47,2.4,1.68,1.13,4.12,2,1.87,4.67-1.91.86-3.95.64-5.95.65-12.34,0-24.68.14-37-.05-4.75-.07-8.4,1.24-10.69,5.53a7.72,7.72,0,0,0-1.22,2.89,34.12,34.12,0,0,0-.88,4.11,9.87,9.87,0,0,0-.46,3c-.1,2.49,0,5-.06,7.46,0,.4,0,.81,0,1.21,0,.59,0,1.18,0,1.76a7.25,7.25,0,0,0,.43,2.78,23.76,23.76,0,0,0,2.5,7c.4.75.89,1.45,1.29,2.21,2.23,2.19,5.07,2.17,7.89,2.17,13.38,0,26.76,0,40.14,0a25.2,25.2,0,0,1,5.6.29,4,4,0,0,1,1.33.58C370.34,273.44,371.07,275.13,369.87,277.11Z" transform="translate(-19.52 -28.11)"/><path class="cls-149" d="M276.7,209.46a20.25,20.25,0,0,1,1.41-9.69,2.3,2.3,0,0,1,2.59-.13c.92,1.48,2.38,1.44,3.89,1.44q28.35,0,56.71,0c1.49,0,3,.14,3.81-1.51a2.32,2.32,0,0,1,3,.33l0,10.36c-1.37,1.45-3.18,1.21-4.89,1.21q-30.63,0-61.27,0C280,211.45,277.78,211.83,276.7,209.46Z" transform="translate(-19.52 -28.11)"/><path class="cls-150" d="M348.33,221.58c-1.06,1.56-2.67.9-4.05.91q-28,.06-56.08,0c-7.88,0-9.26-1.13-10.92-8.93a1.09,1.09,0,0,1,.49-1.36c1.62-.87,3.4-.63,5.12-.64q29.73,0,59.45,0c2,0,4.07-.45,5.72,1.17l.05,4c-.38,1.22-.89,2-2.47,2.06-2.13,0-4.25.37-6.4.36-15.69,0-31.38-.06-47.07,0-2.91,0-5.78-.6-7.7-.49-1.52.2-.9,1-1,.53,0-.07,0-.09.13-.13,2.22-1,4.41.11,6.62.1q25.35-.12,50.7,0c2.39,0,4.79-.88,7.17,0Z" transform="translate(-19.52 -28.11)"/><path class="cls-95" d="M279.07,196.79c1.3-2.51,3.28-3.49,6.18-3.47,19.79.1,39.58,0,59.37.08,1.25,0,2.72-.53,3.7.84l-.24,4.75a36.9,36.9,0,0,1-9.84,1.25c-17.42-.06-34.83,0-52.25,0a19.36,19.36,0,0,1-5.93-.74C278.4,199,278.32,198.09,279.07,196.79Z" transform="translate(-19.52 -28.11)"/><path class="cls-151" d="M348.05,219.21c-22.33,1.47-44.65.75-67.79.25,2.13-1.55,3.77-1.09,5.27-1.09q28.77-.05,57.54,0c1.84,0,3.83.44,5-1.59Z" transform="translate(-19.52 -28.11)"/><path class="cls-62" d="M366.73,229.53l-2.41-3.93c.81-.54,1.18-1.72,2.41-1.62.38-1.21,4.25,1,2.37-2.39,0-1.63-.14-3.29.79-4.77,2-.92,2.8.06,3.2,1.88.2.92-.43,2.11.8,2.73,1.38,1.1-.09,2.22,0,3.33l-4,4.76A2,2,0,0,1,366.73,229.53Z" transform="translate(-19.52 -28.11)"/><path class="cls-152" d="M277.56,212.87a1.63,1.63,0,0,1-.29.71c-1-1.27-.64-2.71-.58-4.12,1.29,1,2.78.8,4.25.8h67.12l0,.91c-1.55,1.17-3.35.73-5,.74-21.41.11-42.83-.15-64.24.15A2.52,2.52,0,0,0,277.56,212.87Z" transform="translate(-19.52 -28.11)"/><path class="cls-153" d="M279.07,196.79c-.21,3,2.08,2.17,3.6,2.17q28.49.06,57,0h8.43l0,.9-3.11,0c-1.26,1.35-2.93,1.11-4.52,1.11q-27.7,0-55.4,0c-1.58,0-3.26.24-4.51-1.12l-2.47-.16C278.22,198.71,277.83,197.48,279.07,196.79Z" transform="translate(-19.52 -28.11)"/><path class="cls-154" d="M277.47,211.84c.79-1.06,1.94-.7,3-.7q33.83,0,67.67,0a.65.65,0,0,1,0,.74c-1,.68-2.07.41-3.11.41q-32.21,0-64.42,0C279.51,212.3,278.4,212.62,277.47,211.84Z" transform="translate(-19.52 -28.11)"/><path class="cls-155" d="M277.47,211.84l70.61.06v.86l-70.5.11Z" transform="translate(-19.52 -28.11)"/><path class="cls-156" d="M369.11,221.59c1.1.12,2.67-.14,2.2,1.71a1.86,1.86,0,0,1-2.75,1.27c-.59-.24-1.21-.39-1.82-.58Z" transform="translate(-19.52 -28.11)"/><path class="cls-157" d="M143.44,286.52c5.93-1.14,5.93-1.14,6-7.51,0-1.44,0-2.89,0-4.33a12.45,12.45,0,0,1,4.84-10c2.22-.67,4.22.39,6.2,1a29.35,29.35,0,0,0,10.23,1.41,2.23,2.23,0,0,1,1.4,1.13c-2.58,2.86-3.58,6.85-6.58,9.43-4.49.37-6.81,3.1-8,7.2a11.85,11.85,0,0,1-1.68,4.05,35.17,35.17,0,0,1-9.69,7.87c-1,.54-2,1.46-3.2.46Z" transform="translate(-19.52 -28.11)"/><path class="cls-158" d="M143,297.23c4.78-1.95,8.49-5.37,12.2-8.8,1.32,1.45,1.13,3.26,1.07,5-.22,6.92.34,13.67,3.65,19.94a1.91,1.91,0,0,1,0,1.92c-.36.33-.78,1-1.06,1-5.8-1-11.64-.14-17.45-.48Z" transform="translate(-19.52 -28.11)"/><path class="cls-159" d="M128.5,333.43c-1.93,1.85.07,4.61-1.5,6.54q0-19.06,0-38.13h1.5Z" transform="translate(-19.52 -28.11)"/><path class="cls-82" d="M139.64,331.1c1.25,1.14,2.79.72,4.21.72,14.16,0,28.32,0,42.48.05,1.4,0,3-.55,4.14.8l-47.33,0a7.44,7.44,0,0,0-3.9.62A2.5,2.5,0,0,1,139.64,331.1Z" transform="translate(-19.52 -28.11)"/><path class="cls-2" d="M314.33,226.37c-6.77,4.48-8.68,11.4-9.64,18.87A50.31,50.31,0,0,0,305.94,263a21.46,21.46,0,0,0,9.29,13.87c-1.24,1.84-3.21,1.59-5,1.62-4.47.07-8.94.13-13.42,0-6.94-.18-13.88.22-20.82,0-2.71-.57-5.71.86-8.2-1.18l-1-.33c-6.16-1.7-8.57-7-10-12.14-2.68-9.94-2.79-20.14,1.15-29.92,1.76-4.38,4.22-8.42,9.6-9.21,4.29-.57,8.72.91,12.94-.83,8.75,1.64,17.59.33,26.38.81C309.4,225.77,312,224.81,314.33,226.37Z" transform="translate(-19.52 -28.11)"/><path class="cls-2" d="M192,224.86c1.61.87,3.35.75,5.09.75l38.49.12a2.54,2.54,0,0,1-.9,2.52c-7,6.38-7.73,14.9-7.85,23.53-.07,5.06.1,10.14,2.48,14.86,1.9,3.77,4,7.29,8.23,8.81a1.41,1.41,0,0,1,1.1,1.47H191.93c-5.05-1-5.74-5.54-7.47-9.24-.68-1.72-.74-3.59-1.29-5.35s-.18-3.4-.5-5.07c-1.1-11-.53-21.62,6.7-30.8C190.11,225.67,191.28,225.63,192,224.86Z" transform="translate(-19.52 -28.11)"/><path class="cls-160" d="M238.66,276.91c-8.85-2.37-11.48-9.74-12.52-17.3-1.14-8.29-.85-16.73,2.31-24.87,1.51-3.91,4.92-5.9,7.15-9l32-.06c-7.93,4.1-10.1,11.62-11,19.54a66.07,66.07,0,0,0,.14,13.57,24.45,24.45,0,0,0,10.11,18.16Z" transform="translate(-19.52 -28.11)"/><path class="cls-161" d="M178,315.78a25.86,25.86,0,0,1-7.26,0c-4.74-1-6.64-4.69-7.73-8.76a37.1,37.1,0,0,1,.37-22,14.26,14.26,0,0,1,6.81-8.49,5.73,5.73,0,0,1,2-.49c2.29.1,4.76-.75,6.72,1.21A14.73,14.73,0,0,0,172.5,286C169.72,296.76,169.83,307,178,315.78Z" transform="translate(-19.52 -28.11)"/><path class="cls-161" d="M267.79,277.26l8.27-.08a3.41,3.41,0,0,1-.91,2.17c-8.22,11.59-8.09,23.78.38,34.93a2,2,0,0,1,.45,1.48l-8.23,0c-3.68-2.35-5.52-5.91-6.71-10a34.43,34.43,0,0,1,.59-20.43A14.46,14.46,0,0,1,267.79,277.26Z" transform="translate(-19.52 -28.11)"/><path class="cls-162" d="M178.94,277.24l-7-.28c-1.1-2.88,1.42-5.79,0-8.67l-.82-.79c0-.19.09-.37.13-.56a17.12,17.12,0,0,0,1-3.41c.22-7.53-.4-15.07.37-22.59,1.12-3.23.21-6.55.44-9.82.14-2.08-.27-4.25,1-6.16,1.33-1.08,2.32-.43,3.24.62,1.37,2.57.46,5.37.77,8-.43,10.28-1,20.55-.82,30.83,0,1.08,0,1.92,1.49,1,1.69-1.08,2.89-3.18,5.35-2.79,1.36,1.37.46,3.44,1.53,4.89-1.37,1.74-3.43,1.94-5.38,2.4-1.53.36-3.32.33-3.72,2.43s1.16,2.73,2.69,3.35a1.18,1.18,0,0,1,.81,1.23Z" transform="translate(-19.52 -28.11)"/><path class="cls-163" d="M205,294.91c-2.16,1.62-3.61-.26-5.23-1.32-1.13,2,.2,5.5-3.66,5.23-1.36-4.67-3.13-9.06-7.81-11.48-.6-.31-1.14-.76-1-1.55a1.75,1.75,0,0,1,1.75-1.35,12.83,12.83,0,0,1,2.78-.08C197.09,284.9,203.71,290.24,205,294.91Z" transform="translate(-19.52 -28.11)"/><path class="cls-164" d="M180,276.93c-1.26-1.54-4.91.82-4.82-3.15.07-2.83.25-4.85,3.92-4.83,2.16,0,4.33-.92,6.5-1.43,1.27,3.7,2.8,7.23,6.36,9.38Z" transform="translate(-19.52 -28.11)"/><path class="cls-165" d="M218.71,302.22c-2.16.09-4.35,1.38-6.48-.15,1.42-4.89,3-9.78-.29-14.59a1.27,1.27,0,0,1,.4-1.77c.65-.5,1.25-.15,1.8.28,4.65,3.61,6.57,8.67,7.36,14.24C221.82,302.31,219.88,301.87,218.71,302.22Z" transform="translate(-19.52 -28.11)"/><path class="cls-166" d="M276,315.76c-6.1-4.27-7.6-10.78-7.83-17.52-.27-8,.67-15.77,7.91-21.06h20.6c-2.77,2.36-3.68,6.5-7.49,7.87-1.19-.05-2.36-.36-3.56-.35-2.23,0-3.63,1-3.41,3.36.26,2.72-.45,4.68-3.3,5.5a1.86,1.86,0,0,0-1.28,2.81c1.43,3.22,2.35,7,6.94,7.2a1.86,1.86,0,0,1,1.59,1c.06,2.06,0,3.83,2.08,5.53,1.45,1.17,2.17,3.91,1.89,6.31C285.43,315.53,280.68,316.24,276,315.76Z" transform="translate(-19.52 -28.11)"/><path class="cls-167" d="M170.61,277.23c-10.93,8.8-10.85,30.5.14,38.52-3.61.16-7.25.76-10.8-.49-3.75-4.7-4.69-10.3-4.9-16.05-.13-3.59.08-7.19.14-10.78a45.1,45.1,0,0,0,1.7-4.78c1.1-4.6,3.66-7.22,8.65-6.84C167.3,276.28,169.06,275.43,170.61,277.23Z" transform="translate(-19.52 -28.11)"/><path class="cls-168" d="M190.49,343.94h-51c.25-2.23,1.64-1.59,2.49-1.59q22.71-.07,45.42,0c1.3,0,2.8-.3,3.13,1.62Z" transform="translate(-19.52 -28.11)"/><path class="cls-169" d="M308.84,254.54a32.2,32.2,0,0,1,.08-8.79c.94-1.93,2.73-2,4.49-2q35.8-.06,71.59,0c1.47,0,3,0,4.12,1.19l0,9.51c-1.36,1.45-3.16,1.25-4.88,1.26q-35.27,0-70.53,0C312,255.73,310.23,255.94,308.84,254.54Z" transform="translate(-19.52 -28.11)"/><path class="cls-170" d="M366.73,229.53h3.16l19.09.25a33,33,0,0,1,.16,7.84c-1.38,1.42-3.19,1.21-4.91,1.21q-33.91,0-67.83,0c-1.94,0-4.14.4-5.28-1.92,2.1-5.46,4.48-7.14,10-7.16Q343.92,229.65,366.73,229.53Z" transform="translate(-19.52 -28.11)"/><path class="cls-171" d="M311.69,266.83a19.57,19.57,0,0,1-2.23-7.34c.6-2.71,2.89-2,4.55-2,7.89-.13,15.78-.06,23.67-.06q22.87,0,45.74,0c2,0,4.06-.43,5.71,1.2-.09,2.79,1,5.68-.7,8.33-3.9-1.51-7.72-3.4-12.13-1.87a55.12,55.12,0,0,1-5.59,2c-1.92.79-3.94.63-5.94.63q-23.62,0-47.24,0C315.53,267.81,313.52,267.9,311.69,266.83Z" transform="translate(-19.52 -28.11)"/><path class="cls-172" d="M309.52,243.32a6.59,6.59,0,0,1,.83-4.08c1.26-1.12,2.8-.74,4.24-.74q35,0,70,0c1.58,0,3.25-.33,4.65.79l-.12,4c-1.37,1.21-3.05.83-4.62.83q-35.16,0-70.33,0C312.59,244.1,310.93,244.45,309.52,243.32Z" transform="translate(-19.52 -28.11)"/><path class="cls-173" d="M386.09,291.64c-4.5.82-7.64-.64-10.36-4.81l-1-1.64a4.86,4.86,0,0,1-1.13-3.25c.16-2.24-.27-4.51.19-6.74.61-3,2.12-5.5,5.38-5.43s7.73-1.6,9.51,3.36c.25,1.13-.15,2.64.74,3.38,3.78,3.17.71,3.74-2.07,4.48,1,.87,2.34.4,2.43,1.65-.86,2-.1,4.34-1.18,6.4C388,290.24,387.63,291.45,386.09,291.64Z" transform="translate(-19.52 -28.11)"/><path class="cls-174" d="M308.88,257l0-1.52c.81-.68,1.78-.44,2.7-.45q37.48,0,75,0c.91,0,1.89-.24,2.69.46l-.05,2.28c-1,.74-2.07.43-3.11.43q-36.61,0-73.22,0C311.42,258.17,309.75,258.76,308.88,257Z" transform="translate(-19.52 -28.11)"/><path class="cls-175" d="M388.46,273.88c-1.5-2.42-6.68-4.12-10.19-3.13s-3.41,3.94-3.44,6.77c0,1.46-.06,2.91-.09,4.37-1.77.08-2.59-1.52-3.91-2.23l-1-2.55-.94-4.85c-2.09-3.33-.06-5,2.58-6.41,8.34-4,12.09-3.77,16.92,1.13l.73,7.23A.65.65,0,0,1,388.46,273.88Z" transform="translate(-19.52 -28.11)"/><path class="cls-176" d="M309.52,243.32l79.59-.05V245l-76.35,0a6,6,0,0,0-3.84.83A3.33,3.33,0,0,1,309.52,243.32Z" transform="translate(-19.52 -28.11)"/><path class="cls-177" d="M389.24,239.29l-78.88-.05c.06-.85,0-1.74.79-2.35a6.28,6.28,0,0,0,3.84.8l74.17-.07Z" transform="translate(-19.52 -28.11)"/><path class="cls-178" d="M308.88,257c1.15.89,2.5.81,3.84.81l76.4,0v.91q-38.17,0-76.34,0c-1.16,0-2.45-.33-3.33.86A3.19,3.19,0,0,1,308.88,257Z" transform="translate(-19.52 -28.11)"/><path class="cls-179" d="M389.17,255.46l-80.33,0q0-.45,0-.9l80.32-.07Z" transform="translate(-19.52 -28.11)"/><path class="cls-180" d="M400.55,323.79c-1.29-2.9-2.72-5.75-3.79-8.73-.45-1.25-1.19-2.77-.14-4.2,1.85,1.66,2.35,4.09,3.23,6.21,1.46,3.51,3.17,5.5,7.11,3.47C405.12,322.21,403.58,324.48,400.55,323.79Z" transform="translate(-19.52 -28.11)"/><path class="cls-181" d="M388.46,273.88a1.75,1.75,0,0,1,.71.34c1.85,2.7,4,5.37.59,8.43-.58-1.35-3.06,1.62-3.09-1.51,0-3.33,3-.47,3.67-2.42C386.24,278.57,388.8,275.7,388.46,273.88Z" transform="translate(-19.52 -28.11)"/><path class="cls-182" d="M290.53,350.31c-1.44-.26-3.44.69-4-1.61-.36-1.55,2.95-6.31,4.36-6.4a20.06,20.06,0,0,1,4.41,0c1.51.24,4.13-1.22,4.26,1.37a5.61,5.61,0,0,1-3.54,5.75A11.17,11.17,0,0,1,290.53,350.31Z" transform="translate(-19.52 -28.11)"/><path class="cls-183" d="M295.78,334.74c.66,3.09,3.16,1.49,4.87,1.91-3,1.51-6.23.46-9.34.53-1.68,0-1.66-1.41-1.7-2.63a25,25,0,0,0-2.25-9.25c4.1.76,6.89,2.74,7,7.35A2,2,0,0,0,295.78,334.74Z" transform="translate(-19.52 -28.11)"/><path class="cls-184" d="M286.14,304.63c-6.48-.32-9.06-2.49-10.2-8.75-.32-1.72,0-3.4,2.18-3.5,3.06-.14,3.94-1.22,3-4.33s.6-4.48,4-4.36a10.34,10.34,0,0,1,4.29.68,6.23,6.23,0,0,0,4.27,1.08,7.5,7.5,0,0,1,4.4-.12,27.19,27.19,0,0,1,4.32,2.65,12.28,12.28,0,0,1,1.41,2.37,7.07,7.07,0,0,1,.7,1.49,14.66,14.66,0,0,0,1.82,6.76,18.08,18.08,0,0,1,.3,4.25,8.2,8.2,0,0,1-1.6,4.84,1,1,0,0,1-1.21.1c-1.06-.88-.8-2.22-1-3.32-.68-3.45-2.36-5.92-6-6.42-3.84-.52-5.74,2.27-7.28,5.06C288.66,304.69,288.39,306.52,286.14,304.63Z" transform="translate(-19.52 -28.11)"/><path class="cls-185" d="M360.09,309.3l.16,3.19-56,.25a2,2,0,0,1-2-1l1.12-2.43c1.76-1.22,3.78-1.16,5.79-1.16q22.84,0,45.68,0C356.6,308.17,358.57,307.77,360.09,309.3Z" transform="translate(-19.52 -28.11)"/><path class="cls-186" d="M360.09,309.3H303.31l.53-1.53a.73.73,0,0,1,.63-.19,15,15,0,0,1,1.56-.33c16.93-.26,33.86-.2,50.79,0a4,4,0,0,1,3.24,1.3A.82.82,0,0,1,360.09,309.3Z" transform="translate(-19.52 -28.11)"/><path class="cls-187" d="M176.78,233.64V225.7c-2.31-4.58-5-9-5.59-14.29-.72-6.11.73-11.67,3.27-17.06a5.86,5.86,0,0,1,3.91-3.22l5.9.26c1.78.25,3.63-.43,5.35.46-6.4,8.32-5.82,17.53-3.35,26.93a8.67,8.67,0,0,0,5.76,6.08,1.39,1.39,0,0,1-1.54,1.55,13.66,13.66,0,0,1-3.53.31,5.66,5.66,0,0,0-6.34,3.52C179.88,231.77,179.11,233.71,176.78,233.64Z" transform="translate(-19.52 -28.11)"/><path class="cls-188" d="M189.62,191.84c-1.77-.32-3.63.36-5.35-.46l4-.24c.78-.05,2.05.06,2-.8-.24-5.38,3.9-3.87,6.72-4.45,5.3-1.17,10.59-2.43,16-.48,1.78,2.61-.36,4.54-1.15,6.71C204.39,193.93,197,196.45,189.62,191.84Z" transform="translate(-19.52 -28.11)"/><path class="cls-189" d="M174.36,225c-.36,5.3.78,10.67-.66,15.92-.86-1-1.54-1.8-3-.46-4.6,4.21-10,7.4-14.94,11.18a13.64,13.64,0,0,1-7.82-5.33,23.34,23.34,0,0,1-.77-7.23c3.32-3.94,7.55-6.92,11.29-10.41a15.88,15.88,0,0,0,3-3.12c-7.39-7.39-7.38-16.39-5.61-25.77a14.11,14.11,0,0,1,5.61-8.75l3.41-.9c2.55.06,5.13.69,7.59-.49l5,1.29c-5.51,1.93-8.35,6.05-8.89,11.64-.7,7.11-1,14.26,4.36,20.1C173.54,223.34,174.31,223.93,174.36,225Z" transform="translate(-19.52 -28.11)"/><path class="cls-190" d="M147.95,238.43l.83,8.17a13.7,13.7,0,0,1,1.81,8.09c-.28,1.75.4,4.13-2.63,4.13.1-3.38.16-6.74-3.88-8.14-.74-13.16-2.16-26.29-1.76-39.5,2.33,2.91,2.84,6.38,3.12,10a38.88,38.88,0,0,0,.9,4.62C148.4,229.78,149.65,233.92,147.95,238.43Z" transform="translate(-19.52 -28.11)"/><path class="cls-191" d="M147.95,238.43l-1.62-12.68,15.14-.22c.26.73.7,1.47-.11,2.16-4.09,3.5-8.16,7-12.27,10.48C148.82,238.39,148.33,238.35,147.95,238.43Z" transform="translate(-19.52 -28.11)"/><path class="cls-192" d="M124.57,191.18l5.86.82C128,193.76,126.39,193.66,124.57,191.18Z" transform="translate(-19.52 -28.11)"/><path class="cls-193" d="M154.21,265.06c-1.18,3.4-4.48,5.76-4.75,9.61-.22-2.22,0-4.44-.67-6.67-.45-1.59-1.13-2.25-2.66-2.25a3.85,3.85,0,0,1-.31-3.84C149.19,260.75,151.61,261.65,154.21,265.06Z" transform="translate(-19.52 -28.11)"/><path class="cls-194" d="M146.23,261.86l-.1,3.9c-2.36-.92-1.19-3.08-1.65-4.66a1.49,1.49,0,0,1,1.69-.84A1.07,1.07,0,0,1,146.23,261.86Z" transform="translate(-19.52 -28.11)"/><path class="cls-162" d="M146.23,261.86l-.07-1.61,1.79-1.44c2.11-.81,1.09-2.74,1.48-4.17,1.26-.71,2.43-.12,3.36.55,5,3.62,10.75,5.93,15.87,9.32,1.06.7,2.51,1.13,2.57,2.79l-.12.17c-4.48,2.16-8.53-.38-12.72-1.22-1.42-.28-2.79-.8-4.19-1.21C151.55,264,149.33,261.83,146.23,261.86Z" transform="translate(-19.52 -28.11)"/><path class="cls-185" d="M303.17,290.93l-1-2.56c.53-2.2,2.39-1.89,3.9-1.9q25.14-.12,50.28,0c1.34,0,2.71,0,3.74,1.11q0,5.66,0,11.32c-1,1.08-2.38,1.11-3.72,1.11-15.75,0-31.49.07-47.24,0a6.62,6.62,0,0,1-2-.3c-.78-.27-1.21-1-1.8-1.47-1.66-1.93-2.64-4-1.7-6.63,2-.71,4-.32,6-.33,15.11,0,30.22,0,45.33,0,.54,0,1.06,0,1.26.62l-.07-.63q-23.07,0-46.21,0C307.69,291.16,305.41,291.48,303.17,290.93Z" transform="translate(-19.52 -28.11)"/><path class="cls-185" d="M298.39,286a5.17,5.17,0,0,0-4.76.7c-1-3.29.28-5.87,3.59-7.1a12.43,12.43,0,0,1,4.36-.58q26.74-.07,53.48,0c1.84,0,3.81-.19,5.24,1.43l-.19,5.48c-1.48,1.33-3.3.84-5,.85-17.64.11-35.28-.15-52.92.16A6.76,6.76,0,0,1,298.39,286Z" transform="translate(-19.52 -28.11)"/><path class="cls-195" d="M360.06,308.52q-25.74,0-51.49-.06c-1.4,0-3,.6-4.11-.88l1.22-4.73c.92-2,2.74-1.92,4.48-1.93q22.93-.07,45.86,0c1.47,0,3,0,4.11,1.2Z" transform="translate(-19.52 -28.11)"/><path class="cls-196" d="M360.3,280.41c-20.18,0-40.36-.13-60.54-.11-4.05,0-5.91,2.48-6.13,6.36-2.13.58-3.23-.73-4.2-2.29,1.56,0,1.83-1.56,2.13-2.37a7.88,7.88,0,0,1,5.09-4.81l18.58-.35,51.49.28c.35,2.27-.3,3.52-2.9,3.19A21.63,21.63,0,0,0,360.3,280.41Z" transform="translate(-19.52 -28.11)"/><path class="cls-197" d="M298.39,286l61.73-.06q0,.83,0,1.65-26.67,0-53.34,0c-1.54,0-3.24-.57-4.58.77A4.51,4.51,0,0,1,298.39,286Z" transform="translate(-19.52 -28.11)"/><path class="cls-198" d="M360.1,299.57v1.71a3.81,3.81,0,0,1-2.33.37c-16.14,0-32.28,0-48.41-.05-1.21,0-3.67,1.15-3.15-2a4.69,4.69,0,0,1,2.73-.37h48.81A4.62,4.62,0,0,1,360.1,299.57Z" transform="translate(-19.52 -28.11)"/><path class="cls-199" d="M306.36,299.56c.31,2.63,2.39,1.65,3.74,1.65,16.67.07,33.34.05,50,.06l0,.85-50.6,0a6.09,6.09,0,0,0-3.85.78l-.3-4.67,1,.78c.29.13.39.26.29.39S306.45,299.56,306.36,299.56Z" transform="translate(-19.52 -28.11)"/><path class="cls-200" d="M306.36,299.56a2.62,2.62,0,0,0,0-.59l53.78-.09a1.41,1.41,0,0,1,0,.7Z" transform="translate(-19.52 -28.11)"/><path class="cls-118" d="M370.83,279.67c2.26-.93,3,.78,3.91,2.23q0,1.65,0,3.29C371.19,284.91,370.21,282.85,370.83,279.67Z" transform="translate(-19.52 -28.11)"/><path class="cls-201" d="M213,185.42c-5.34-.35-10.61,1.83-16,.48,1.25-2,.78-4.18.68-6.26-.17-3.69,1.76-4.35,4.78-3.8,2.47.45,4.94.94,7.41,1.42.85.16,2.24.54,1.36,1.42-1.09,1.11-3.67,1.27-2.45,3.56,1.1,2.06,3.42,1.58,5.4,1.39l.39,0Z" transform="translate(-19.52 -28.11)"/><path class="cls-202" d="M188,156.39c-.08,1.12-.52,1.73-1.43,1.79a1.44,1.44,0,0,1-1.61-1.34c-.15-1,.53-1.37,1.39-1.46A1.46,1.46,0,0,1,188,156.39Z" transform="translate(-19.52 -28.11)"/><path class="cls-137" d="M206.49,144.2a44.72,44.72,0,0,1,17,0Z" transform="translate(-19.52 -28.11)"/><path class="cls-203" d="M174.36,225c-4.31-2.06-5.87-6-6.65-10.26-1.16-6.35-1.18-12.61,1.67-18.69,1.68-3.58,4.11-5.42,8.08-5.11l.91.22c-8.27,9.56-8.53,22.69-.5,32.71,1.72,2.14-.05,1.64-1.09,1.86A3.42,3.42,0,0,0,174.36,225Z" transform="translate(-19.52 -28.11)"/><path class="cls-204" d="M218.39,103.22c-1.26.48-1.93,2.6-3.63,1.34-.55-.41-1.11-1.13-.64-1.7C215.5,101.2,216.92,102.69,218.39,103.22Z" transform="translate(-19.52 -28.11)"/><path class="cls-205" d="M368.29,272.19c-2.06.86-4.21.4-6.31.4-13.86.05-27.72,0-41.58,0-3.47,0-6.29-.84-7.67-4.37,1.09-1.08,2.5-.79,3.8-.8q24,0,48.08,0C368.82,267.48,369,267.8,368.29,272.19Z" transform="translate(-19.52 -28.11)"/><path class="cls-206" d="M368.29,272.19c.41-3.14-.91-4-4.07-4-17.16.16-34.33.08-51.49.09l-1-1.44q26.75-.09,53.51-.16a19.94,19.94,0,0,0,6.32-.82,6.2,6.2,0,0,0-2.58,6.41A2.09,2.09,0,0,1,368.29,272.19Z" transform="translate(-19.52 -28.11)"/><path class="cls-207" d="M280.57,199.93H345l1.63,1.15a9,9,0,0,1-5.24,1.19c-19.57,0-39.15,0-58.72,0-1.09,0-2.52.68-3.18-.77C279.36,201.17,280.19,200.45,280.57,199.93Z" transform="translate(-19.52 -28.11)"/><path class="cls-208" d="M170.61,277.23l-5.06-.41a9.41,9.41,0,0,0,2-3.81,7.28,7.28,0,0,1,4.36-4.72c2.68.89,1.5,2.93,1.25,4.57A29.86,29.86,0,0,1,172,277Z" transform="translate(-19.52 -28.11)"/><path class="cls-209" d="M176.78,233.64a31.79,31.79,0,0,0,2.92-3.67c2.78-4.75,5.2-5.6,10.78-3.57-7,9.2-7.76,19.74-6.66,30.7-2.31,3.23-3.67,7.32-7.86,8.89,0-2.92.14-5.85,0-8.76C175.54,249.33,176.77,241.51,176.78,233.64Z" transform="translate(-19.52 -28.11)"/><path class="cls-210" d="M176,266c3-2.65,4.4-6.67,7.87-8.89q.1,2.76.21,5.53c-2,1.52-3.95,3-5.88,4.58S176,267.7,176,266Z" transform="translate(-19.52 -28.11)"/><path class="cls-3" d="M155.83,251.09c.11-1.63,1.52-2.07,2.6-2.78a154.87,154.87,0,0,0,14.53-11c1.06,1.18.39,2.45.74,3.54,0,6.65-.07,13.31-.16,20,0,1.42.43,3-.69,4.21a1.7,1.7,0,0,1-2.17-.44c-4.27-4-9-7.51-13.58-11.15A2.94,2.94,0,0,1,155.83,251.09Z" transform="translate(-19.52 -28.11)"/><path class="cls-35" d="M155.83,251.09c5.76,4.54,11.66,8.93,17,14-.06,1.09.06,2.31-1.61,2.26l-21.8-12.67-.67-8.05Z" transform="translate(-19.52 -28.11)"/><path class="cls-211" d="M303.17,290.93H357v.63H303.69Z" transform="translate(-19.52 -28.11)"/><path class="cls-212" d="M294.54,292.2c-2.38,1.76-4.94,3.25-7.18,5.2C287.8,293.12,291,292.38,294.54,292.2Z" transform="translate(-19.52 -28.11)"/></svg>