<svg id="Layer_1" data-name="Layer 1" xmlns="http://www.w3.org/2000/svg" viewBox="0 0 463.82 100.33"><defs><style>.cls-1,.cls-2{fill:#ff9f7a;}.cls-2{font-size:92.27px;font-family:PoorRichard-Regular, Poor Richard;}</style></defs><title>logo</title><path class="cls-1" d="M70.94,100.47c-2.3-8.28-.13-13.11,7.71-16,7-2.55,13.4-6.76,20.19-10,3.95-1.88,5.89-4.76,5.89-9,0-13.3-.09-26.6.07-39.9,0-3.74-1.12-3.59-3.85-2.16-7,3.66-14.16,6.89-21.05,10.68-9.47,5.21-14.66,13.36-14.8,24.26-.17,13.65,0,27.3,0,41,0,5.67-3.37,7.78-8.44,5.23C42.71,97.56,28.86,90.47,15,83.48,8,80,4.38,74.29,4.3,66.72c-.2-19.42,0-38.85-.12-58.28,0-3.62,1.06-3.73,3.89-2.27,12.6,6.48,25.36,12.64,37.87,19.28,11,5.82,11.35,7.57,5.73,20.4-7.65-13-21.93-15.62-33.4-22.55-2.65-1.6-3.54-1.07-3.52,2.11.11,13.47,0,27,.06,40.43,0,3.16,1.05,6.07,3.91,7.55C30.31,79.41,42,85.23,54.5,91.55c0-11.28,0-21.68,0-32.09C54.58,43.24,61.92,31.41,76.3,24c11.51-5.92,23.12-11.63,34.62-17.56,3.05-1.58,4.51-2.06,4.46,2.44-.18,19.07,0,38.15-.11,57.23-.05,8-3.73,14-11.08,17.6C93.11,89.19,82.11,94.83,70.94,100.47Z" transform="translate(-4.18 -5.29)"/><text class="cls-2" transform="translate(140.82 80.13) scale(0.99 1)">The Book</text></svg>