<svg id="Layer_5" data-name="Layer 5" xmlns="http://www.w3.org/2000/svg" viewBox="0 0 360.31 235.03"><defs><style>.cls-1{fill:#fdd8e1;}.cls-2{fill:#fe597f;}.cls-3{fill:#fdd8e0;}.cls-4{fill:#1b5dee;}.cls-5{fill:#242525;}.cls-6{fill:#fc9e9d;}.cls-7{fill:#fd597e;}.cls-8{fill:#6e8eef;}.cls-9{fill:#fd597f;}.cls-10{fill:#f87575;}.cls-11{fill:#fc597f;}.cls-12{fill:#1d4fbb;}.cls-13{fill:#7f55e6;}.cls-14{fill:#1d4fbc;}.cls-15{fill:#7e54e6;}.cls-16{fill:#8258e5;}.cls-17{fill:#fedee5;}.cls-18{fill:#fd5b80;}.cls-19{fill:#fd587e;}.cls-20{fill:#fb5a7f;}.cls-21{fill:#fd587f;}.cls-22{fill:#fd5a80;}.cls-23{fill:#282625;}.cls-24{fill:#fbe9ed;}.cls-25{fill:#5772bd;}.cls-26{fill:#5872bd;}.cls-27{fill:#232728;}.cls-28{fill:#835be7;}.cls-29{fill:#444;}.cls-30{fill:#0d54eb;}.cls-31{fill:#fd4b77;}.cls-32{fill:#fd4b78;}.cls-33{fill:#383836;}.cls-34{fill:#212b3b;}.cls-35{fill:#bbbbb7;}.cls-36{fill:#1d1a1d;}.cls-37{fill:#fb4a75;}.cls-38{fill:#fefefe;}.cls-39{fill:#865be6;}.cls-40{fill:#8056e7;}.cls-41{fill:#7f56e8;}.cls-42{fill:#242424;}.cls-43{fill:#fcfdfd;}.cls-44{fill:#2a2829;}.cls-45{fill:#242324;}.cls-46{fill:#655d5f;}.cls-47{fill:#1c1819;}.cls-48{fill:#fee0e7;}.cls-49{fill:#fdfcfc;}.cls-50{fill:#f7d6dd;}.cls-51{fill:#fde3e8;}.cls-52{fill:#8c7e7f;}.cls-53{fill:#0859ec;}.cls-54{fill:#8690ed;}.cls-55{fill:#fedfdd;}.cls-56{fill:#845ae6;}.cls-57{fill:#655e5e;}.cls-58{fill:#fcdee5;}.cls-59{fill:#7655ec;}.cls-60{fill:#fde1e6;}.cls-61{fill:#313030;}.cls-62{fill:#fe4e78;}.cls-63{fill:#f9f1f7;}.cls-64{fill:#1b5cee;}.cls-65{fill:#1a5cee;}.cls-66{fill:#6c8eef;}.cls-67{fill:#6c8eed;}.cls-68{fill:#232221;}.cls-69{fill:#cbafb8;}.cls-70{fill:#e6cdd4;}.cls-71{fill:#fbf6f6;}.cls-72{fill:#232426;}.cls-73{fill:#f2f6fa;}.cls-74{fill:#eaf1fa;}.cls-75{fill:#242014;}.cls-76{fill:#1d408a;}.cls-77{fill:#1c5ffc;}.cls-78{fill:#212315;}.cls-79{fill:#e9effd;}.cls-80{fill:#0f0f11;}.cls-81{fill:#201d20;}.cls-82{fill:#eff6fd;}.cls-83{fill:#bec1c7;}.cls-84{fill:#1c1617;}.cls-85{fill:#151917;}.cls-86{fill:#201e1f;}.cls-87{fill:#1e1e1e;}.cls-88{fill:#f2f9fe;}.cls-89{fill:#302f2f;}.cls-90{fill:#1d1e20;}.cls-91{fill:#181a1b;}.cls-92{fill:#8a8d92;}.cls-93{fill:#1e1f21;}.cls-94{fill:#edf2f8;}.cls-95{fill:#f1f6fc;}.cls-96{fill:#c3c5cb;}.cls-97{fill:#c2c5cb;}.cls-98{fill:#1a1f1d;}.cls-99{fill:#f3f9fe;}.cls-100{fill:#828387;}.cls-101{fill:#1d191a;}.cls-102{fill:#1b4db4;}.cls-103{fill:#212c42;}.cls-104{fill:#203f8a;}.cls-105{fill:#222c3e;}.cls-106{fill:#1e2e45;}.cls-107{fill:#212e4e;}.cls-108{fill:#1f3969;}.cls-109{fill:#20428e;}.cls-110{fill:#1953c8;}.cls-111{fill:#1f3252;}.cls-112{fill:#223e8a;}.cls-113{fill:#1c3969;}.cls-114{fill:#222935;}.cls-115{fill:#1d4088;}.cls-116{fill:#2a2d39;}.cls-117{fill:#231d21;}.cls-118{fill:#353c52;}.cls-119{fill:#2f364d;}.cls-120{fill:#333f56;}.cls-121{fill:#1d1e13;}.cls-122{fill:#4c5e93;}.cls-123{fill:#394b68;}.cls-124{fill:#191f14;}.cls-125{fill:#343a54;}.cls-126{fill:#526cb1;}.cls-127{fill:#e4e7f9;}.cls-128{fill:#3f5684;}.cls-129{fill:#1f3a76;}.cls-130{fill:#1e45a0;}.cls-131{fill:#223562;}.cls-132{fill:#1b4ebe;}.cls-133{fill:#202832;}.cls-134{fill:#272221;}.cls-135{fill:#232d38;}.cls-136{fill:#282539;}.cls-137{fill:#21251a;}.cls-138{fill:#292526;}.cls-139{fill:#fbedf0;}.cls-140{fill:#fbeaed;}.cls-141{fill:#f6ecee;}.cls-142{fill:#18241d;}.cls-143{fill:#232016;}.cls-144{fill:#f9f7fc;}.cls-145{fill:#f9d5e1;}.cls-146{fill:#f8f6fb;}.cls-147{fill:#f8f3f8;}.cls-148{fill:#f6d2e0;}.cls-149{fill:#efcde2;}.cls-150{fill:#f7f4fa;}.cls-151{fill:#262326;}.cls-152{fill:#8359f9;}.cls-153{fill:#fdfdfd;}.cls-154{fill:#f4d3e0;}.cls-155{fill:#f5d4df;}.cls-156{fill:#352f4e;}.cls-157{fill:#4f3f85;}.cls-158{fill:#42362f;}.cls-159{fill:#956360;}.cls-160{fill:#21231d;}.cls-161{fill:#fdd7e0;}.cls-162{fill:#fcfcfc;}.cls-163{fill:#bbb;}.cls-164{fill:#bdbdbd;}.cls-165{fill:#cdcdcd;}.cls-166{fill:#b6b6b6;}.cls-167{fill:#262626;}.cls-168{fill:#fbfdfd;}.cls-169{fill:#f9fafe;}.cls-170{fill:#f0f5fe;}.cls-171{fill:#696a6e;}.cls-172{fill:#1c1a1a;}.cls-173{fill:#e5eaf6;}.cls-174{fill:#f4f9fd;}.cls-175{fill:#f1f6fe;}.cls-176{fill:#f1f8fd;}.cls-177{fill:#afb0b0;}.cls-178{fill:#7190e6;}.cls-179{fill:#a8bef4;}.cls-180{fill:#7897f1;}.cls-181{fill:#ecf7fc;}.cls-182{fill:#131416;}.cls-183{fill:#728ef3;}.cls-184{fill:#628ae7;}.cls-185{fill:#f2f2fe;}.cls-186{fill:#33363a;}.cls-187{fill:#1b1b20;}.cls-188{fill:#0c0e11;}.cls-189{fill:#08080d;}.cls-190{fill:#08090a;}.cls-191{fill:#c2c5c9;}.cls-192{fill:#202226;}.cls-193{fill:#35373b;}.cls-194{fill:#080a0d;}.cls-195{fill:#36393b;}.cls-196{fill:#28292d;}.cls-197{fill:#acafb4;}.cls-198{fill:#16171a;}.cls-199{fill:#34353a;}.cls-200{fill:#2a2c31;}.cls-201{fill:#202126;}.cls-202{fill:#1f2124;}.cls-203{fill:#717178;}.cls-204{fill:#131417;}.cls-205{fill:#3b3d41;}.cls-206{fill:#e1e5ec;}.cls-207{fill:#000007;}.cls-208{fill:#e7edfa;}.cls-209{fill:#bcbec4;}.cls-210{fill:#b6b9be;}.cls-211{fill:#b5b7bd;}.cls-212{fill:#b7b8be;}.cls-213{fill:#dbe0e9;}.cls-214{fill:#bdbec4;}.cls-215{fill:#55575b;}.cls-216{fill:#b3b6bb;}.cls-217{fill:#aeafb2;}.cls-218{fill:#b4b8be;}.cls-219{fill:#4f5255;}.cls-220{fill:#56585d;}.cls-221{fill:#2f3133;}.cls-222{fill:#2b2e34;}.cls-223{fill:#b3b8be;}.cls-224{fill:#2c2f33;}.cls-225{fill:#27292f;}.cls-226{fill:#c0c3cb;}.cls-227{fill:#2e3032;}.cls-228{fill:#202326;}.cls-229{fill:#b2b5bd;}.cls-230{fill:#46494d;}.cls-231{fill:#e4d8f9;}.cls-232{fill:#e6d9f9;}.cls-233{fill:#f6edfa;}.cls-234{fill:#ebdefc;}.cls-235{fill:#fdf8fb;}.cls-236{fill:#dfcef6;}.cls-237{fill:#1d1d1d;}.cls-238{fill:#4b4b4b;}.cls-239{fill:#454444;}.cls-240{fill:#6789ee;}.cls-241{fill:#e1e3e9;}.cls-242{fill:#f8f9fa;}.cls-243{fill:#68696f;}.cls-244{fill:#e6eaf6;}.cls-245{fill:#d5d9dd;}.cls-246{fill:#f8fcfe;}.cls-247{fill:#eef2f6;}.cls-248{fill:#9da2a6;}.cls-249{fill:#f7fcfe;}.cls-250{fill:#777b7c;}.cls-251{fill:#eef1f6;}.cls-252{fill:#3b3d43;}.cls-253{fill:#e9eefc;}.cls-254{fill:#e9eefa;}.cls-255{fill:#e9effb;}.cls-256{fill:#e6ebf5;}</style></defs><title>order</title><path class="cls-1" d="M87.72,54.12a29.47,29.47,0,0,1,15.87-13.51,59.07,59.07,0,0,1,16-3.56,62.15,62.15,0,0,0-12.89-9.11c0,2.19.12,2.07-2.1,1.87-.92-.08-2.9,1.41-2.88-1.2a11.42,11.42,0,0,1,.2-2.94A58.6,58.6,0,0,0,79,21C44.21,21,16,51.44,16,89s28.21,68,63,68a58.81,58.81,0,0,0,20.66-3.74c.64-2.09,1.27-4.18,1.91-6.26-.73-2.54-2.42-4.58-3.66-6.85a126,126,0,0,1-8.4-18.57,104.34,104.34,0,0,1-4.09-14.8c-1-5-1.73-10.07-2.34-15.15a105.31,105.31,0,0,1-.61-16.07C82.71,68.07,84,60.76,87.72,54.12Zm6.42-29.18c3,0,2.61-.39,2.62,2.51s.35,2.41-2.51,2.45-2.45.28-2.43-2.17C91.84,24.6,91.36,24.94,94.14,24.94ZM83.48,127.43c0,1.15-1.13.81-1.76.72-1.81-.25-2.2.58-2,2.16.07.6.33,1.45-.65,1.69a.8.8,0,0,1-.75-.84,8.14,8.14,0,0,1,0-1.56c.15-1.18-.38-1.45-1.48-1.45-.79,0-2.25.64-2.24-.74,0-1.16,1.41-.69,2.15-.63,1.42.1,1.62-.53,1.6-1.73,0-.73-.59-2.09.77-2,1.08,0,.66,1.33.61,2-.12,1.43.45,1.91,1.79,1.7a.48.48,0,0,1,.17,0C82.31,126.88,83.44,126.32,83.48,127.43Z" transform="translate(-16 -9.97)"/><path class="cls-1" d="M266.17,15.86c.28.44.74.39,1.16.43.71.84.28,1.77.21,2.66s-.26,1.94-.35,2.92c-.12,1.47-.76,2.11-2.33,2.07-3.46-.1-6.93,0-10.39,0,3.57,0,7.15,0,10.72,0,1.26,0,1.88-.28,2-1.7.11-1.78.4-3.55.66-5.31.09-.62-.11-1.45.78-1.75a1.36,1.36,0,0,0,1.16,1.55c6.6,1.86,11.68,5.95,16.2,11,3,3.37,5.34,7.2,8.08,10.75-.51.62-1.23.53-1.9.55-1.37,0-2.74.06-4.11,0s-2.26.56-2.2,2.09c0,.49,0,1,0,1.46,0,.29,0,.59,0,.88s0,.6,0,.9c.09,1.91-.2,3.83.2,5.73.66.88,1.63.75,2.53.75,3.28,0,6.56,0,9.83,0,.79,0,1.63-.13,2.26.57,1.76,4.57,3.64,9.08,5.14,13.75a156.68,156.68,0,0,1,5.61,23.62c.75,4.77,1.11,9.57,1.49,14.38a101.18,101.18,0,0,1-.14,13.27c-.81-.24-.73-1-.79-1.56q-1.52-14.31-3.07-28.61c-.08-.69,0-1.39-.08-2.07a1.27,1.27,0,0,0-.22-.49,3,3,0,0,0-1.25-.52c-9.74-.08-19.49-.1-29.22,0a1.05,1.05,0,0,0-.62.53l-.28.83c-.23,5.79-1.09,11.52-1.61,17.28-.66,7.38-1.43,14.75-2.2,22.11-.19,1.84-.07,1.93,1.86,1.93q17.37,0,34.74,0c.95,0,2-.25,2.77.62a2.18,2.18,0,0,0-1.8,1.93,73.29,73.29,0,0,1-9.22,22.78,84.35,84.35,0,0,1-8.51,11.29,101,101,0,0,1-16.84,15,2.49,2.49,0,0,0-1.12,2.64c-.89.07-.74-.66-.82-1.13a1.5,1.5,0,0,0-1.64-1.43c-1,0-2.06-.14-2.61,1.14-1.19,2.74-2,3.06-4.6,1.89a1.43,1.43,0,0,0-2,.51c-.57.73-1.54,1.25-1,2.51,1.15,2.63.75,3.59-1.82,4.58a1.52,1.52,0,0,0-1.12,1.55,4.23,4.23,0,0,1-.3,2.2c-.81-.31-.81-.31-1.08-2.14a51.18,51.18,0,0,0-5.88,3.12,4.3,4.3,0,0,0-2,.93c-.73.08-1.07.77-1.67,1.07-1.57-.54-2,1-3,1.6-6.7,3-13.23,6.38-19.92,9.42a56.66,56.66,0,0,1-23.12,5.39c-12.23.12-23.51-3.12-34.27-8.67-3.35-1.73-6.55-3.69-9.73-5.69a4.3,4.3,0,0,1-1.76-1.63c-.16-.76.46-1,.93-1.25.95-.54,1.84-1.15,2.74-1.76,1.79-1.22,2.68-2.78,1.87-5-1.67-7-3.56-13.9-5.35-20.84-2.34-9.07-4.71-18.14-7-27.22-.45-1.74-.93-3.46-1.42-5.19a7.36,7.36,0,0,1-.42-2.23c.49-2.2,1.16-4.36,1.58-6.57a1.84,1.84,0,0,1,.85-1.44c1.12.2,1.15,1.23,1.32,2,.82,3.75,1.76,4.84,7,4,1.33-.22,2.52-1.23,4-.71.55.79.3,1.74.53,2.6a2.17,2.17,0,0,1-.06.63c-.15,8.26-.06,16.53-.05,24.79,0,5.72-.14,11.44.09,17.15a4,4,0,0,0,.25.52c.58,2.58.92,5.24,2.37,7.56a16.37,16.37,0,0,0,11.43,7.7,1,1,0,0,1,.35.3c.07.32.21.57.61.52,19.56,0,39.11,0,58.65,0a1.13,1.13,0,0,0,.64-.42,1.6,1.6,0,0,1,.38-.33c2.48-.76,5-1.43,7.12-3a15.9,15.9,0,0,0,6.23-10.24,2,2,0,0,1,.23-.49,5.14,5.14,0,0,0,.28-.51,29.83,29.83,0,0,0,0-3.13q0-31.85,0-63.69a14.45,14.45,0,0,0-.11-2.77,1.89,1.89,0,0,1,0-1.26,2.89,2.89,0,0,1,.83-.87,2.64,2.64,0,0,0,1-2.27c0-2.46-.05-4.92,0-7.38,0-1.46-1-2.09-1.83-2.9a5.61,5.61,0,0,1,.05-3.71c1.47-1,1.8-2.48,1.76-4.22-.09-4.91-.07-9.82,0-14.74a3.74,3.74,0,0,0-1.64-3.57,1.92,1.92,0,0,1-.29-1.53,8.1,8.1,0,0,0,.2-2.57c0-6.22-.06-12.44,0-18.66-.13-.11-.24-.23-.36-.35-.89-2.85-1.71-5.7-3.76-8A20.1,20.1,0,0,0,244.33,31c-.43-.3-1.15-.38-1-1.17,1.51-.75,2.2-2.28,3.2-3.47a33.76,33.76,0,0,1,5.41-5.23,6.53,6.53,0,0,1,1,.47c3.83.2,7.66.09,11.48.05a1.34,1.34,0,0,0,.44-.22c.46-.58.2-1.27.29-1.9a31.38,31.38,0,0,1,.59-3.49A.4.4,0,0,1,266.17,15.86Z" transform="translate(-16 -9.97)"/><path class="cls-1" d="M163.59,118.39a2.09,2.09,0,0,1-.12.69,3.35,3.35,0,0,1-3.14,2.29c-.85-.12-.85-.84-.93-1.46-.33-2.45-.54-4.93-.84-7.4-.07-.57-.15-1.13-.23-1.7a88,88,0,0,0-2.59-13.06,17.8,17.8,0,0,0-1.59-3.83,4.48,4.48,0,0,0-2.55-2.21l-.57-.23-.42-.17c-1.7-.67-3.44-1.26-5.19-1.8-.66-.2-1.37-.32-1.74-1V88.4c-.1-2.32.52-3.28,2.65-4.14a6.9,6.9,0,0,0,4.71-7c0-1.74,0-3.48,0-5.21a4.2,4.2,0,0,1,.32-2,.76.76,0,0,1,.12-.19.83.83,0,0,1,.08-.12,2.23,2.23,0,0,0,.64-2.65c-1.5-4.88-4.66-8.06-9.67-9.15-4.75-1-8.55.74-11.7,4.32-2.54,2.89-3.38,6.52-4.73,9.94-.23.59-.39,1.2-.59,1.81-.06.17-.11.33-.16.5l-.18.55a31.19,31.19,0,0,0-1.29,7.08,18,18,0,0,1-5.33,11.54c-.87.93-1.73,1.86-2.55,2.83.85-1,1.72-1.9,2.62-2.82a19.76,19.76,0,0,0,5.49-11.5,5.83,5.83,0,0,0,.17-2.12c.07-1-.07-2,.83-2.74h.1a.47.47,0,0,1,.26.08l0,0a.21.21,0,0,1,.08.06l.06.07a2.67,2.67,0,0,1,.1.38c.43,1.65.08,3.35.19,5a15.48,15.48,0,0,1-5.4,12.79,30.47,30.47,0,0,0-8.27,11.84c-1.91,5-.93,8.39,3.48,11.43a2.82,2.82,0,0,1,1.28,1.32s0,0,0,0v.07a25.73,25.73,0,0,0,.24,5.26c.4,2.91,1.62,4,4.54,4.07a17.3,17.3,0,0,0,3.45-.2,2.57,2.57,0,0,1,1.83.16l0,0,.13.08a2.68,2.68,0,0,1,.34,2,1,1,0,0,1,0,.17,1.85,1.85,0,0,1,0,.25,14,14,0,0,1-.41,1.54c0,.1-.07.21-.11.31a1.72,1.72,0,0,1-.07.21c-2.24,6.66-4.2,13.41-6.31,20.12-.19.6-.14,1.43-1,1.59-.73-2.54-2.42-4.58-3.66-6.85a126,126,0,0,1-8.4-18.57,104.34,104.34,0,0,1-4.09-14.8c-1-5-1.73-10.07-2.34-15.15a105.31,105.31,0,0,1-.61-16.07c.24-7.49,1.55-14.8,5.25-21.44a29.47,29.47,0,0,1,15.87-13.51,59.07,59.07,0,0,1,16-3.56q3.13-.27,6.31-.26H158a19.92,19.92,0,0,1,5,.35,1.26,1.26,0,0,1,.21.32,1.35,1.35,0,0,1,.12.24,1.19,1.19,0,0,1,.08.22,7.39,7.39,0,0,1,.07,2q0,33.24,0,66.47A18,18,0,0,0,163.59,118.39Z" transform="translate(-16 -9.97)"/><path class="cls-2" d="M163,187.71a1.12,1.12,0,0,1-.36,0,.24.24,0,0,1-.14,0c-2.33-1.79-4.9-1.41-7.49-.81l-.11,0-.16,0A109.49,109.49,0,0,0,144,190.7l-.07,0-.15.06c-3.38,1.29-6.76,2.55-10.25,3.52l-.09,0-.09,0a35.83,35.83,0,0,1-10.94,1.5l-.21,0-.13,0c-4.21-.44-7.91-1.87-10.52-5.47a4,4,0,0,1-1.12-4.75c2.48-7.75,4.84-15.55,7.21-23.34.64-2.09,1.27-4.18,1.91-6.26l6.51-20.79c.12-.39.28-.76.43-1.13a2.45,2.45,0,0,1,.6-.31,4.35,4.35,0,0,1,1.53-.26c6.17,0,12.34,0,18.5,0a3.37,3.37,0,0,1,1.51.25,1.72,1.72,0,0,1,.44.3c.18.45.35.91.51,1.37,1,3,1.6,6.07,2.41,9.11,3.65,13.86,7.21,27.75,10.79,41.63C162.93,186.68,163,187.2,163,187.71Z" transform="translate(-16 -9.97)"/><path class="cls-3" d="M167.13,232.81c7.28-.53,14.57-.36,21.85-.38,6.24,0,12.5-.32,18.73-.24,12.79.16,25.58.07,38.36.35,4.44.1,8.9,0,13.34.28,6.51.36,13,.41,19.55.76a59.74,59.74,0,0,1,8.26.5c.46.09.92.2,1.27-.25,1.13.2,2,.56,1.45,2a8.76,8.76,0,0,1-3.09.23,94.64,94.64,0,0,0-14.16,1.1,3.57,3.57,0,0,0-2.39.87c.41.66,1.1.65,1.7.75a112.3,112.3,0,0,0,24.89.9,49.2,49.2,0,0,0,8.6-1c.75-.18,1.63-.36.74-1.42-.12-1.49.93-1.65,2-1.76,3.51.77,7.15.83,10.63,1.79.94.26,2.32.4,2.37,1.37.06,1.16-1.42,1.16-2.29,1.38a80.64,80.64,0,0,1-12.45,1.82c-5.28.42-10.55.92-15.82,1.34-2,.16-4,.28-6,.3-4.22,0-8.43.35-12.64.49-9,.28-17.9.46-26.85.71-22.81.62-45.62.21-68.42.18-4.78,0-9.59,0-14.38-.27-6.75-.35-13.5-.42-20.25-.74-4.55-.22-9.11-.26-13.65-.66-6.42-.57-12.86-.8-19.26-1.64a74.84,74.84,0,0,1-10.54-1.78c-.6-.17-1.43-.29-1.51-1-.1-.89.87-1,1.46-1.22a46.85,46.85,0,0,1,9-1.64c3.6-.43,7.21-.73,10.82-1,.56,0,.78-.42,1.11-.72.68.56.47,1.38.6,2.1.2,1.18.8,1.93,2.05,1.93a33,33,0,0,0,6.74-.27c2.21-.45,3.9-1.42,4.38-3.82a.78.78,0,0,1,.42-.52,64.08,64.08,0,0,1,7.41-.6,42.53,42.53,0,0,0,5.53-.27c.83.87.49,2,.55,3,.12,2,.56,2.49,2.51,2.5,5.78,0,11.56,0,17.34,0l.52,0c1.12-.09,2.09-.45,2.36-1.66s-.43-1.95-1.4-2.51C168,233.67,167.23,233.61,167.13,232.81Z" transform="translate(-16 -9.97)"/><path class="cls-4" d="M308.95,83.38a51.84,51.84,0,0,1,1,8c.9,8.13,1.72,16.27,2.58,24.41a3.58,3.58,0,0,0,.2.65q.4,4.37.8,8.74c.06.63.21,1.31-.77,1.35-5.67,0-11.34-.05-17-.06-7.18,0-14.36,0-21.53,0-1.34,0-1.61-.3-1.47-1.63,1.26-12.26,2.43-24.52,3.69-36.78A15.41,15.41,0,0,1,277,84a3,3,0,0,1,2.32-.77c9.06,0,18.12,0,27.17,0C307.3,83.16,308.08,83.73,308.95,83.38Z" transform="translate(-16 -9.97)"/><path class="cls-5" d="M243.29,29.82c4.87,2.8,8.06,6.77,8.74,12.5l0,.32c.05,7.28.07,14.56,0,21.84a5.79,5.79,0,0,0,.22,1,4,4,0,0,1,.18,1.54c0,6.76.1,13.52-.07,20.27a2.93,2.93,0,0,1-.22.59,7.69,7.69,0,0,0,.18,4.48,95.48,95.48,0,0,1-.11,12.42,5.18,5.18,0,0,0-.19.64c.14,23.07,0,46.15.07,69.22,0,.75-.24,1.47-.19,2.22-.5,6.76-6.6,12.76-13.87,13.62l-.33,0c-12.83.09-25.66,0-38.49,0-7,0-14,0-21,0l-.34,0c-8-.87-13.52-6.85-14.33-15.4a3.66,3.66,0,0,1-.26-2q0-19.57,0-39.14c0-1.32,0-2.64,0-4,0-1.16.45-1.89,1.73-1.81.69.79.47,1.76.47,2.66q0,17.79,0,35.59a7.24,7.24,0,0,0,.1,1.89l.19.23.22.2a1.6,1.6,0,0,0,.54.29,14.55,14.55,0,0,0,2.26.07h77.89a8.12,8.12,0,0,0,2.41-.14,1.06,1.06,0,0,0,.43-.77c.16-6.63,0-13.25.07-19.88,0-3.23-.06-6.45,0-9.68-.1-1-.05-2.08-.05-3.13,0-21.31,0-42.62,0-63.93.1-9.23.16-18.47,0-27.7-.12-6.37-4.37-11.14-10.92-12.83a2,2,0,0,1-.5-.2.69.69,0,0,1-.29-.39c-4.74-.19-9.47-.08-14.2,0a.92.92,0,0,0-.2.39c0,.17,0,.33,0,.49-.83,3.67-3,5.76-6,5.75-6.21-.12-12.41-.13-18.62,0a2.33,2.33,0,0,1-.58.13c-2.94-.38-5-2.12-5.32-4.56.33-2.11.12-2.29-2-2.3-4.38,0-8.77.22-13.14-.14-.23,0-.37-.07-.14,0,0,0,0,.11,0,.17a.66.66,0,0,1-.18.41,2,2,0,0,1-.66.3c-6.38,1.78-10.25,6.12-10.67,12a4.29,4.29,0,0,1-.2,1.19,14.87,14.87,0,0,0-.1,2.78q0,34.39,0,68.79a11.1,11.1,0,0,1-.11,2.42,1.6,1.6,0,0,1-1.74,1.39c-.91-.07-.59-1-.7-1.53a10.33,10.33,0,0,1,0-1.91q0-33,0-66c0-2,.08-3.93.27-5.88A16.38,16.38,0,0,1,171,30.74c1.63-2,4-2.25,6.32-2.75.72-.15,1.48-.18,2.21-.35,11.87-.13,23.74,0,35.6-.05a2.22,2.22,0,0,1,1.77.53c5.71,0,11.43.13,17.14.08A22.15,22.15,0,0,1,243.29,29.82Z" transform="translate(-16 -9.97)"/><path class="cls-1" d="M179.1,28.14A19.83,19.83,0,0,0,171,30.74a13.12,13.12,0,0,1-4.87-6.14,5,5,0,0,1,2-6.22c3.62-2.63,7.85-3.51,12.13-4.21a123.42,123.42,0,0,1,26.05-1.32c7.22.37,14.51.46,21.58,2.33,2.74.72,3.29,2.11,1.55,4.33-3.25,4.14-7.73,6.43-12.53,8.22a4,4,0,0,1-1.87.15q-17.14,0-34.29,0C180.18,27.91,179.57,27.63,179.1,28.14Z" transform="translate(-16 -9.97)"/><path class="cls-6" d="M165.7,168.79h-.11l-.11,0c-.4-.58-.2-1.24-.2-1.86q0-18.4,0-36.8a3.62,3.62,0,0,0-.16-1.87c-1.24.17-1.44.94-1.44,2.09q.06,21.32,0,42.63c0,.69,0,1.38-.07,2.07l-.12,0h-.12a2.09,2.09,0,0,1-.18-1.34q0-20.19,0-40.37a2.45,2.45,0,0,1,.16-1.36v-.36c-.44-.77.13-1.67-.34-2.44-2.36.68-4.66,1.6-7.22,1.45a3.58,3.58,0,0,1-3.57-2.68,17.37,17.37,0,0,0-1.37-4.05,1.71,1.71,0,0,1-.6-1c-1.94-7.49-3.66-15-3.71-22.82a13.31,13.31,0,0,1,1.6-6.83,3.2,3.2,0,0,1,3.5-1.91c1.84,0,2.53,1.47,3.19,2.79,1.91,3.8,2.59,8,3.31,12.1.81,4.64,1.32,9.32,1.73,14,.07.84.31,1.06,1,.54s2.42-.36,2.45-2a3.37,3.37,0,0,1-.15-1.7q0-34.61,0-69.22a3.55,3.55,0,0,1,.15-1.71c.21-.64-.14-1.36.28-2,0,.87.07,1.73.07,2.6q0,35.69,0,71.38c0,.34,0,.69,0,1,1.81-.29,1.81-.29,1.81-2.14q0-35.69.07-71.38c0-.63.09-1.26.14-1.88.8.66.56,1.59.56,2.42q0,12.09,0,24.19,0,22.31,0,44.63c0,.52,0,1,0,1.56,0,.78.44,1.06,1.14.76a94.31,94.31,0,0,0,10.44-4.72,2.86,2.86,0,0,0,1.31-1.58c.88-2.65,3.09-3.94,5.27-5.28.55-.33,1.16-.7,1.77-.24s.46,1.12.26,1.82c1.22-.57,2.44-1.08,3.65-1.62.74-.33,1.62-.77,2.14.21s-.32,1.56-1.07,2c-.2.12.05,0-.15.08-2.13,1.16-2.41,1.37-1.11,3.51s.64,3.84-1.62,5a3.56,3.56,0,0,1-1,.42c-4.68.8-8.25,3.78-12.12,6.19a64,64,0,0,1-7.11,4,2.83,2.83,0,0,0-1.88,3c.1,3.53-.06,7.06.08,10.6,0,8.49,0,17,0,25.47C166.33,167.09,166.52,168.08,165.7,168.79Z" transform="translate(-16 -9.97)"/><path class="cls-1" d="M309.73,164a42.79,42.79,0,0,0,5.74-8.18c4.27-7.41,6.75-15.51,8.67-23.77.58-2.51,1-5.06,1.52-7.6a7.49,7.49,0,0,1,.26-1c.37-1.09.6-2.32,2-2.53s2.17.84,2.81,1.89a23.15,23.15,0,0,1,2.87,9.17,45.34,45.34,0,0,1-1.72,19.11c-1.21,4.14-2.88,8.12-5.91,11.21-3.66,3.73-8,6.4-13.48,6.56-.56,0-1.06,0-1.17.73-.17,0-.4,0-.43-.21C310.61,167.54,309.86,165.82,309.73,164Z" transform="translate(-16 -9.97)"/><path class="cls-4" d="M309.73,164c1.12,1.7,1.24,3.68,1.62,5.59,0,9-2.15,17.58-4.84,26.07-.07.23-.41.47,0,.71.52,1-.48,1.68-.69,2.53a38.78,38.78,0,0,1-3.5,8.29c-.48.92-.78,2.46-2.51,1.91a11,11,0,0,1,.33-3.31q.23-1.88.5-3.76c.07-.64.19-1.27.25-1.87-.18.31,0,.73-.15,1.1-.06,1.19-.45,2.32-.45,3.52-.44,1.44,0,3.09-1.11,4.37-1.26-2.28-1.24-4.79-1.28-7.29a64.18,64.18,0,0,0,0-9.71,79.84,79.84,0,0,1,3.55-23.2,14.51,14.51,0,0,1,2.16-4.32C305.46,162.14,307.39,161.95,309.73,164Z" transform="translate(-16 -9.97)"/><path class="cls-7" d="M282.5,196.76c1.19,2.05-.83,2.68-1.72,3.76s-1.63.21-2.39-.28a2.13,2.13,0,0,0-3.41,1.55c-.21,2.19-1.73,1.67-3,1.78s-2.12-.34-2.28-1.85a2.09,2.09,0,0,0-3.44-1.43c-1.3,1-2.1.61-3.05-.41s-2.05-1.85-.7-3.44a2.11,2.11,0,0,0-1.33-3.36c-.7-.18-1.54-.12-1.93-.94a11,11,0,0,0,0-1.73c-.22-1.66.28-2.58,2.11-2.75,1.28-.12,1.93-2,1.27-3.17-.35-.62-1.27-1.19-.77-2a6.65,6.65,0,0,1,2.68-2.63c.71-.32,1.25.4,1.84.75a2.14,2.14,0,0,0,3.24-1.3c.43-2.62,1.14-2,3.48-2.14,1.85-.09,1.78,1.21,1.91,2.43a1.89,1.89,0,0,0,.3.59c1.25.81,2.47,1.16,3.73-.05.58-.55,1.22-.4,1.86.13,2.13,1.77,2.21,2,1,4.47a2.4,2.4,0,0,0,1.48,2.93c.72.23,1.81,0,2,1a7.44,7.44,0,0,1-.1,3.6c-.21.63-1,.55-1.51.69C281.71,193.53,281.15,195.2,282.5,196.76Z" transform="translate(-16 -9.97)"/><path class="cls-6" d="M119.92,232.78c.21-2.3.59-4.59.61-6.89.08-7.64.44-15.26.81-22.88,0-.86.23-1.71.36-2.57a1.78,1.78,0,0,1,1.64-.18,19.28,19.28,0,0,0,7,.15,2.45,2.45,0,0,1,1.67.22c.73.74.44,1.62.29,2.46q-2.14,12-4.27,24.06c-.6,3.39-.28,3.85,3,4.8a1.88,1.88,0,0,1,1.06.53c.36,1.63.12,2.08-1.35,2.57a4.6,4.6,0,0,1-4.14-.58,8.34,8.34,0,0,0-6-1.51A1.08,1.08,0,0,1,119.92,232.78Z" transform="translate(-16 -9.97)"/><path class="cls-8" d="M300.09,209.14a3.21,3.21,0,0,0,1.78-2,50.23,50.23,0,0,0,3.67-8.86,10.05,10.05,0,0,1,1-2c1.54-1.51,2.47-3.46,3.78-5.14a36.91,36.91,0,0,1,6.42-7c1.12-.86,2.36-2.1,3.86-1.09s1,2.46.61,3.83a35.78,35.78,0,0,1-4.63,9.85A69.53,69.53,0,0,1,305.49,211c-1.27,1.22-2.53,2.6-4.53,2.62-.46-.69.09-1.2.33-1.75.93-2.12,2.17-4.07,3.22-6.13.45-.75,1-1.45,1.4-2.21a7.86,7.86,0,0,0,.82-1.39c.42-.74.92-1.42,1.39-2.12.09-.15.17-.3.27-.45-.13.07-.14.21-.22.32-.47.7-.93,1.4-1.39,2.09a7.09,7.09,0,0,1-.81,1.39c-.41.77-.93,1.45-1.39,2.19-1,2.09-2.31,4.06-3.28,6.19-.2.45-.38,1-1.05,1a1.19,1.19,0,0,1-.61-1.32,5.19,5.19,0,0,0,.13-1.95A.33.33,0,0,1,300.09,209.14Z" transform="translate(-16 -9.97)"/><path class="cls-4" d="M296.28,209.12c-1.61,0-2.24-1.3-2.93-2.39a37.72,37.72,0,0,1-3.78-8.53,79.56,79.56,0,0,1-3.71-15.47,11.11,11.11,0,0,1,0-3.79c.24-1.07.88-1.37,1.7-.52a8.6,8.6,0,0,1,1.44,1.94,76.71,76.71,0,0,1,8.3,25.38,4.25,4.25,0,0,1-.42,3,1.12,1.12,0,0,1-.56-.73c0-.32,0-.64,0-1a3.41,3.41,0,0,1-.32-1.4c-.14-.63-.33-1.25-.44-1.89a3.51,3.51,0,0,1-.27-1.18,4.27,4.27,0,0,1-.35-1.4,7.63,7.63,0,0,1-.54-1.9,7.28,7.28,0,0,0,.51,1.9,3135,3135,0,0,0,.7,2.8,13,13,0,0,0,.37,1.68,3.77,3.77,0,0,0,.32,1.45,4.49,4.49,0,0,0,.33,1.75C296.6,209.1,296.51,209.18,296.28,209.12Z" transform="translate(-16 -9.97)"/><path class="cls-9" d="M300.64,51.41l-13.16-.06c-.88,0-1.78.05-2.12-1a22.91,22.91,0,0,0,0-6.25l0-.6a.76.76,0,0,1,.58-.27c6.66,0,13.33.13,20-.06.45,0,.93-.1,1.28.31q0,3,.06,6c0,1.3-.66,1.87-1.92,1.87C303.74,51.35,302.19,51.38,300.64,51.41Z" transform="translate(-16 -9.97)"/><path class="cls-2" d="M119.92,232.78c2.05-.6,4-.73,5.88.67a5.35,5.35,0,0,0,4.82,1.18,1.64,1.64,0,0,0,1.44-1.85c.85-.17,1.37.12,1.46,1,.17,2-.78,3.38-2.87,4.13-3,1.08-6.15.78-9.25.68-1.14,0-1.63-1-1.78-2-.11-.79-.09-1.61-.12-2.41Z" transform="translate(-16 -9.97)"/><path class="cls-10" d="M132.06,200.8c-3.47.37-6.94.68-10.37-.37-.26-.88.39-1.77,0-2.65a1.9,1.9,0,0,1,.61-2.15c.76-.72,1.76-.29,2.56-.31a40.14,40.14,0,0,0,8.59-1.46c.54,2-.39,3.88-.59,5.82A1.32,1.32,0,0,1,132.06,200.8Z" transform="translate(-16 -9.97)"/><path class="cls-11" d="M285.3,41.24c-.1-2.57.05-2.72,2.5-2.74l6.24,0,10.48,0c2.53,0,2.77.26,2.62,2.77a2.61,2.61,0,0,1-2.1.57q-8.82,0-17.64,0A2.8,2.8,0,0,1,285.3,41.24Z" transform="translate(-16 -9.97)"/><path class="cls-5" d="M284.62,216.65c0-.88.77-.75,1.24-.82a30.37,30.37,0,0,1,6-.49,16.71,16.71,0,0,1,3.72-.08,2.35,2.35,0,0,0,2.26-.88c.32,1.52,1,0,1.44.16.38-.09.45-.66.93-.6.26.14.25.37.18.61.13,1,.9.5,1.35.51a92.18,92.18,0,0,1,10.36.71c.63.09,1.61-.2,1.73.93-.86,1-2.07.86-3.19,1a19.34,19.34,0,0,1-2.91.31,7.68,7.68,0,0,1-1.77-.13,4.65,4.65,0,0,0-3.58.21,11.1,11.1,0,0,1-4.29.25c-.53,0-1.21,0-1.29-.84,1.62-.38,3.3.06,4.93-.27.23-.07-.13-.22,0,0-3,.22-6,.2-9,.7a21.78,21.78,0,0,1-6.63-.34A1.79,1.79,0,0,1,284.62,216.65Z" transform="translate(-16 -9.97)"/><path class="cls-12" d="M308.24,235.48l-2,1.42a3.4,3.4,0,0,1-2.54,1.55c-2.25.6-4.52,1.26-6.85.28-.43-1.16.61-1.24,1.21-1.46a12.7,12.7,0,0,0,6.43-5.27c.39-.55.78-1.11,1.22-1.62s.61-.85,1-1.21a1.9,1.9,0,0,1,3.13.16c.57.75,1.46,1.37,1.35,2.51A15.14,15.14,0,0,1,308.24,235.48Z" transform="translate(-16 -9.97)"/><path class="cls-13" d="M285.3,41.24l21.85,0v2.17a80.54,80.54,0,0,1-9.31.18c-3.45,0-6.91,0-10.36,0a3,3,0,0,1-1.85-.23,1,1,0,0,1,.47-.19q9,0,18,0c.1,0,.19.1.27.19v-.21q-8.57,0-17.16,0c-.66,0-1.42.23-1.89-.51Z" transform="translate(-16 -9.97)"/><path class="cls-14" d="M307.56,217.53l6.22-.82a67.78,67.78,0,0,1-.68,8.07,1.41,1.41,0,0,1-2.13-.14,16.49,16.49,0,0,0-3.67-3.19C307,220.11,306.76,218.79,307.56,217.53Z" transform="translate(-16 -9.97)"/><path class="cls-15" d="M265.91,16a14.26,14.26,0,0,1-.42,3.72c-.41.64.11,1.43-.33,2.06h0a108.45,108.45,0,0,1-12.93,0l-.32-.74c.23-.51-.51-.9-.17-1.41a3.88,3.88,0,0,0-.09-2l-.06-.61c-.34-.69.1-1.49-.3-2.18l-.05-.6c-.24-.93-.38-1.69,1-1.67,4.49.05,9,0,13.46,0a1.24,1.24,0,0,1,.48.16l0,1.39C265.82,14.75,266.23,15.44,265.91,16Z" transform="translate(-16 -9.97)"/><path class="cls-16" d="M268.59,15.17c-.34,2.45-.75,4.89-1,7.34-.13,1.37-.6,1.87-2,1.83-3.92-.09-7.85,0-11.77,0-.54,0-1.15.23-1.67-.36.41-.71,1.1-.44,1.65-.44,3.75,0,7.5,0,11.25,0,1,0,1.57-.19,1.64-1.38.11-2,.42-3.89.64-5.84.24-1.65.46-3.29.74-4.93.09-.52,0-1.28.86-1.28,1,0,2.15-.37,3,.22.49.33-.09.62-.5.71-2.62.58-2.62.58-2.83,3.3C268.61,14.59,268.6,14.88,268.59,15.17Z" transform="translate(-16 -9.97)"/><path class="cls-17" d="M163.33,46.15q0,27.63,0,55.26c0,5.79,0,11.58,0,17.38-.62-.64-.33-1.43-.33-2.15q0-35.24,0-70.48Z" transform="translate(-16 -9.97)"/><path class="cls-12" d="M312.86,227.3a8,8,0,0,1-1.12,3.39.79.79,0,0,1-1-.46,4.54,4.54,0,0,0-4-2.39c-.46-1.49,0-3,.16-4.42a1.26,1.26,0,0,1,.27-.47c1.2-.63,2.07-.1,2.8.82a4.55,4.55,0,0,0,2.36,1.85C313.32,225.88,312.92,226.66,312.86,227.3Z" transform="translate(-16 -9.97)"/><path class="cls-18" d="M122.65,38.81c-.92-.08-2.9,1.41-2.88-1.2a11.42,11.42,0,0,1,.2-2.94c.25-.73.84-.73,2.25-.74,2.83,0,2.52-.36,2.52,2.27,0,.27,0,.52,0,.74C124.78,39.13,124.87,39,122.65,38.81Z" transform="translate(-16 -9.97)"/><path class="cls-19" d="M112.25,38.9c-2.74,0-2.45.28-2.43-2.17,0-3.13-.46-2.79,2.32-2.79,3,0,2.61-.39,2.62,2.51S115.11,38.86,112.25,38.9Z" transform="translate(-16 -9.97)"/><path class="cls-20" d="M320.83,27c-.22.77-.85.65-1.42.68-2.31.1-2.3.1-2.41,2.41,0,.53.2,1.34-.63,1.38s-.86-.85-.77-1.41c.35-2.05-.54-2.68-2.46-2.39-.54.08-1.33.14-1.35-.66,0-1,.85-.72,1.42-.74,2.29-.09,2.29-.07,2.37-2.44,0-.61-.17-1.46.79-1.42s.62.82.64,1.37c.09,2.34.08,2.34,2.55,2.48C320.11,26.29,320.78,26.13,320.83,27Z" transform="translate(-16 -9.97)"/><path class="cls-21" d="M101.48,136.43c0,1.15-1.13.81-1.76.72-1.81-.25-2.2.58-2,2.16.07.6.33,1.45-.65,1.69a.8.8,0,0,1-.75-.84,8.14,8.14,0,0,1,0-1.56c.15-1.18-.38-1.45-1.48-1.45-.79,0-2.25.64-2.24-.74,0-1.16,1.41-.69,2.15-.63,1.42.1,1.62-.53,1.6-1.73,0-.73-.59-2.09.77-2,1.08,0,.66,1.33.61,2-.12,1.43.45,1.91,1.79,1.7a.48.48,0,0,1,.17,0C100.31,135.88,101.44,135.32,101.48,136.43Z" transform="translate(-16 -9.97)"/><path class="cls-9" d="M114.7,24.95c0,.29.06.57.06.86.07,3.78.07,3.75-3.68,3.67-1,0-1.42-.27-1.27-1.26.18-1.21-.4-2.49.34-3.64C111.63,25.13,113.21,24.45,114.7,24.95Z" transform="translate(-16 -9.97)"/><path class="cls-22" d="M124.43,24.59c.67,1.36.18,2.81.3,4.21a.55.55,0,0,1-.64.63c-1.4-.14-2.85.39-4.21-.3a7.77,7.77,0,0,0,.18-3.19c0-.88.26-1.2,1.17-1.19A8.27,8.27,0,0,0,124.43,24.59Z" transform="translate(-16 -9.97)"/><path class="cls-22" d="M134.52,29.13c-1.39.7-2.87.17-4.3.29a.48.48,0,0,1-.53-.53c.1-1.44-.4-2.91.29-4.31a9.8,9.8,0,0,0,3.37.17c.74,0,1,.28,1,1C134.38,26.89,134.07,28,134.52,29.13Z" transform="translate(-16 -9.97)"/><path class="cls-23" d="M122.3,195.64c-.33.68-.09,1.52-.61,2.15a20.31,20.31,0,0,1-9.15-5.89c-.39-.45-1-.82-1-1.55C114.48,193.47,118.22,194.91,122.3,195.64Z" transform="translate(-16 -9.97)"/><path class="cls-24" d="M179.1,28.14c-.17-.09-.58-.15-.35-.34s.66-.06,1-.06h37.12l0,.38c-3.58,0-7.16.09-10.73.08Q192.61,28.19,179.1,28.14Z" transform="translate(-16 -9.97)"/><path class="cls-25" d="M312.86,227.3c-.13-.59.12-1.3-1-1.32-.91,0-1.59-.9-2-1.68a2.12,2.12,0,0,0-2.53-1.2.78.78,0,0,1-.29-.93.73.73,0,0,1,.57-.48,3.07,3.07,0,0,1,3,1.87,2.24,2.24,0,0,0,2.54,1.22A4.54,4.54,0,0,1,312.86,227.3Z" transform="translate(-16 -9.97)"/><path class="cls-26" d="M306.88,227.9a2.35,2.35,0,0,1,3.33,1,16.23,16.23,0,0,0,1.52,1.79,1.66,1.66,0,0,1-.59,1.16l-.74-.94c-2.18-2.75-2.18-2.75-4.54-.19-.51-.59-.09-1.21-.08-1.83C306,228.36,306.12,227.8,306.88,227.9Z" transform="translate(-16 -9.97)"/><path class="cls-27" d="M300.34,214.55,300,214c-.43-.54-.14-.88.31-1.18a56.94,56.94,0,0,1,4.1-7.51c.37-.05.57,0,.4.46-1.21,2.65-2.92,5.06-3.9,7.82Z" transform="translate(-16 -9.97)"/><path class="cls-28" d="M266.23,12.78c-4.45,0-8.89,0-13.34,0-1.15,0-1.78.26-1.65,1.51-.67-1.35-.27-1.82,1.24-1.79,4.09.07,8.19,0,12.28,0C265.26,12.52,265.81,12.32,266.23,12.78Z" transform="translate(-16 -9.97)"/><path class="cls-29" d="M297.78,214.38a1.45,1.45,0,0,1-1.53,1c-1.48-.1-3-.06-4.45-.08a21,21,0,0,1,3.94-.28c.46,0,1,.28,1.35-.35l-.24-2.8c.2-.21,0-.6.35-.76A10,10,0,0,1,297.78,214.38Z" transform="translate(-16 -9.97)"/><path class="cls-30" d="M297.87,192.13c.68,1.31.31,2.72.28,4.07,0,1.88.41,3.79-.28,5.64A64.88,64.88,0,0,1,297.87,192.13Z" transform="translate(-16 -9.97)"/><path class="cls-31" d="M124.43,24.59c-.86.72-1.88.33-2.81.33s-1.39.37-1.4,1.41.4,2-.35,2.81C119.87,23.35,118.59,24.57,124.43,24.59Z" transform="translate(-16 -9.97)"/><path class="cls-32" d="M134.52,29.13c-.73-.86-.33-1.87-.34-2.81s-.35-1.4-1.4-1.41-1.95.39-2.81-.33C135.62,24.52,134.56,23.51,134.52,29.13Z" transform="translate(-16 -9.97)"/><path class="cls-33" d="M299.23,214c-.8-1.52.17-3,.08-4.52.45-.11.63.19.78.52a1.51,1.51,0,0,1-.18,1c-.29.49-.07,1,0,1.49S300.1,213.83,299.23,214Z" transform="translate(-16 -9.97)"/><path class="cls-34" d="M299.88,209.83l-.57-.33-.14-.38c.64-1.42.5-3,.84-4.48.79.2.33.74.32,1.16.19,1.13-.65,2.18-.24,3.33l-.08.35C300.1,209.66,300.05,209.77,299.88,209.83Z" transform="translate(-16 -9.97)"/><path class="cls-35" d="M299.23,214c.63-1,.06-2.19.67-3.16l.08.2a3.26,3.26,0,0,0,.37,1.78L300,214c-.25.2-.08,1.07-.81.53C299,214.37,299.1,214.2,299.23,214Z" transform="translate(-16 -9.97)"/><path class="cls-36" d="M297.2,211.15l-.35.76-.57-2.79.15-.23a.67.67,0,0,1,.09-.9l.35.75Z" transform="translate(-16 -9.97)"/><path class="cls-37" d="M114.7,24.95c-1.51-.22-3.09.45-4.54-.38C111.67,24.66,113.25,24,114.7,24.95Z" transform="translate(-16 -9.97)"/><path class="cls-38" d="M292.07,207l1,2.08A1.6,1.6,0,0,1,292.07,207Z" transform="translate(-16 -9.97)"/><path class="cls-39" d="M251.64,17.66a1.76,1.76,0,0,1,.09,2Z" transform="translate(-16 -9.97)"/><path class="cls-28" d="M251.29,14.87c.6.66.25,1.44.3,2.18A4.2,4.2,0,0,1,251.29,14.87Z" transform="translate(-16 -9.97)"/><path class="cls-28" d="M265.91,16c0-.63-.27-1.3.29-1.84l0,1.68A1.43,1.43,0,0,0,265.91,16Z" transform="translate(-16 -9.97)"/><path class="cls-40" d="M151.62,91.33c-3,.59-3.84,2.9-4.26,5.45-.94,5.7.18,11.27,1.24,16.83.66,3.45,1.48,6.87,2.23,10.31l-2.1,8.05a3.06,3.06,0,0,1-2.29.58q-8.48,0-17,0a2.84,2.84,0,0,1-2.28-.57l-.07-2.14c-.87-2.42-.51-4.87-.23-7.33.45-.8,1.27-.66,2-.76a12.1,12.1,0,0,0,6.6-2.76,6.48,6.48,0,0,0,2.21-6.22c-.35-2.16-.9-4.29-1.33-6.43a9.7,9.7,0,0,1,.48-6.43c.46-.91.92-1.89,2.12-2.06.52.49.3,1,.15,1.6a16.66,16.66,0,0,0-.15,9.17,9,9,0,0,1-.29-3,6,6,0,0,0,0-3.13c-.22-2.27,1.06-4.16,1.56-6.25a4.33,4.33,0,0,1,.47-1.52,4.4,4.4,0,0,0,.39-1.26c.57-1.69.28-3.53.88-5.21.71-.53,1.28-.17,1.83.3C146.44,89.43,149.16,90,151.62,91.33Z" transform="translate(-16 -9.97)"/><path class="cls-41" d="M252.32,192.77c.69.06.92.47,1.09,1.11a1.11,1.11,0,0,0,1.83.76,1.18,1.18,0,0,1,1.78.25c.53.58,1,1,.4,1.89s-.18,1.69.9,1.9c.85.17.94.69.93,1.39s0,1.33-1,1.54-1.5,1-.85,1.93c.53.79.21,1.24-.34,1.76s-1,1-1.76.41-1.69-.3-1.93.75-.77,1-1.52,1-1.28-.13-1.5-1c-.27-1.06-1-1.35-2-.72-.7.48-1.17.22-1.62-.33s-1.06-.93-.46-1.76.27-1.72-.73-2-1-.77-1-1.51,0-1.24,1-1.51c1.46-.41,1.29-1.38.43-2.36.71-1.92,1.34-2.25,2.81-1.45a14.1,14.1,0,0,0,1.47-.89C250.49,192.72,251.44,192.8,252.32,192.77Z" transform="translate(-16 -9.97)"/><path class="cls-42" d="M154.94,186.56c2.88-.88,5.7-1.32,8.1,1.15.83,1.52.27,2.76-.78,3.91-1.47,1.59-3.43,2.49-5.23,3.59l-1.42.54c-1.73-.51-.9-2-1.1-3C154.6,190.67,154,188.56,154.94,186.56Z" transform="translate(-16 -9.97)"/><path class="cls-43" d="M127.21,132h21.53l.36,2.09H126.51Z" transform="translate(-16 -9.97)"/><path class="cls-44" d="M252.34,65.16c1.6.28,2.15,1.31,2.14,2.84q0,8.55,0,17.11c0,1.55-.58,2.51-2.15,2.77l-.17-.29c0-7.27,0-14.55,0-21.82A.87.87,0,0,1,252.34,65.16Z" transform="translate(-16 -9.97)"/><path class="cls-45" d="M252.33,91.63a2.2,2.2,0,0,1,2.12,2.46q0,4.16,0,8.33a2,2,0,0,1-1.39,2.14c-.6.28-.91,0-.9-.57C252.25,99.87,251.92,95.74,252.33,91.63Z" transform="translate(-16 -9.97)"/><path class="cls-46" d="M251.93,105.26a1.61,1.61,0,0,0,.07-.33q.15-.24.34,0l0,1a5,5,0,0,1,.11,1.72q0,33.44,0,66.89c0,.61.22,1.27-.21,1.85l-.25.13c-.38-.46-.21-1-.21-1.5q0-34.2,0-68.4A3.11,3.11,0,0,1,251.93,105.26Z" transform="translate(-16 -9.97)"/><path class="cls-47" d="M251.93,105.26q0,19.42,0,38.85,0,15.87,0,31.74a5.79,5.79,0,0,0,.08.68.31.31,0,0,1-.08.29c-.52-.53-.31-1.21-.31-1.82q0-34,0-67.92C251.63,106.47,251.4,105.8,251.93,105.26Z" transform="translate(-16 -9.97)"/><path class="cls-48" d="M252.26,176.4q0-34.28.05-68.55c0-.64,0-1.27.06-1.91.46.49.28,1.1.28,1.66q0,33.76,0,67.52c0,.45-.06.89-.11,1.34,0,0-.1,0-.14,0A.52.52,0,0,1,252.26,176.4Z" transform="translate(-16 -9.97)"/><path class="cls-49" d="M273.48,70.25c0,.62-.22.89-.71.9a7.54,7.54,0,0,1-1.21,0c-1.39-.19-2.08.29-1.86,1.79a4.51,4.51,0,0,1,0,1.21c0,.36-.23.68-.64.69s-.57-.32-.66-.67a.81.81,0,0,1,0-.34c.43-2.25-.54-3-2.71-2.69a.81.81,0,0,1-1-.86.86.86,0,0,1,1-.76c2.56.57,3.07-.7,2.77-2.87a.77.77,0,0,1,.78-.95c.7,0,.55.61.58,1a8.14,8.14,0,0,1,0,1.21c-.13,1.45.44,2.09,1.93,1.7A1.53,1.53,0,0,1,273.48,70.25Z" transform="translate(-16 -9.97)"/><path class="cls-11" d="M288.07,143.48c-.19.71-.84.72-1.39.62-2-.35-2.71.51-2.4,2.45.08.53.13,1.32-.72,1.3s-.75-.82-.66-1.34c.34-2-.49-2.72-2.44-2.41-.55.09-1.3.09-1.34-.7s.76-.66,1.28-.69c2.39-.13,2.39-.11,2.48-2.51,0-.55-.16-1.35.62-1.4,1-.06.77.81.79,1.41.1,2.37.09,2.37,2.5,2.48C287.89,142.75,288.15,142.89,288.07,143.48Z" transform="translate(-16 -9.97)"/><path class="cls-50" d="M238.41,191.08c-.51.57-1.19.34-1.8.34q-28.79,0-57.57,0c-.61,0-1.29.23-1.8-.34a7.53,7.53,0,0,1,3-.5h55.43A4.53,4.53,0,0,1,238.41,191.08Z" transform="translate(-16 -9.97)"/><path class="cls-51" d="M238.41,191.08H177.25a.83.83,0,0,1,.73-.36,3,3,0,0,1,2-.32h56a3.14,3.14,0,0,1,2,.3Z" transform="translate(-16 -9.97)"/><path class="cls-52" d="M238,190.68l-60,0a.81.81,0,0,1,0-.26.11.11,0,0,1,0-.16,4.38,4.38,0,0,1,1.21-.07h57.7a4.73,4.73,0,0,1,1.21.07v.15A1.79,1.79,0,0,1,238,190.68Z" transform="translate(-16 -9.97)"/><path class="cls-17" d="M163.34,132q0,21.54,0,43.07c-.6-.5-.35-1.18-.35-1.78q0-19.74,0-39.49C163,133.19,162.78,132.52,163.34,132Z" transform="translate(-16 -9.97)"/><path class="cls-53" d="M308.95,83.38v1.21c-.33-.81-.95-.93-1.75-.92-9.49,0-19,0-28.47,0-.55,0-1.14-.16-1.45.61-.11.26-.23-.18-.32-.33l0-.62a3.77,3.77,0,0,1,2.19-.35h26.89a12.94,12.94,0,0,1,2.91.31Z" transform="translate(-16 -9.97)"/><path class="cls-54" d="M309,83.3l-32,0,.36-.41a6.51,6.51,0,0,1,2.07-.11H306a5.48,5.48,0,0,1,1.89.11C308.27,83,308.73,82.86,309,83.3Z" transform="translate(-16 -9.97)"/><path class="cls-55" d="M307.9,82.94H277.36c.43-.44,1-.29,1.48-.29h27.58C306.93,82.65,307.48,82.5,307.9,82.94Z" transform="translate(-16 -9.97)"/><path class="cls-56" d="M254.52,29.18a1.85,1.85,0,0,1-1.82-2,1.78,1.78,0,0,1,1.95-1.77,1.74,1.74,0,0,1,1.85,1.85C256.51,28.45,255.79,29.09,254.52,29.18Z" transform="translate(-16 -9.97)"/><path class="cls-16" d="M263.28,29.15a1.69,1.69,0,0,1-1.71-1.85,1.89,1.89,0,1,1,1.71,1.85Z" transform="translate(-16 -9.97)"/><path class="cls-57" d="M252,65.21l-.07-.66a47.36,47.36,0,0,1-.12-6.4c0-5.26-.09-10.53,0-15.79a.14.14,0,0,1,.17,0l.24.11c.28.28.21.64.21,1q0,9.89,0,19.78a1.81,1.81,0,0,1-.11.68l0,1.3a.17.17,0,0,1,0,.21A.22.22,0,0,1,252,65.21Z" transform="translate(-16 -9.97)"/><path class="cls-58" d="M252.37,63.86q0-10.72-.1-21.44c.12-.36.34-.83.37,0,.07,1.68,0,3.36,0,5,0,4.86,0,9.72,0,14.58C252.65,62.65,252.87,63.31,252.37,63.86Z" transform="translate(-16 -9.97)"/><path class="cls-59" d="M285.31,42.67a4,4,0,0,0,2.19.35h17.28v.37H285.63l-.33.06Q285.3,43.06,285.31,42.67Z" transform="translate(-16 -9.97)"/><path class="cls-60" d="M255,67.38V85.32h-.13V67.39Z" transform="translate(-16 -9.97)"/><path class="cls-61" d="M252.34,104.9h-.17l-.17,0q0-6.45,0-12.91a11.54,11.54,0,0,1,0-4.14l0,0a.18.18,0,0,1,.33,0l0,.06q0,1.87,0,3.75c0,3.81,0,7.63,0,11.44,0,.6-.21,1.34.74,1.49Z" transform="translate(-16 -9.97)"/><path class="cls-39" d="M252.22,21.86l12.93,0c-.53.54-1.2.3-1.8.28C259.65,22,255.93,22.41,252.22,21.86Z" transform="translate(-16 -9.97)"/><path class="cls-62" d="M285.32,44.06a11.48,11.48,0,0,1,0,6.25Z" transform="translate(-16 -9.97)"/><path class="cls-63" d="M250.3,193.93c-.12.91-.74,1-1.47.89C249.09,194.14,249.47,193.66,250.3,193.93Z" transform="translate(-16 -9.97)"/><path class="cls-17" d="M163,129.2c.72.73.24,1.62.34,2.44C162.68,130.9,163.13,130,163,129.2Z" transform="translate(-16 -9.97)"/><path class="cls-39" d="M265.16,21.8c.11-.69-.25-1.45.33-2.06C265.48,20.44,265.65,21.18,265.16,21.8Z" transform="translate(-16 -9.97)"/><path class="cls-6" d="M155,192.8c.33,1-.36,2.13.61,3a2.83,2.83,0,0,0-.3,1.84c.15,7.52.24,15,.49,22.55.07,2.07.21,4.15.24,6.23,0,2.26.72,3.22,2.91,4,2.51.84,5,1.62,7.57,2.42-.14,1.6-1.38,2.18-2.61,2.35a33.27,33.27,0,0,1-16.64-2.1c-.26-.1-.45-.36-.69-.52a3.47,3.47,0,0,1,.31-2.68,13.74,13.74,0,0,0,.62-6.14,222.93,222.93,0,0,0-3-22.09,9.08,9.08,0,0,0-.63-2.15c-.24-.6.15-1.07.33-1.59a2.7,2.7,0,0,1,1.84-1.45,42.56,42.56,0,0,0,7.23-3.27C153.78,192.79,154.33,192.34,155,192.8Z" transform="translate(-16 -9.97)"/><path class="cls-64" d="M307.57,221.68l-.36.34a12.58,12.58,0,0,1-1.73,2.58,2,2,0,0,1-3.35-.15c-.28-.36-.47-.79-.78-1.14a2,2,0,0,0-3.14-.11,6.86,6.86,0,0,0-.53.68c-1.61,2.11-2.62,2.09-4.26-.07s-2.36-2.08-4-.1c-.64.76-1.22,1.59-2.4,1.35s-1.68-1.27-1.95-2.38a46.59,46.59,0,0,1-.43-6,29,29,0,0,0,8,.81,9.76,9.76,0,0,1,4.07.08,16.81,16.81,0,0,0,5.66,0,6.84,6.84,0,0,1,3.46-.08l1.74.07Z" transform="translate(-16 -9.97)"/><path class="cls-2" d="M146.72,232.46a43,43,0,0,0,15.37,2.43,5,5,0,0,0,4.42-2.14l.62.07c.59.23,1.19.43,1.75.7a2.67,2.67,0,0,1,1.68,3.08,2.47,2.47,0,0,1-2.62,2.08q-9.54,0-19.08,0a2,2,0,0,1-2.23-2.1c-.06-1.27,0-2.54,0-3.81A.22.22,0,0,1,146.72,232.46Z" transform="translate(-16 -9.97)"/><path class="cls-4" d="M304.82,232.09a11.49,11.49,0,0,1-6.35,5.44,15.84,15.84,0,0,0-1.66.82,1.75,1.75,0,0,1-1.95.09c-1.75-.65-3.63-1.12-4.67-2.91l-1.7-1.71-1.1-1.72a21.19,21.19,0,0,1,3.17-3.46,1.33,1.33,0,0,1,1.62,0,4.54,4.54,0,0,1,1.33,1.34c1.64,2.16,2.58,2.16,4.27,0,1.38-1.78,2.66-1.89,3.83-.06C302.43,231.21,303.67,231.5,304.82,232.09Z" transform="translate(-16 -9.97)"/><path class="cls-65" d="M306.88,227.9a1.11,1.11,0,0,0-.7,1c-.23.34-.32.74-.53,1.09-.95,1.65-2.2,1.77-3.44.35-2.46-2.84-2.46-2.84-4.94,0-1.08,1.25-2.08,1.27-3.19.06l-.22-.27c-2.35-2.87-2.62-2.88-5,0-.6.72-1.24,1.26-2.21.61a10.62,10.62,0,0,1-1.4-5.21c0-.77.52-.46.79-.31,1.39.8,2.26,0,3.11-.94,1.92-2.23,2.84-2.19,4.48.18,1.31,1.89,2.33,1.94,3.77.18a11.55,11.55,0,0,1,.89-1.06c1.08-1,1.74-1,2.82-.05.17.16,0,0,.12.12.85.8,1.27,2.19,2.72,2.18s1.72-1.37,2.48-2.18a.61.61,0,0,1,.76-.21Z" transform="translate(-16 -9.97)"/><path class="cls-66" d="M307.22,223.42c-.7.33-.81,1.09-1.21,1.64-1.26,1.72-2.8,1.77-4.11.1-.07-.09-.13-.19-.2-.28-1.73-2.41-2.14-2.4-3.94.05-1.5,2.05-3.1,2-4.46-.19-1.45-2.32-2.2-2.43-3.68-.25-1.21,1.79-2.67,1.63-4.35,1a6.61,6.61,0,0,1-.24-2.83,15.5,15.5,0,0,0,1,1.39c.87,1,1.76,1,2.58-.09.1-.14.18-.3.28-.44,1.85-2.5,3.14-2.48,4.88.06,1.38,2,2.17,2,3.56,0,1.68-2.41,3.32-2.34,4.88.19,1.06,1.73,2.06,1.76,3.25.09a4.76,4.76,0,0,1,1.72-1.89l.08,1.07Q307.25,223.26,307.22,223.42Z" transform="translate(-16 -9.97)"/><path class="cls-67" d="M286.68,230.73c1.18.16,1.73-.61,2.3-1.45,1.58-2.33,3.17-2.32,4.79,0,.26.38.51.77.81,1.11.73.85,1.48.76,2.18,0a9,9,0,0,0,.61-.84c1.74-2.52,3-2.5,4.82.06,1.35,1.94,2,1.93,3.4-.06a6.24,6.24,0,0,1,.59-.62l-.32,1.83-1,1.37a3.07,3.07,0,0,1-3.39-1.74c-1.15-1.87-2.08-1.83-3.34,0-1.78,2.52-3.21,2.5-5-.08-1.34-2-2.12-2-3.43-.1a6.14,6.14,0,0,1-2.29,2A2.13,2.13,0,0,1,286.68,230.73Z" transform="translate(-16 -9.97)"/><path class="cls-42" d="M142.29,88.25c-.23,1.85-.08,3.75-.82,5.52-.3.4-.43-.53-.73-.08a14.38,14.38,0,0,1-.56,1.93c-.24.68-.54,1.34-.83,2A1,1,0,0,1,139,98c-2.65,2.05-2.72,4.87-2.24,7.8.36,2.16.95,4.28,1.3,6.43.72,4.46-1.07,7.44-5.29,9.09a22,22,0,0,1-5.56,1.13,13,13,0,0,1-10.48-2.2c-.81-.56-1.65-1.07-2.41-1.68a8.41,8.41,0,0,1-2.87-9.92A29,29,0,0,1,120,95.75a15.08,15.08,0,0,0,5.55-12.34,50.78,50.78,0,0,0,.13-5.72,7,7,0,0,1-.32-1.65,9.35,9.35,0,0,1-.16-2.08c1.49-4.59,2.63-9.33,6.23-12.92,3.45-3.44,7.5-4.77,12.17-3.32a12.74,12.74,0,0,1,9.21,9.86c.21.91.59,2-.93,2.29-.32.14-.71.39-1,.19-.94-.68-1.78-.09-2.69,0-1.54.09-1.43.86-1.38,1.85a18,18,0,0,1-1.4,7.21,1.86,1.86,0,0,1-.88,1.22c-.59-.13-.63-.62-.73-1.08a20,20,0,0,1,.2-3.8c.09-.79.16-1.83-.82-2s-1.35.74-1.68,1.48a2.94,2.94,0,0,0,.37,3.4,2,2,0,0,1,.65,1.2C142.6,82.39,142.95,85.33,142.29,88.25Z" transform="translate(-16 -9.97)"/><path class="cls-6" d="M142.29,88.25q-.1-4-.2-7.93a2,2,0,0,0-.72-1.77c-1.56-1.34-.66-5.18,1.27-5.87,1-.34,1.52,0,1.7,1,.3,1.8-.19,3.55-.17,5.33-.24.52,0,1.07-.1,1.6A1.58,1.58,0,0,1,144,81c-.05.13,0,.12,0,0a1.27,1.27,0,0,1,.46-.76,22,22,0,0,0,1.83-10.87c1.31.66,2.52,1.17,3-.9.72.81,1.35,1.62,2.48,1.46-.66,2.26-.38,4.59-.25,6.86A7.83,7.83,0,0,1,145.73,85c-1.81.47-1.38,2.28-1.89,3.53Z" transform="translate(-16 -9.97)"/><path class="cls-10" d="M116.73,120.21a25.72,25.72,0,0,0,10.48,2.2q0,3.71-.07,7.43a55,55,0,0,1-5.5.46c-3-.06-4.46-1.28-4.82-4.26A16,16,0,0,1,116.73,120.21Z" transform="translate(-16 -9.97)"/><path class="cls-68" d="M125.15,74l.65,1.75c-.37.51-.2,1.23-.65,1.72a5.29,5.29,0,0,0-.44,2.63c-.3.72.07,1.52-.27,2.23a19.31,19.31,0,0,1-6.06,12.31,39.22,39.22,0,0,0-5.9,7.45c-.22.35-.41,1.08-.94.76-.68-.4,0-.9.22-1.28A39.67,39.67,0,0,1,118,93.69a18.15,18.15,0,0,0,5.58-12.13A25.32,25.32,0,0,1,125.15,74Z" transform="translate(-16 -9.97)"/><path class="cls-69" d="M125.74,77.42a29.62,29.62,0,0,1-.23,6l-.06-6A.18.18,0,0,1,125.74,77.42Z" transform="translate(-16 -9.97)"/><path class="cls-70" d="M125.74,77.42h-.59a1.53,1.53,0,0,1,.65-1.72Z" transform="translate(-16 -9.97)"/><path class="cls-70" d="M124.44,82.29a4.1,4.1,0,0,1,.27-2.23C124.72,80.82,125,81.61,124.44,82.29Z" transform="translate(-16 -9.97)"/><path class="cls-42" d="M144.53,198c.12.51-.23.73-.59,1a1.55,1.55,0,0,1-1.19.61,45.55,45.55,0,0,1-8.74.68,2.07,2.07,0,0,1-1.57-.58l1-5.84,10.34-3.38a1.81,1.81,0,0,1,.58,1.72C144.34,194.16,144.77,196.09,144.53,198Z" transform="translate(-16 -9.97)"/><path class="cls-10" d="M144.53,198a29.38,29.38,0,0,1-.73-7.55,49.57,49.57,0,0,1,11.14-3.93l.06,6.24a86.25,86.25,0,0,1-9.73,4.36A1,1,0,0,0,144.53,198Z" transform="translate(-16 -9.97)"/><path class="cls-71" d="M147.27,145.93c.48,2.44.9,4.55,1.31,6.66,1.33,6.85,3.37,13.6,3,20.7a12,12,0,0,1-2.17,6.66A7.16,7.16,0,0,1,147,182c-.43-.58-.06-.78.19-1a10,10,0,0,0,3.6-7.6c.38-5.86-1.1-11.48-2.26-17.14-.61-3-1.18-6-1.77-9C146.75,147,146.62,146.63,147.27,145.93Z" transform="translate(-16 -9.97)"/><path class="cls-42" d="M290.18,235.54c2,1.31,4.07,2.7,6.62,2.82,3.35.92,6.41,0,9.4-1.45.54.45,1.78.28,1.63,1.23-.12.75-1.17.8-1.89,1a58.47,58.47,0,0,1-11.7,1.25,111,111,0,0,1-21.62-.94c-1.25-.2-3.33-.14-3.31-1.42s2.14-1.16,3.41-1.37C278.5,235.64,284.34,235.62,290.18,235.54Z" transform="translate(-16 -9.97)"/><path class="cls-72" d="M303.76,96.55a10.4,10.4,0,0,1-7.92,8.81,10.82,10.82,0,0,1-11.38-4,11.06,11.06,0,0,1-2.21-6.78c0-1.62-.06-3.23,0-4.85.06-1.37.44-1.52,1.63-.84-.34,2.44,0,4.88-.14,7,.06.56.42.3.2.38-.06,0-.09,0-.1-.1a5.65,5.65,0,0,1,.12-2.84c.07.51.17,1,.19,1.52.18,4.88,3.55,8.61,8.11,9,4.84.39,8.75-2.67,9.76-7.61a.78.78,0,0,1,.26-.26c.25-2-.61-4.16.48-6.14.08-.14-.38-.39-.43-.69l-.05-.23c.85-.79,1.65-.55,1.67.5.06,2.29.35,4.6-.18,6.88-.49-1.59-.08-3.21-.25-4.81C303.74,93.16,303.32,94.87,303.76,96.55Z" transform="translate(-16 -9.97)"/><path class="cls-73" d="M308.26,112c0-.23,0-.46,0-.69,0-.4-.09-.9.45-1s.66.48.71.94l.91,8.23c.05.48.09,1-.55,1s-.64-.57-.68-1C308.76,117,308.51,114.52,308.26,112Z" transform="translate(-16 -9.97)"/><path class="cls-74" d="M307.55,105.89c.12-.62-.39-1.54.56-1.59.77,0,.65.88.65,1.38,0,1,1,2.61-.36,2.79C307.42,108.61,307.92,106.75,307.55,105.89Z" transform="translate(-16 -9.97)"/><path class="cls-75" d="M284,93.33v3.19h-.5c0-2.46,0-4.91,0-7.37,0-.08.26-.16.4-.24A19.13,19.13,0,0,1,284,93.33Z" transform="translate(-16 -9.97)"/><path class="cls-76" d="M302.32,96.12l-.28.1-.1-.76a30.46,30.46,0,0,1,0-5.84l.33-.71h.15A35.34,35.34,0,0,1,302.32,96.12Z" transform="translate(-16 -9.97)"/><path class="cls-77" d="M302,89.62q0,2.92,0,5.84A12,12,0,0,1,302,89.62Z" transform="translate(-16 -9.97)"/><path class="cls-78" d="M303.76,96.55c-.76-1.82-.16-3.69,0-5.55q0,2.64,0,5.28A.27.27,0,0,1,303.76,96.55Z" transform="translate(-16 -9.97)"/><path class="cls-38" d="M165.84,140.25c0-3.7,0-7.4-.09-11.11a1.77,1.77,0,0,1,1.16-1.87,100.51,100.51,0,0,0,14.24-8.58,12.39,12.39,0,0,1,3.86-1.41,23.46,23.46,0,0,0,2.61-.92c2.78-1.2,3.2-2.56,1.62-5.13-1.21-2-1.21-2,.77-3.12.45-.26.91-.5,1.37-.75s1.12-.57.68-1.3-.9-.29-1.37-.07l-4.84,2.21c-.23-.44.1-.61.21-.85.26-.55.43-1.22,0-1.61s-.92.24-1.34.49c-2.35,1.39-4.67,2.81-5.35,5.78-.16.68-.85.92-1.4,1.21-3.52,1.89-7.26,3.28-10.92,4.88-.77.33-1.26.44-1.26-.73q.08-23.25.1-46.51a1.7,1.7,0,0,1,.57-.39,8.45,8.45,0,0,1,2.59-.19q38.92,0,77.84,0c1.15,0,2.49-.39,3.33.89,0,7,.06,14.1.06,21.14q0,22.36,0,44.73c0,.52,0,1-.07,1.55-.94.81-2.09.56-3.16.56q-38.33,0-76.66,0C168.74,139.14,167.17,139.16,165.84,140.25Z" transform="translate(-16 -9.97)"/><path class="cls-79" d="M250.18,71.17a3.9,3.9,0,0,0-2.36-.34H166.12A3.73,3.73,0,0,1,166,69q0-12.2,0-24.4a4.35,4.35,0,0,0-.14-1.88,13.66,13.66,0,0,1,11.1-12.1c5.2-.35,10.4-.24,15.6-.08,1,.44.65,1.34.73,2.1a6.16,6.16,0,0,0,4.83,4.21,1.11,1.11,0,0,0,.55.2c6.11-.07,12.22,0,18.33-.05a1.79,1.79,0,0,0,.47-.21.46.46,0,0,1,.48,0c3.19-.66,4.66-2.87,5.27-5.85a2.05,2.05,0,0,1,1.61-.48c4.54,0,9.09-.17,13.63.14a13.68,13.68,0,0,1,11.76,13.22C250.31,52.88,250.19,62,250.18,71.17Z" transform="translate(-16 -9.97)"/><path class="cls-79" d="M165.84,140.25c.21-1.5,1.12-1.69,2.5-1.68q40.92.07,81.83,0l0,30.32a5.32,5.32,0,0,1-2.22.26H167.82a4.55,4.55,0,0,1-2.05-.21.13.13,0,0,1-.07-.17q0-11.07.09-22.14C165.79,144.51,165.82,142.38,165.84,140.25Z" transform="translate(-16 -9.97)"/><path class="cls-79" d="M166.12,169.91c.58,0,1.15-.07,1.73-.07q40.21,0,80.43,0c1.57,0,2,.37,2,2-.07,3.14,0,6.26-1.59,9.13a13.47,13.47,0,0,1-9.92,7.37,26.27,26.27,0,0,1-4.3.18H182.07a35.52,35.52,0,0,1-4.82-.16,13.62,13.62,0,0,1-11.44-12.16C165.69,174,165.23,171.94,166.12,169.91Z" transform="translate(-16 -9.97)"/><path class="cls-6" d="M165.76,169c.46,0,.92-.07,1.38-.07h82.46c.17,0,.35,0,.52,0l-.28.3a4.19,4.19,0,0,1-1.72.13H167.53a3.9,3.9,0,0,1-1.71-.13A.29.29,0,0,1,165.76,169Z" transform="translate(-16 -9.97)"/><path class="cls-80" d="M165.82,169.21c4.63,0,9.26,0,13.89,0h68.24c.64,0,1.27,0,1.91.05-.54.51-1.21.28-1.82.28q-40.2,0-80.39,0C167,169.5,166.35,169.73,165.82,169.21Z" transform="translate(-16 -9.97)"/><path class="cls-81" d="M238.29,188.58c.18.07.58.16.38.34s-.66.08-1,.08H177.72c-.26,0-.52,0-.82,0,.22-.42.56-.25.8-.35a3.22,3.22,0,0,1,2-.29h56.54A3.36,3.36,0,0,1,238.29,188.58Z" transform="translate(-16 -9.97)"/><path class="cls-82" d="M177.25,188.28c.52-.54,1.2-.32,1.81-.32q28.94,0,57.88,0c.61,0,1.28-.22,1.82.3l-.13.08h-.15a3,3,0,0,1-1.37.13H178.89a3.46,3.46,0,0,1-1.37-.11h-.15Z" transform="translate(-16 -9.97)"/><path class="cls-83" d="M177.51,188.35c1,0,2-.05,2.94-.05l57.49,0a3.86,3.86,0,0,1,.51.07l-.18.24q-20.75,0-41.49.06c-6.37,0-12.73,0-19.1,0A1.86,1.86,0,0,1,177.51,188.35Z" transform="translate(-16 -9.97)"/><path class="cls-84" d="M238.06,190.28c-.69,0-1.39.09-2.08.09H179.85c-.64,0-1.27-.06-1.91-.09.57-.43,1.23-.25,1.85-.25h56.41C236.83,190,237.49,189.86,238.06,190.28Z" transform="translate(-16 -9.97)"/><path class="cls-85" d="M165.09,128.25c.44,0,.37.35.37.61q0,20,0,39.91c-.74-.18-.36-.78-.36-1.15Q165.07,147.94,165.09,128.25Z" transform="translate(-16 -9.97)"/><path class="cls-86" d="M250.93,104.54v34.33h-.33V104.53C250.71,104.38,250.82,104.38,250.93,104.54Z" transform="translate(-16 -9.97)"/><path class="cls-87" d="M250.93,104.54h-.33q0-16.47,0-32.95h.33Z" transform="translate(-16 -9.97)"/><path class="cls-88" d="M165.81,42.68c.55.59.3,1.32.3,2q0,13.08,0,26.16l-.27,0q0-12.4-.06-24.81c0-.75-.06-1.5-.09-2.24Z" transform="translate(-16 -9.97)"/><path class="cls-89" d="M252.29,87.82l-.33,0q0-11.32,0-22.64l.33.16Q252.31,76.59,252.29,87.82Z" transform="translate(-16 -9.97)"/><path class="cls-47" d="M251.86,42.35q0,11.1.07,22.19c-.36-.3-.31-.72-.31-1.12q0-10,0-20.09A4.41,4.41,0,0,1,251.86,42.35Z" transform="translate(-16 -9.97)"/><path class="cls-90" d="M193.24,32.59c-.65-.57-.17-1.5-.68-2.11l-.32,0q-6.25,0-12.49,0a3.29,3.29,0,0,1-2-.27c-.78-.32-.56-.42.09-.42h8.11c1.84,0,3.68,0,5.52,0,.68,0,1.52-.36,1.84.41S194.18,31.83,193.24,32.59Z" transform="translate(-16 -9.97)"/><path class="cls-91" d="M217.9,36.71a.52.52,0,0,1-.3.11,2.54,2.54,0,0,1-1.5.29q-8,0-16,0c-.56,0-1.17.13-1.6-.42a1.49,1.49,0,0,1,1.14-.27h17.16A1.4,1.4,0,0,1,217.9,36.71Z" transform="translate(-16 -9.97)"/><path class="cls-92" d="M198.45,36.69l17.42.08c.57,0,1.15,0,1.72.05l-.08.26a1,1,0,0,1-.64.2h-18c-.29,0-.58,0-.78-.25l0-.23Z" transform="translate(-16 -9.97)"/><path class="cls-93" d="M223.17,30.18c-.14-.18-.06-.35.12-.35h15.5c-.24.46-.57.3-.82.39a1.31,1.31,0,0,1-.81.28c-4.34,0-8.68,0-13,0A1.43,1.43,0,0,1,223.17,30.18Z" transform="translate(-16 -9.97)"/><path class="cls-94" d="M192.56,30.48c-.07.26.06.78-.26.72-4.62-.83-9.28-.1-13.91-.35-.51,0-1,.14-1.48-.28l.62-.11c5-.22,10-.19,15.07,0Z" transform="translate(-16 -9.97)"/><path class="cls-95" d="M238.41,30.52c-.51.56-1.19.33-1.79.33-4.48,0-9,0-13.45,0a.3.3,0,0,1,0-.33,21.8,21.8,0,0,1,5.14-.17c3.28,0,6.56-.17,9.83.09A.22.22,0,0,1,238.41,30.52Z" transform="translate(-16 -9.97)"/><path class="cls-96" d="M192.59,30.45l-15.07,0,.19-.24,14-.06C192,30.17,192.39,30,192.59,30.45Z" transform="translate(-16 -9.97)"/><path class="cls-97" d="M238.15,30.45l-15,.07v-.34l14.8,0Z" transform="translate(-16 -9.97)"/><path class="cls-98" d="M165.49,176c-.11.11-.31.7-.34.2-.12-2.1,0-4.21,0-6.32,0,0,.08-.08.12-.08a.47.47,0,0,1,.16.05A12.57,12.57,0,0,1,165.49,176Z" transform="translate(-16 -9.97)"/><path class="cls-99" d="M166.12,169.91c-.18,2.06.4,4.17-.31,6.2l-.07,0a26,26,0,0,1,.05-6.27Z" transform="translate(-16 -9.97)"/><path class="cls-100" d="M165.79,169.89l-.05,6.27-.25-.13q0-3.07-.05-6.15Z" transform="translate(-16 -9.97)"/><path class="cls-101" d="M251.94,87.88,252,92A5.62,5.62,0,0,1,251.94,87.88Z" transform="translate(-16 -9.97)"/><path class="cls-102" d="M304.16,176.88c.43-1.88.47-3.85,1.33-5.62h0a26,26,0,0,1-1,6.28C304.19,177.41,304.35,177.06,304.16,176.88Z" transform="translate(-16 -9.97)"/><path class="cls-103" d="M300.32,205.82c-.07-.4,0-.85-.32-1.16a17.86,17.86,0,0,1,.57-3.61c.33.17.15.55.33.78A24.27,24.27,0,0,1,300.32,205.82Z" transform="translate(-16 -9.97)"/><path class="cls-104" d="M303.72,182.39a17.56,17.56,0,0,1-.63,3.51c-.23,0-.22-.24-.33-.36a11.23,11.23,0,0,1,.6-3.17C303.49,182.22,303.61,182.21,303.72,182.39Z" transform="translate(-16 -9.97)"/><path class="cls-105" d="M300.9,201.83l-.33-.78.18-2.45C301.57,199.71,300.87,200.76,300.9,201.83Z" transform="translate(-16 -9.97)"/><path class="cls-106" d="M301.38,194.9l.35-2.44a.2.2,0,0,1,.32,0,4.89,4.89,0,0,1-.35,2.44Q301.54,195.15,301.38,194.9Z" transform="translate(-16 -9.97)"/><path class="cls-107" d="M302.05,192.47h-.32l.37-2.43a.17.17,0,0,1,.28,0A4.35,4.35,0,0,1,302.05,192.47Z" transform="translate(-16 -9.97)"/><path class="cls-108" d="M302.76,185.54l.33.36c-.1.69.15,1.44-.37,2.05-.1.16-.2.17-.31,0Z" transform="translate(-16 -9.97)"/><path class="cls-109" d="M304.16,176.88l.31.66c-.09.58.13,1.22-.34,1.72q-.17.24-.33,0Z" transform="translate(-16 -9.97)"/><path class="cls-110" d="M305.49,171.26a4.18,4.18,0,0,1,.58-2.6,4,4,0,0,1-.57,2.61Z" transform="translate(-16 -9.97)"/><path class="cls-111" d="M302.41,188h.31c0,.71.14,1.45-.35,2.08h-.28Z" transform="translate(-16 -9.97)"/><path class="cls-112" d="M303.81,179.26h.33c-.11.71.16,1.48-.36,2.12-.28-.16-.14-.48-.26-.7Z" transform="translate(-16 -9.97)"/><path class="cls-113" d="M301.6,196.6c0,.37.12,1.06-.35.91s-.28-.84,0-1.29C301.48,196.24,301.5,196.46,301.6,196.6Z" transform="translate(-16 -9.97)"/><path class="cls-114" d="M301.6,196.6l-.36-.38.14-1.31h.32Z" transform="translate(-16 -9.97)"/><path class="cls-115" d="M303.52,180.69l.26.7-.05,1h-.36Z" transform="translate(-16 -9.97)"/><path class="cls-38" d="M272.44,183.34a7,7,0,0,1,7,7.1,7.12,7.12,0,1,1-14.23-.26A7,7,0,0,1,272.44,183.34Z" transform="translate(-16 -9.97)"/><path class="cls-116" d="M304.86,205.79l-.4-.46,1.34-2.15c.23,0,.26.24.35.4Z" transform="translate(-16 -9.97)"/><path class="cls-117" d="M306.63,201.87l1.34-2.08c.3-.06.49,0,.33.36l-1.38,2.12C306.69,202.22,306.67,202,306.63,201.87Z" transform="translate(-16 -9.97)"/><path class="cls-118" d="M310.68,196.27a2.12,2.12,0,0,1-1.35,1.78,2.47,2.47,0,0,1,1.18-1.76Z" transform="translate(-16 -9.97)"/><path class="cls-119" d="M308.29,200.14l-.33-.36c.26-.52.44-1.12,1.23-1.37A2.65,2.65,0,0,1,308.29,200.14Z" transform="translate(-16 -9.97)"/><path class="cls-120" d="M313.15,192.82a2.39,2.39,0,0,1-1.28,1.65c0-.84.61-1.21,1-1.66Z" transform="translate(-16 -9.97)"/><path class="cls-121" d="M306.63,201.87l.29.39-.77,1.31-.35-.4Z" transform="translate(-16 -9.97)"/><path class="cls-122" d="M316.82,187.79a2.08,2.08,0,0,1,1.06-1.52C317.9,187,317.46,187.26,316.82,187.79Z" transform="translate(-16 -9.97)"/><path class="cls-123" d="M313.53,191.78a3.16,3.16,0,0,1,1.19-1.32c.07.72-.42,1-.72,1.34A.28.28,0,0,1,313.53,191.78Z" transform="translate(-16 -9.97)"/><path class="cls-124" d="M310.68,196.27l-.09,0-.08,0c0-.5.37-.73.74-1.09A.83.83,0,0,1,310.68,196.27Z" transform="translate(-16 -9.97)"/><path class="cls-125" d="M313.53,191.78l.46,0c-.22.39-.36.85-.85,1h-.24C312.92,192.35,313.3,192.11,313.53,191.78Z" transform="translate(-16 -9.97)"/><path class="cls-126" d="M318.7,185.93c-.53-.23-.49-.39-.38-.51a4.21,4.21,0,0,1,.51-.4,1.19,1.19,0,0,1,.06.41A3.12,3.12,0,0,1,318.7,185.93Z" transform="translate(-16 -9.97)"/><path class="cls-127" d="M300,211.06a.23.23,0,0,0-.08-.2l0-1,.13-.34A1.15,1.15,0,0,1,300,211.06Z" transform="translate(-16 -9.97)"/><path class="cls-128" d="M316.46,188.1a.7.7,0,0,1-.6.88C315.71,188.37,316.26,188.35,316.46,188.1Z" transform="translate(-16 -9.97)"/><path class="cls-129" d="M291.87,190.79l2.06,6.3-.48.16-1.88-6.16C291.4,190.74,291.57,190.7,291.87,190.79Z" transform="translate(-16 -9.97)"/><path class="cls-130" d="M291.87,190.79l-.31.31a25.89,25.89,0,0,1-1.74-4.89c.13-.15.24-.13.36,0Z" transform="translate(-16 -9.97)"/><path class="cls-131" d="M294.66,201.17a5.93,5.93,0,0,1-.71-3,6.89,6.89,0,0,1,1.08,3Q294.84,201.4,294.66,201.17Z" transform="translate(-16 -9.97)"/><path class="cls-132" d="M290.18,186.22l-.36,0a8.38,8.38,0,0,1-1.27-3.1A8.3,8.3,0,0,1,290.18,186.22Z" transform="translate(-16 -9.97)"/><path class="cls-133" d="M295.65,203.61l.42,2.06c-.11.16-.22.15-.33,0a2.63,2.63,0,0,1-.37-1.68C295.2,203.68,295.35,203.59,295.65,203.61Z" transform="translate(-16 -9.97)"/><path class="cls-134" d="M295.75,205.67h.33l.33,1.39c-.11.17-.22.17-.33,0A2,2,0,0,1,295.75,205.67Z" transform="translate(-16 -9.97)"/><path class="cls-135" d="M294.66,201.17H295l.31,1.38c-.1.16-.2.17-.31,0C294.63,202.17,294.71,201.65,294.66,201.17Z" transform="translate(-16 -9.97)"/><path class="cls-136" d="M295,202.56h.31l.31,1.07-.27.38A2,2,0,0,1,295,202.56Z" transform="translate(-16 -9.97)"/><path class="cls-137" d="M296.07,207.07h.33l.11.93-.09.89A2.88,2.88,0,0,1,296.07,207.07Z" transform="translate(-16 -9.97)"/><path class="cls-138" d="M303.78,47.49a1.3,1.3,0,0,1,0,2,1.48,1.48,0,0,1-2,.21c-1.22-1-1.22-1.48,0-2.49l.22.06C302.63,47.2,303.18,47.53,303.78,47.49Z" transform="translate(-16 -9.97)"/><path class="cls-139" d="M290.53,48.45c-.07-.73.06-1.21,1-1.22s1.2.33,1.19,1.21-.26,1.12-1.1,1.12S290.41,49.26,290.53,48.45Z" transform="translate(-16 -9.97)"/><path class="cls-140" d="M289.2,48.33c.09.84-.16,1.23-1,1.22s-1.11-.48-1.12-1.29.4-1,1.15-1S289.32,47.66,289.2,48.33Z" transform="translate(-16 -9.97)"/><path class="cls-141" d="M301.81,47.18a1.71,1.71,0,0,0,0,2.49c-.73.62-1.3.19-1.77-.35a1.3,1.3,0,0,1,0-1.75C300.51,47,301.07,46.59,301.81,47.18Z" transform="translate(-16 -9.97)"/><path class="cls-142" d="M303.78,47.49c-.69.67-1.18,0-1.74-.25A1.11,1.11,0,0,1,303.78,47.49Z" transform="translate(-16 -9.97)"/><path class="cls-143" d="M296.71,217.53l-4.07-.08a28.73,28.73,0,0,1,9,.08Z" transform="translate(-16 -9.97)"/><path class="cls-143" d="M305.83,217.46l-3.46.08A3.72,3.72,0,0,1,305.83,217.46Z" transform="translate(-16 -9.97)"/><path class="cls-144" d="M256.43,14.54c0-.37-.57-.77.07-1.1,1.5-.08,3-.43,4.48.18-.1,3.27-.1,3.27-3.32,3.28l-1,0C256,16.17,256.36,15.34,256.43,14.54Z" transform="translate(-16 -9.97)"/><path class="cls-145" d="M256.58,17.67l1.19,0c3.28,0,3.28,0,3.14,3.4-1.22.44-2.49.11-3.73.2-.55,0-.9-.19-.85-.78C256.42,19.56,256.05,18.57,256.58,17.67Z" transform="translate(-16 -9.97)"/><path class="cls-146" d="M252,15.42c.41-.67-.74-1.32,0-2,1.27-.07,2.55-.42,3.78.21a1.2,1.2,0,0,0,0,.17c-.13,3.18-.13,3.18-3.37,3.07C251.93,16.46,252.29,15.86,252,15.42Z" transform="translate(-16 -9.97)"/><path class="cls-147" d="M265.2,16.25c-.79,1.19-2,.67-3,.52s-.4-1.23-.5-1.89a7.38,7.38,0,0,1,0-1.36,6.26,6.26,0,0,1,3.73.06l0,.83C265.17,15,265.53,15.67,265.2,16.25Z" transform="translate(-16 -9.97)"/><path class="cls-148" d="M261.77,21.1c0-.52,0-1,0-1.56,0-1.75.94-2.43,2.58-1.82,1.07.39.26,1.31.49,1.95C264.47,21.52,264.34,21.58,261.77,21.1Z" transform="translate(-16 -9.97)"/><path class="cls-149" d="M252.69,18c2.29-.94,3.05-.5,3,1.74,0,.46,0,.91-.05,1.37-1,.17-2.11.66-3-.42l0-.93a2.17,2.17,0,0,0,1.81-1.07C254,18.17,253.14,18.63,252.69,18Z" transform="translate(-16 -9.97)"/><path class="cls-39" d="M252.7,20.68c.89.84,2,.31,3,.42.76-.4.37-1.12.47-1.7s-.27-1.3.44-1.73c-.24,3.48-.24,3.48,3.13,3.45l1.2,0h.87c1.22,0,2.76.62,3-1.43.3,1.47-.34,1.88-1.77,1.83-3-.1-6,0-8.95,0C253.51,21.46,252.73,21.7,252.7,20.68Z" transform="translate(-16 -9.97)"/><path class="cls-150" d="M252.69,18a8.81,8.81,0,0,1,1,0c.54.07,1.19-.26,1.58.3.25.35,0,.68-.36.81-.71.28-1.13,1.59-2.2.64A1.27,1.27,0,0,1,252.69,18Z" transform="translate(-16 -9.97)"/><path class="cls-28" d="M261,13.62l-4.48-.18C258,13.08,259.52,12.69,261,13.62Z" transform="translate(-16 -9.97)"/><path class="cls-28" d="M265.5,13.58l-3.73-.06A3.76,3.76,0,0,1,265.5,13.58Z" transform="translate(-16 -9.97)"/><path class="cls-28" d="M255.76,13.63c-1.24-.36-2.52,0-3.78-.21C253.27,13.07,254.55,12.7,255.76,13.63Z" transform="translate(-16 -9.97)"/><path class="cls-28" d="M256.43,14.54l.18,2.39C255.78,16.19,256.05,15.37,256.43,14.54Z" transform="translate(-16 -9.97)"/><path class="cls-28" d="M252,15.42c.35.43.24,1,.35,1.45C251.54,16.56,252.19,15.89,252,15.42Z" transform="translate(-16 -9.97)"/><path class="cls-28" d="M265.2,16.25a3.36,3.36,0,0,1,.28-1.84C265.46,15,265.75,15.71,265.2,16.25Z" transform="translate(-16 -9.97)"/><path class="cls-151" d="M139,98v-.38A7.27,7.27,0,0,0,139.9,96a.4.4,0,0,1,.36-.24c.27,0,.34.29.47.47-.46,2.12-1.77,4-1.7,6.27a10.35,10.35,0,0,1,0,3.12,12.7,12.7,0,0,0,.6,3.74c.08.35.34.88-.21,1s-.59-.43-.69-.8A17.38,17.38,0,0,1,138.8,99,6.73,6.73,0,0,0,139,98Z" transform="translate(-16 -9.97)"/><path class="cls-152" d="M139,105.58a6.1,6.1,0,0,1,0-3.12A3.19,3.19,0,0,1,139,105.58Z" transform="translate(-16 -9.97)"/><path class="cls-151" d="M140.41,93.43c0-.43-.12-.94.47-1.15.46.4,0,1.17.58,1.49a1.49,1.49,0,0,1-.33,1.14,1.05,1.05,0,0,1-.53-.67C140.54,94,140.67,93.66,140.41,93.43Z" transform="translate(-16 -9.97)"/><path class="cls-42" d="M140.76,94.11c.31.18.34.49.38.8-.4.34-.2.87-.41,1.28l-.34-.38A1.19,1.19,0,0,1,140.76,94.11Z" transform="translate(-16 -9.97)"/><path class="cls-153" d="M255.82,200.36a3.95,3.95,0,0,1-7.89-.36,4,4,0,0,1,4.15-3.76A3.87,3.87,0,0,1,255.82,200.36Z" transform="translate(-16 -9.97)"/><path class="cls-154" d="M255.61,27.3c-.15.64-.53,1-1.11,1a.89.89,0,0,1-.81-1.12.85.85,0,0,1,1-.79A1,1,0,0,1,255.61,27.3Z" transform="translate(-16 -9.97)"/><path class="cls-155" d="M263.46,28.31a1.06,1.06,0,0,1-1-1,1,1,0,0,1,2,0C264.44,27.86,264,28.17,263.46,28.31Z" transform="translate(-16 -9.97)"/><path class="cls-156" d="M140.76,94.11a3,3,0,0,0-.37,1.7l-.31,0a.6.6,0,0,1-.31-.3l.65-2.13C140.71,93.57,140.74,93.83,140.76,94.11Z" transform="translate(-16 -9.97)"/><path class="cls-157" d="M139.76,95.56l.31.3c-.22.66-.26,1.42-1.06,1.73C139,96.8,139.65,96.29,139.76,95.56Z" transform="translate(-16 -9.97)"/><path class="cls-158" d="M144.49,80.17l-.31,1c-.32.1-.46,0-.37-.34l.37-1.81C144.28,79.42,144.15,79.86,144.49,80.17Z" transform="translate(-16 -9.97)"/><path class="cls-159" d="M143.8,80.86l.37.34a1.14,1.14,0,0,1-.49.87A1,1,0,0,1,143.8,80.86Z" transform="translate(-16 -9.97)"/><path class="cls-160" d="M302.32,96.12l.13-7.21c.25.46.73.65,1.43,1.09-1,0-1.22.41-1.18,1.13.09,1.64.1,3.29.14,4.94,0,.25.16.62-.34.5C302.41,96.55,302.38,96.28,302.32,96.12Z" transform="translate(-16 -9.97)"/><path class="cls-161" d="M230.75,126.78a279.93,279.93,0,0,1-45.48.26l-.06-.45c.38-.12.76-.26,1.15-.34a9.42,9.42,0,0,1,1.2-.15c5.88-.48,11.77-.35,17.66-.36s11.58-.12,17.35.07A28,28,0,0,1,230.75,126.78Z" transform="translate(-16 -9.97)"/><path class="cls-9" d="M238.53,79.83c1,.87,2.35.32,3.71,0A2,2,0,0,1,244.36,81a2.27,2.27,0,0,1-.27,2.74c-1,1.18-2.14,2.26-3.21,3.39-.39.41-.74.48-1.16,0-1.11-1.17-2.29-2.28-3.36-3.49a2.41,2.41,0,0,1,2.16-3.88Z" transform="translate(-16 -9.97)"/><path class="cls-162" d="M217.24,132.58l.17-.58c2.32-1.08,3.14-.83,4.43,1.36a2.6,2.6,0,0,1-1.78,3.16c-1.53.56-2.5-.4-3.33-1.51C216.75,134.17,216.42,133.25,217.24,132.58Z" transform="translate(-16 -9.97)"/><path class="cls-162" d="M194.6,135.7l-.68-.84a3.36,3.36,0,0,1,.9-2.82c1.42-1.22,3.35-.62,4.24,1.29a3.94,3.94,0,0,1,0,1.43Q197.46,138.07,194.6,135.7Z" transform="translate(-16 -9.97)"/><path class="cls-163" d="M210.85,134.2a3,3,0,0,1-3.06,2.69,2.79,2.79,0,0,1-2.74-3.11,2.94,2.94,0,0,1,3.27-2.63A3.12,3.12,0,0,1,210.85,134.2Z" transform="translate(-16 -9.97)"/><path class="cls-164" d="M198.84,133.36a2.24,2.24,0,0,0-2.64-1.66,2.2,2.2,0,0,0-2,2.41,2.37,2.37,0,0,1-.31.75,2.59,2.59,0,0,1,1.49-3.47c1.53-.63,2.88-.06,3.77,1.6C199.32,133.36,199.16,133.43,198.84,133.36Z" transform="translate(-16 -9.97)"/><path class="cls-163" d="M216.93,135.1c.91.74,1.71,1.79,3.12,1.18a2.62,2.62,0,0,0,1.64-2.89.23.23,0,0,1,.36,0c.23,1.62-.31,2.89-1.92,3.36a2.74,2.74,0,0,1-3.52-1.63C216.71,135,216.82,134.95,216.93,135.1Z" transform="translate(-16 -9.97)"/><path class="cls-164" d="M194.6,135.7c2.3,1.16,3,1,4.22-.91.32-.07.49,0,.35.36C198,137.32,195.89,137.57,194.6,135.7Z" transform="translate(-16 -9.97)"/><path class="cls-163" d="M222.05,133.38h-.36c-1-1.92-2.52-2-4.29-1.39C219.31,130.47,221.07,131,222.05,133.38Z" transform="translate(-16 -9.97)"/><path class="cls-165" d="M199.17,135.15l-.35-.36q0-.72,0-1.43l.35-.36A1.77,1.77,0,0,1,199.17,135.15Z" transform="translate(-16 -9.97)"/><path class="cls-166" d="M216.93,135.1h-.31c0-.91-.62-1.94.63-2.53A4.18,4.18,0,0,0,216.93,135.1Z" transform="translate(-16 -9.97)"/><path class="cls-42" d="M228,48.86q-19.52,0-39,.06c-.92,0-1.41-.17-1.29-1.22.09-.74.06-1.5.08-2.25a3,3,0,0,1,2.14-.49q17.84,0,35.69,0c2.51,0,3,.8,2.22,3.24a2.09,2.09,0,0,1-1.35.19q-18.23,0-36.47,0c-.26,0-.58.2-.71,0h38.45Q228.07,48.48,228,48.86Z" transform="translate(-16 -9.97)"/><path class="cls-153" d="M181.07,46.86a5.66,5.66,0,0,1-5.86,5.89,5.91,5.91,0,0,1-6-5.88c0-3,2.91-6,5.83-5.93A6,6,0,0,1,181.07,46.86Z" transform="translate(-16 -9.97)"/><path class="cls-167" d="M174.47,61h12.11c2.1,0,3.22.89,3.2,2.51S188.67,66,186.53,66c-3.52,0-7,0-10.55,0-1.36,0-2.56-.23-3.08-1.68s.23-2.42,1.3-3.24C174.25,61,174.34,61,174.47,61Z" transform="translate(-16 -9.97)"/><path class="cls-168" d="M171,67.58h73.81v.26H171Z" transform="translate(-16 -9.97)"/><path class="cls-169" d="M227.29,50c1.61.1,3.23-.21,4.83.19.19,0,.34.24.52.37-.52.72-1.22.47-1.81.47Q208,51,185.22,51c-.17,0-.35,0-.52,0-.49,0-1.27.14-1.26-.53s.79-.49,1.28-.5c1.21,0,2.43,0,3.64,0a2.31,2.31,0,0,1,1.35-.16h36.22A2.31,2.31,0,0,1,227.29,50Z" transform="translate(-16 -9.97)"/><path class="cls-170" d="M188,44.7c.61-.51,1.33-.28,2-.28q18.19,0,36.39,0c2.27,0,2.31,0,2.25,2.22,0,.76.38,1.63-.39,2.27a5.74,5.74,0,0,1-.28-2.56c0-.88-.39-1.26-1.26-1.24-.46,0-.92,0-1.39,0q-17.59,0-35.19,0C189.44,45.09,188.64,45.34,188,44.7Z" transform="translate(-16 -9.97)"/><path class="cls-171" d="M188,44.7l37.59.05c2.74,0,2.74,0,2.72,2.76,0,.46,0,.92-.06,1.38a.56.56,0,0,1-.32,0l0-.29c0-.23,0,.06,0-.17-.19-3.13-.19-3.13-3.43-3.13H189.58a4.13,4.13,0,0,1-1.88-.15C187.66,44.87,187.83,44.78,188,44.7Z" transform="translate(-16 -9.97)"/><path class="cls-172" d="M187.7,45.12c12.76,0,25.53,0,38.29-.06,1.75,0,2.26.54,2,2.13a13.57,13.57,0,0,0-.08,1.38h-.27q-.19-.11-.13-.22c0-.07.08-.11.12-.11a5.64,5.64,0,0,1,0-.87c.24-1.52-.36-2-1.9-1.94-12.68.06-25.36,0-38,0A.28.28,0,0,1,187.7,45.12Z" transform="translate(-16 -9.97)"/><path class="cls-173" d="M227.29,50H188.37c.51-.57,1.19-.34,1.8-.34q17.67,0,35.33,0C226.1,49.64,226.78,49.4,227.29,50Z" transform="translate(-16 -9.97)"/><path class="cls-174" d="M198.11,37l19.41.05c.12.69-.43.36-.64.36q-8.77,0-17.54,0C198.88,37.46,198.39,37.55,198.11,37Z" transform="translate(-16 -9.97)"/><path class="cls-175" d="M174.47,61l-.12.09h-.15c-.41-.82.31-.71.66-.71,4.15,0,8.29,0,12.44.32-3.61,0-7.22,0-10.83,0C175.8,60.76,175.07,60.51,174.47,61Z" transform="translate(-16 -9.97)"/><path class="cls-176" d="M174.9,66.41h10.32v.17H174.89Z" transform="translate(-16 -9.97)"/><path class="cls-176" d="M186.2,66.49c.38-.26,1-.25,1-.09.13.45-.33.18-.53.23S186.39,66.55,186.2,66.49Z" transform="translate(-16 -9.97)"/><path class="cls-177" d="M181.07,149.69c-2.43,0-4.86,0-7.29,0-1,0-1.43-.21-1.46-1.34-.15-4.95-.19-4.95,4.79-4.95,3.71,0,7.41.06,11.12,0,1.38,0,1.92.28,1.9,1.8-.06,4.5,0,4.5-4.53,4.5Z" transform="translate(-16 -9.97)"/><path class="cls-178" d="M197.07,144.5c-.23-1.44.83-1.09,1.56-1.09q10.77,0,21.54,0c4.92,0,9.84.05,14.76.08.3.66.25,1.13-.62,1.18-.23,0-.46,0-.69,0H198.25A1.91,1.91,0,0,1,197.07,144.5Z" transform="translate(-16 -9.97)"/><path class="cls-179" d="M197.06,148.33c.47-.63,1.17-.24,1.75-.38,4.29-.32,8.6-.08,12.89-.13a20,20,0,0,1,4.45.13c.52.86.81,1.75-.65,1.76-6,0-11.93,0-17.9,0-.2,0-.39-.2-.58-.31a1.8,1.8,0,0,1,.84-.45c5.59-.15,11.17,0,16.74-.07,0,0,.09-.08.09-.08h-.16q-7.61,0-15.18,0A3.11,3.11,0,0,1,197.06,148.33Z" transform="translate(-16 -9.97)"/><path class="cls-180" d="M197.07,144.5q18.07,0,36.14,0c.72,0,1.77.38,1.72-1,.47.74.53,1.3-.59,1.35h-.87q-17.4,0-34.81,0C198.14,144.83,197.51,145.08,197.07,144.5Z" transform="translate(-16 -9.97)"/><path class="cls-181" d="M234.21,143h-36v-.13h36Z" transform="translate(-16 -9.97)"/><path class="cls-182" d="M223.21,159.4a1.55,1.55,0,0,1,1.51,1.72c0,1.24-1.13,1.48-1.8,2.08-.34.31-2-1.22-2-1.76,0-.14.13-.38.22-.39.65-.09.56.6.87.87s.64-.09.94-.22c.5-.45.28-.84-.1-1.22-.21-.2-.28-.53-.6-.62-1.34-.33-1.72-1.27-1-2.33.51-.8,1.37-1.68,2.53-.62.38.35,1,.76.56,1.19s-.68-.53-1.11-.69a1.49,1.49,0,0,0-.33.19,1.34,1.34,0,0,0-.53.5.76.76,0,0,0,.1.69A2.3,2.3,0,0,0,223.21,159.4Z" transform="translate(-16 -9.97)"/><path class="cls-183" d="M197.74,149.38l-.71,0,0-.72a11,11,0,0,1,3.42-.16c4.66,0,9.33,0,14,0a3.15,3.15,0,0,1,1.69.16,1.73,1.73,0,0,1,0,.34,12,12,0,0,1-3.6.16c-4.38,0-8.77,0-13.15,0A2.81,2.81,0,0,0,197.74,149.38Z" transform="translate(-16 -9.97)"/><path class="cls-184" d="M216.17,148.68H197.07a.51.51,0,0,1,0-.34c5.83,0,11.67,0,17.5,0C215.11,148.34,215.73,148.11,216.17,148.68Z" transform="translate(-16 -9.97)"/><path class="cls-185" d="M216.16,148H198.81c.3-.37.72-.32,1.12-.32H215C215.44,147.63,215.86,147.59,216.16,148Z" transform="translate(-16 -9.97)"/><path class="cls-186" d="M237.74,159.11c1.19-1.5,1.88-1.38,2.82.47a2.4,2.4,0,0,1,0,2.51c0,.47-.32.68-.67.87s-.43,0-.57-.19a1,1,0,0,1,0-.47,2.07,2.07,0,0,1,.21-.41,2.77,2.77,0,0,0,.14-1.94,2.13,2.13,0,0,0-.24-.34c-.26-.22-.54-.11-.81,0a1.06,1.06,0,0,1-.44,0C237.92,159.51,237.84,159.3,237.74,159.11Z" transform="translate(-16 -9.97)"/><path class="cls-187" d="M230.37,158.76c.23,1.28.69,2.54.13,3.84a.3.3,0,0,1-.43,0c.17-.89.17-1.69-1.13-1.72.3-.72,1.21-.87,1.09-1.66C229.88,158.84,230,158.73,230.37,158.76Z" transform="translate(-16 -9.97)"/><path class="cls-188" d="M233.9,162.58c-.07-.9.39-2.23-1.4-1.69-.71.21-.92-.08-.76-.75a.62.62,0,0,1,.82,0c.7.19,1.64-.42,2.07.63a2.18,2.18,0,0,1,0,1.72.25.25,0,0,1-.28.12A.26.26,0,0,1,233.9,162.58Z" transform="translate(-16 -9.97)"/><path class="cls-189" d="M237.74,159.11l.42.45c.57.76.22,1.69.48,2.51a1.44,1.44,0,0,1,0,.52c-.11.26-.23.47-.57.33A3.72,3.72,0,0,1,237.74,159.11Z" transform="translate(-16 -9.97)"/><path class="cls-190" d="M244.29,159.11a3.63,3.63,0,0,1-.31,3.81c-.34.14-.45-.08-.56-.33a1.56,1.56,0,0,1,0-.52c.22-.84,0-1.73.28-2.57C243.81,159.25,244,159.05,244.29,159.11Z" transform="translate(-16 -9.97)"/><path class="cls-191" d="M231.87,158.49a.54.54,0,0,1,.64-.44c.79.15,2.21-.48,2.23.49,0,1.16-1.38.38-2.12.59,0-1.16,1-.19,1.27-.63-.51.17-1.06,0-1.57.17A.86.86,0,0,1,231.87,158.49Z" transform="translate(-16 -9.97)"/><path class="cls-192" d="M230.06,162.57l.43,0c-.37,1.21-1.26.9-2,.61-.44-.17-1-.66-.6-1.14s.58.25.82.47C229.15,163,229.59,162.83,230.06,162.57Z" transform="translate(-16 -9.97)"/><path class="cls-193" d="M244.29,159.11l-.38.41a.7.7,0,0,1-.41.06l-.84-.16a1.71,1.71,0,0,1-.41-.15.75.75,0,0,1-.36-.53C242.86,157.71,243.66,157.87,244.29,159.11Z" transform="translate(-16 -9.97)"/><path class="cls-194" d="M241.88,158.75l.38.39a.66.66,0,0,1,.14.43,6.78,6.78,0,0,0,0,2.53,1.52,1.52,0,0,1,0,.48c-.09.24-.2.44-.52.34l-.43-.65a2.56,2.56,0,0,1,0-2.85Z" transform="translate(-16 -9.97)"/><path class="cls-195" d="M222.31,159.86l.87.32a2.18,2.18,0,0,1,.06,2c-.41,0-.85.26-1.17-.21C222.87,161.32,222.4,160.57,222.31,159.86Z" transform="translate(-16 -9.97)"/><path class="cls-196" d="M230.37,158.76l-.34.43c-.87-1-1.48.06-2.25.54C228.17,158.18,229,158,230.37,158.76Z" transform="translate(-16 -9.97)"/><path class="cls-43" d="M240.83,159.84c.13-.11-.14-.76.41-.3a6.13,6.13,0,0,1,0,2.59c-.51.43-.32-.15-.43-.3A3,3,0,0,1,240.83,159.84Z" transform="translate(-16 -9.97)"/><path class="cls-197" d="M173.42,159.8c-.54,0-1,0-1-.75,0-.15.08-.41.15-.43.65-.11.41.68.83.83q.13.11.09.23T173.42,159.8Z" transform="translate(-16 -9.97)"/><path class="cls-188" d="M232.16,158.48a7.15,7.15,0,0,1,2.46-.07c-.56.87-1.54,0-2,.72l-.16.32C231.72,159.32,232,158.88,232.16,158.48Z" transform="translate(-16 -9.97)"/><path class="cls-198" d="M233.9,162.58l.41,0c-.27,1.12-1.06.82-1.8.65-.17-.36.06-.5.35-.61Z" transform="translate(-16 -9.97)"/><path class="cls-199" d="M232.86,162.64l-.35.61a1.06,1.06,0,0,1-.9-1.21C232.32,161.69,232.36,162.64,232.86,162.64Z" transform="translate(-16 -9.97)"/><path class="cls-200" d="M223.21,159.4c-.41,0-.85.12-1.12-.34a1.29,1.29,0,0,0,.2-.37,2.89,2.89,0,0,1,.38-1.24l.56,0A4.06,4.06,0,0,0,223.21,159.4Z" transform="translate(-16 -9.97)"/><path class="cls-201" d="M241.93,162.91l.32-.37a1.61,1.61,0,0,1,1.37,0l.35.36A1.25,1.25,0,0,1,241.93,162.91Z" transform="translate(-16 -9.97)"/><path class="cls-202" d="M238.06,162.93l.36-.36a.77.77,0,0,1,1,0l.44.42C239.26,163.71,238.66,163.57,238.06,162.93Z" transform="translate(-16 -9.97)"/><path class="cls-203" d="M241.25,162.13q0-1.3,0-2.59l.26-.13v2.85Z" transform="translate(-16 -9.97)"/><path class="cls-204" d="M232.16,158.48c0,.35-.06.72.3,1l.09.68-.69,0q-.19-.07-.18-.2t.07-.15l.12-1.31A.72.72,0,0,1,232.16,158.48Z" transform="translate(-16 -9.97)"/><path class="cls-205" d="M240.83,159.84v2l-.26.25q0-1.25,0-2.51Z" transform="translate(-16 -9.97)"/><path class="cls-206" d="M231.75,159.8l.11.35c-.2.6,0,.85.64.75-.25.3-.59.41-.85.1A.83.83,0,0,1,231.75,159.8Z" transform="translate(-16 -9.97)"/><path class="cls-207" d="M236.06,163.34c-.1-.17-.25-.31-.23-.42s.2-.31.32-.32a.34.34,0,0,1,.35.45C236.46,163.17,236.24,163.23,236.06,163.34Z" transform="translate(-16 -9.97)"/><path class="cls-204" d="M234.59,162.48l0-1.72A1.21,1.21,0,0,1,234.59,162.48Z" transform="translate(-16 -9.97)"/><path class="cls-208" d="M194.28,179.14a.67.67,0,0,0-.39-.6c.5-1.54,1.4-1.15,2.35-.5.39,0,.47-.47.83-.5a5.13,5.13,0,0,1,3,.12c.32.23.29.56.28.89,0,.1-.1.16,0,.13.3-.12-.18-.76.26-1a2.55,2.55,0,0,1,2,0c.68,1-.27,2,.07,3q0,.12,0,.24c-.54.62-.4,1.47-.73,2.16a.73.73,0,0,1-.46,0,14.21,14.21,0,0,0-3.72.06c-.78,0-1.48-.51-2.26-.19a.4.4,0,0,1-.42.11c-.37-.33-.14-.79-.28-1.17A9.41,9.41,0,0,1,194.28,179.14Z" transform="translate(-16 -9.97)"/><path class="cls-209" d="M181.74,179.3a2.79,2.79,0,0,1,1.83.85,3,3,0,0,1,.75,3c-.25,1.11-1.35.54-2.06.57-1.95.08-3.91,0-5.86,0-2.12,0-2.29-.27-1.6-2.47a1.06,1.06,0,0,1,.64.44,1.65,1.65,0,0,0,1.57.86c1.66,0,3.33,0,5,0,.5,0,1.12,0,1.21-.68s-.37-1-.92-1.31-1.29-.14-1.63-.82C180.79,179.13,181.45,179.62,181.74,179.3Z" transform="translate(-16 -9.97)"/><path class="cls-210" d="M181.74,179.3c-.27.38-.68.28-1.06.33a1.58,1.58,0,0,1-1.24.43,6.44,6.44,0,0,0-4.32,1.63l-.34-.38a.81.81,0,0,1,0-.17c.47-1.31,1.83-1.39,2.71-2.06s-.8-2,0-3.27a2.17,2.17,0,0,1,2.82-1c1.28.52,1.62,1.65,1.25,3C181.49,178.31,180.48,179,181.74,179.3Z" transform="translate(-16 -9.97)"/><path class="cls-211" d="M240.88,176.42a2.08,2.08,0,0,1-.11,2.59c-1.23,1.45-2.61,2.77-3.95,4.13-.55.56-.93.07-1.3-.29l-3.06-3.08a2.86,2.86,0,0,1-.64-3.62c.31-.09.46.09.58.32,0,2.37,1.69,3.64,3.16,5.07.42.41.91.57,1.37.11,1.38-1.41,3.2-2.51,3.35-4.79A.84.84,0,0,1,240.88,176.42Z" transform="translate(-16 -9.97)"/><path class="cls-212" d="M216.13,176.39c1.92-.5,3.46.37,3.12,2.09s.53,2.51,1.5,3.47c.34.34.81.61.92,1.13-.36.21-.5,0-.65-.16-1.25-1.17-2.26-2.89-4.46-2-.18.07-.5-.2-.76-.31a.75.75,0,0,1,.45-.55c.32-.12.67-.1,1-.21a1.39,1.39,0,0,0,1.14-1.48,1.35,1.35,0,0,0-1.2-1.26c-.38-.08-.8,0-1.12-.33A.4.4,0,0,1,216.13,176.39Z" transform="translate(-16 -9.97)"/><path class="cls-213" d="M197,175.83l0-.39a1.83,1.83,0,0,1,1.67-.49,3,3,0,0,1,1.32.89c.34.51.52,1,0,1.53a7.38,7.38,0,0,1-3.25,0C196.25,176.75,196.44,176.26,197,175.83Z" transform="translate(-16 -9.97)"/><path class="cls-214" d="M220.71,183.66H212.9v-.42a42.61,42.61,0,0,1,7.8,0Z" transform="translate(-16 -9.97)"/><path class="cls-215" d="M202.18,183.41a15.39,15.39,0,0,1-7.46,0,1.6,1.6,0,0,1,.61-.27l-.07-.08,0-.1c2.11-.05,4.21-.08,6.32,0a.11.11,0,0,1,0,.18C201.77,183.22,202,183.24,202.18,183.41Z" transform="translate(-16 -9.97)"/><path class="cls-216" d="M240.88,176.42l-.32.4c-1.22-1-2.4-1.45-4-.59-.83.44-1.73-.67-2.67-.87-.22-.14-.4-.3-.3-.6,1.67-.15,3.29.64,5.05,0A1.94,1.94,0,0,1,240.88,176.42Z" transform="translate(-16 -9.97)"/><path class="cls-217" d="M222,175h-8.95v-.17H222Z" transform="translate(-16 -9.97)"/><path class="cls-218" d="M216.13,176.39l0,.4a3.33,3.33,0,0,0,0,3.55l-.37.32C213.88,179,214,177.53,216.13,176.39Z" transform="translate(-16 -9.97)"/><path class="cls-219" d="M196.34,179c-.55-1.47-1.18-1.58-2.45-.42-.39-1.46-.39-1.46,1.8-1.31C196.85,177.46,196.62,178.2,196.34,179Z" transform="translate(-16 -9.97)"/><path class="cls-220" d="M202.61,177.88a4.72,4.72,0,0,0-2,.1c-.4-.43,0-.59.27-.79.57,0,1.15-.05,1.72,0,1,0,.79.57.45,1.15C202.81,178.25,202.85,177.93,202.61,177.88Z" transform="translate(-16 -9.97)"/><path class="cls-221" d="M196.34,179a1.4,1.4,0,0,0-.65-1.73c.64-.28.25-1.56,1.35-1.4a2,2,0,0,0-.31,1.3.53.53,0,0,1,0,.74C196.47,178.19,197.19,178.85,196.34,179Z" transform="translate(-16 -9.97)"/><path class="cls-222" d="M194.28,179.14a9.32,9.32,0,0,1,.62,2.9q-.16.25-.35,0C194.32,181.1,193.7,180.18,194.28,179.14Z" transform="translate(-16 -9.97)"/><path class="cls-223" d="M222.1,179.07c-.57.76-1.25.41-2.26.44C220.76,178.64,221.45,179,222.1,179.07Z" transform="translate(-16 -9.97)"/><path class="cls-224" d="M200.87,177.19l-.27.79c0,.38.19.8-.2,1.14-.41-.36-.15-.83-.23-1.23a.56.56,0,0,1,0-.75,2.39,2.39,0,0,0-.33-1.36.32.32,0,0,1,0-.49C200.57,175.72,200.5,176.57,200.87,177.19Z" transform="translate(-16 -9.97)"/><path class="cls-225" d="M202.61,177.88c.57-.28.2.38.43.43l-.41,2.41C201.72,179.78,202.91,178.82,202.61,177.88Z" transform="translate(-16 -9.97)"/><path class="cls-226" d="M233.57,174.76l.38.36a1.77,1.77,0,0,1-1.76,1.39l-.35-.37A2.63,2.63,0,0,1,233.57,174.76Z" transform="translate(-16 -9.97)"/><path class="cls-227" d="M202.18,183.41l-.6-.28c.73-.54-.16-1.86,1.05-2.16Z" transform="translate(-16 -9.97)"/><path class="cls-228" d="M198.75,175.12l-1.7.32c.38-1.2,1.32-.58,2.06-.63C199.15,175.1,199.12,175.31,198.75,175.12Z" transform="translate(-16 -9.97)"/><path class="cls-229" d="M214,179c-.59.64-1,.36-1.7.29A1.72,1.72,0,0,1,214,179Z" transform="translate(-16 -9.97)"/><path class="cls-230" d="M198.75,175.12l.36-.3a.83.83,0,0,1,.76.47l0,.49Z" transform="translate(-16 -9.97)"/><path class="cls-200" d="M194.54,182.07l.35,0c.17.35,0,.83.42,1.1l-.61.27Z" transform="translate(-16 -9.97)"/><path class="cls-231" d="M214.06,106.69a14.83,14.83,0,0,1,1.81,5.32C214.69,110.45,214.5,108.53,214.06,106.69Z" transform="translate(-16 -9.97)"/><path class="cls-232" d="M206.81,94.76a4.66,4.66,0,0,1-3.34-1.8,21,21,0,0,0,4.09,1.45C207.41,94.73,207,94.55,206.81,94.76Z" transform="translate(-16 -9.97)"/><path class="cls-233" d="M217.18,116.23a2.47,2.47,0,0,1-.77-2A2.14,2.14,0,0,1,217.18,116.23Z" transform="translate(-16 -9.97)"/><path class="cls-234" d="M212.26,93a1.83,1.83,0,0,1-1.64,1.13A1.94,1.94,0,0,1,212.26,93Z" transform="translate(-16 -9.97)"/><path class="cls-235" d="M206.81,94.76l.75-.35h.57c.39,0,.91-.48,1.05.32Z" transform="translate(-16 -9.97)"/><path class="cls-236" d="M209.18,94.74c-.27-.36-.7-.21-1.05-.32a2.12,2.12,0,0,1,1.31-.3c.26,0,.48.14.32.39S209.38,94.67,209.18,94.74Z" transform="translate(-16 -9.97)"/><path class="cls-162" d="M207.91,131.66a2.25,2.25,0,0,1,2.35,2.4,2.38,2.38,0,1,1-2.35-2.4Z" transform="translate(-16 -9.97)"/><path class="cls-237" d="M227.64,48.23q0,.16,0,.33H188.45v-.33Z" transform="translate(-16 -9.97)"/><path class="cls-238" d="M172,46.11c.76.8,1.74.39,2.62.43,1.52.06,3,0,4.57,0v.76h-7.14A.84.84,0,0,1,172,46.11Z" transform="translate(-16 -9.97)"/><path class="cls-239" d="M172,46.11l.06,1.2c-.43,1-.75,0-.8-.14C170.93,46.45,171.43,46.22,172,46.11Z" transform="translate(-16 -9.97)"/><path class="cls-240" d="M197.74,149.38c.51-.58,1.19-.35,1.79-.35,5.55,0,11.09,0,16.64,0-.43.59-1.06.36-1.6.36Q206.16,149.4,197.74,149.38Z" transform="translate(-16 -9.97)"/><path class="cls-241" d="M223.24,162.14a4.64,4.64,0,0,1-.06-2C224.32,160.8,224.05,161.46,223.24,162.14Z" transform="translate(-16 -9.97)"/><path class="cls-242" d="M222.37,159.06h-.27a1.09,1.09,0,0,1,0-1.38C223,158,222.63,158.52,222.37,159.06Z" transform="translate(-16 -9.97)"/><path class="cls-243" d="M222.37,159.06c-.05-.47.38-1-.3-1.38.08-.4.36-.29.62-.23C222.68,158,223.08,158.64,222.37,159.06Z" transform="translate(-16 -9.97)"/><path class="cls-244" d="M239.44,162.53l-1,0a.84.84,0,0,1,0-.31,5.06,5.06,0,0,1,0-2.8c.47-1,.91-1,1.33,0,0,.94.3,1.91-.27,2.79A1.2,1.2,0,0,1,239.44,162.53Z" transform="translate(-16 -9.97)"/><path class="cls-245" d="M238.41,159.44v2.8c-.56-.85-.22-1.78-.25-2.68A.54.54,0,0,0,238.41,159.44Z" transform="translate(-16 -9.97)"/><path class="cls-246" d="M239.47,162.27c.11-.93-.3-1.91.27-2.79l.1,0a4.47,4.47,0,0,1-.1,2.77Z" transform="translate(-16 -9.97)"/><path class="cls-205" d="M239.74,162.21a6.86,6.86,0,0,0,.1-2.77A2.5,2.5,0,0,1,239.74,162.21Z" transform="translate(-16 -9.97)"/><path class="cls-247" d="M243.62,162.56a1.08,1.08,0,0,1-1.37,0l0-.29a.82.82,0,0,1-.11-.67,3.57,3.57,0,0,1,.35-.86.6.6,0,0,0,0-1,.56.56,0,0,1,.12-.61c.4-.08.85-.34,1.08.27a6.37,6.37,0,0,1,0,2.85Q243.65,162.42,243.62,162.56Z" transform="translate(-16 -9.97)"/><path class="cls-248" d="M243.67,162.27v-2.85l.25.11C243.92,160.45,244.26,161.4,243.67,162.27Z" transform="translate(-16 -9.97)"/><path class="cls-249" d="M242.58,159.15v.65a.74.74,0,0,1,0,1l-.3.69a2.81,2.81,0,0,1-.08-2.1l.05-.29A.33.33,0,0,1,242.58,159.15Z" transform="translate(-16 -9.97)"/><path class="cls-250" d="M242.2,159.43l.08,2.1-.07.72A2.86,2.86,0,0,1,242.2,159.43Z" transform="translate(-16 -9.97)"/><path class="cls-251" d="M201.6,182.95a28.45,28.45,0,0,1-6.32,0l.21-.6c1.67.75,3.42.23,5.13.29C200.94,182.66,201.46,182.28,201.6,182.95Z" transform="translate(-16 -9.97)"/><path class="cls-252" d="M200.17,177.13v.75h-3.46v-.74Z" transform="translate(-16 -9.97)"/><path class="cls-253" d="M175.13,181.69c.35-1.66,1.75-1.75,3-1.94a22.9,22.9,0,0,1,2.54-.12c.42.43,1,.23,1.46.35a2,2,0,0,1,1.68,2.25c-.08,1.38-1.16.82-1.83.85-1.78.07-3.57,0-5.34,0C175.56,183.16,175,182.84,175.13,181.69Z" transform="translate(-16 -9.97)"/><path class="cls-254" d="M181.09,176.91c0,1.22-.45,2.25-1.65,2.22s-1.51-1-1.55-2.12a1.54,1.54,0,0,1,1.58-1.82A1.48,1.48,0,0,1,181.09,176.91Z" transform="translate(-16 -9.97)"/><path class="cls-79" d="M232.19,176.52l1.76-1.39a2.38,2.38,0,0,1,1.77.58c.43.35.72.3,1.21,0,1.82-1,2.5-.73,3.64,1.07.29,3-2.49,3.87-3.89,5.7-.08.11-.43.1-.62,0C234.45,182,232.1,178.28,232.19,176.52Z" transform="translate(-16 -9.97)"/><path class="cls-255" d="M216.17,180.34c-1.5-1.36-1.5-2.21,0-3.55.92-.17,1.81-.22,2.4.72a1.68,1.68,0,0,1,.09,1.92A2.1,2.1,0,0,1,216.17,180.34Z" transform="translate(-16 -9.97)"/><path class="cls-256" d="M242.58,160.84v-1c.24,0,.57-.3.66.13S243.18,160.81,242.58,160.84Z" transform="translate(-16 -9.97)"/><path class="cls-1" d="M345.23,144.22c1.25-8.05.85-15.56.19-22.93-1.69-18.91-8-35.15-15.56-50.52-2.31-4.66-4.94-9.14-7.5-13.64a11.29,11.29,0,0,1-.86-1.92c-.77-2.25-2-4.44.58-7.6s5.53-3.19,8.29-3c7.39.44,13.18,3.41,18.53,7,10.83,7.23,18.08,17.66,23.08,30,3.31,8.2,5.48,17.1,3.67,27.49-2.19,12.54-7.25,25-18.06,36.25-1.1,1.14-2.07,2.19-1.34,3.37-.37.32-.87.74-1.16.57C352,147.41,348.06,146.56,345.23,144.22Z" transform="translate(-16 -9.97)"/><path class="cls-20" d="M216.58,90.05a27,27,0,0,1,.53,4.16c.47,4.23.9,8.47,1.34,12.71a1.87,1.87,0,0,0,.1.34q.21,2.28.42,4.55c0,.33.11.68-.4.7l-8.86,0c-3.74,0-7.48,0-11.21,0-.7,0-.84-.16-.77-.85.66-6.38,1.27-12.77,1.92-19.16a8,8,0,0,1,.27-2.14,1.56,1.56,0,0,1,1.21-.4c4.72,0,9.43,0,14.15,0C215.73,89.94,216.14,90.23,216.58,90.05Z" transform="translate(-16 -9.97)"/><path class="cls-72" d="M213.89,96.91a5.42,5.42,0,0,1-4.12,4.59,5.64,5.64,0,0,1-5.93-2.08,5.76,5.76,0,0,1-1.15-3.53c0-.84,0-1.68,0-2.52s.23-.79.85-.44c-.18,1.27,0,2.54-.08,3.64,0,.29.22.16.11.2s0,0-.05-.05a2.94,2.94,0,0,1,.06-1.48c0,.26.09.53.1.79a4.68,4.68,0,0,0,9.31.71.41.41,0,0,1,.14-.13c.13-1.06-.32-2.17.25-3.2,0-.07-.2-.2-.22-.36l0-.12c.44-.41.86-.29.87.26a14.05,14.05,0,0,1-.09,3.58,12.78,12.78,0,0,1-.13-2.5A17.19,17.19,0,0,0,213.89,96.91Z" transform="translate(-16 -9.97)"/><path class="cls-73" d="M216.23,105c0-.12,0-.24,0-.36s0-.47.23-.5.34.25.37.49l.47,4.28c0,.25,0,.53-.29.54s-.33-.3-.36-.52C216.49,107.58,216.36,106.27,216.23,105Z" transform="translate(-16 -9.97)"/><path class="cls-74" d="M215.86,101.78c.06-.32-.2-.8.29-.83s.34.46.34.72c0,.51.5,1.36-.19,1.45C215.79,103.19,216,102.22,215.86,101.78Z" transform="translate(-16 -9.97)"/><path class="cls-1" d="M101.48,136.43c0,1.15-1.13.81-1.76.72-1.81-.25-2.2.58-2,2.16.07.6.33,1.45-.65,1.69a.8.8,0,0,1-.75-.84,8.14,8.14,0,0,1,0-1.56c.15-1.18-.38-1.45-1.48-1.45-.79,0-2.25.64-2.24-.74,0-1.16,1.41-.69,2.15-.63,1.42.1,1.62-.53,1.6-1.73,0-.73-.59-2.09.77-2,1.08,0,.66,1.33.61,2-.12,1.43.45,1.91,1.79,1.7a.48.48,0,0,1,.17,0C100.31,135.88,101.44,135.32,101.48,136.43Z" transform="translate(-16 -9.97)"/><path class="cls-1" d="M109.82,36.73c0-3.13-.46-2.79,2.32-2.79,3,0,2.61-.39,2.62,2.51s.35,2.41-2.51,2.45S109.8,39.18,109.82,36.73Z" transform="translate(-16 -9.97)"/><path class="cls-1" d="M119.77,37.61a11.42,11.42,0,0,1,.2-2.94q2.45,1,4.78,2.27c0,2.19.12,2.07-2.1,1.87C121.73,38.73,119.75,40.22,119.77,37.61Z" transform="translate(-16 -9.97)"/><circle class="cls-1" cx="40.5" cy="194.53" r="23.5"/></svg>