<svg id="Layer_1" data-name="Layer 1" xmlns="http://www.w3.org/2000/svg" viewBox="0 0 375 219.57"><defs><style>.cls-1{fill:#606060;opacity:0.1;}.cls-2{fill:#9ec5fe;}.cls-3{fill:#e3effd;}.cls-4{fill:#c4e0fe;}.cls-5{fill:#c4dffd;}.cls-6{fill:#01bdc2;}.cls-7{fill:#e3effc;}.cls-8{fill:#fed200;}.cls-9{fill:#00558f;}.cls-10{fill:#150244;}.cls-11{fill:#fcaa02;}.cls-12{fill:#feab82;}.cls-13{fill:#9fc5fd;}.cls-14{fill:#fafcfb;}.cls-15{fill:#fd2780;}.cls-16{fill:#9ec5fd;}.cls-17{fill:#fd65aa;}.cls-18{fill:#feab81;}.cls-19{fill:#c4e0fd;}.cls-20{fill:#fd2981;}.cls-21{fill:#95bffb;}.cls-22{fill:#fdab81;}.cls-23{fill:#150344;}.cls-24{fill:#e1794f;}.cls-25{fill:#9fc4fc;}.cls-26{fill:#160345;}.cls-27{fill:#e07950;}.cls-28{fill:#fc277f;}.cls-29{fill:#f18dbe;}.cls-30{fill:#fdac81;}.cls-31{fill:#150643;}.cls-32{fill:#fc64aa;}.cls-33{fill:#67a2cd;}.cls-34{fill:#fbd205;}.cls-35{fill:#e8edfa;}.cls-36{fill:#09bec1;}.cls-37{fill:#faaa83;}.cls-38{fill:#170745;}.cls-39{fill:#eaf0fd;}.cls-40{fill:#c4dffc;}.cls-41{fill:#fbac82;}.cls-42{fill:#fb2780;}.cls-43{fill:#fdab01;}.cls-44{fill:#fa3287;}.cls-45{fill:#fcab04;}.cls-46{fill:#0d0639;}.cls-47{fill:#0dbfc1;}.cls-48{fill:#fb63a9;}.cls-49{fill:#e5fafe;}.cls-50{fill:#e2fefe;}.cls-51{fill:#dfedf7;}.cls-52{fill:#fb277f;}.cls-53{fill:#97c9fe;}.cls-54{fill:#4d4879;}.cls-55{fill:#066a6e;}.cls-56{fill:#4b4476;}.cls-57{fill:#0b003e;}.cls-58{fill:#024487;}.cls-59{fill:#e5eff9;}.cls-60{fill:#ecfbfd;}.cls-61{fill:#eff9fd;}.cls-62{fill:#9dc3fb;}.cls-63{fill:#d3edfe;}.cls-64{fill:#c3defa;}.cls-65{fill:#0c548d;}.cls-66{fill:#024c89;}.cls-67{fill:#014886;}.cls-68{fill:#f0ae86;}.cls-69{fill:#fc5aa3;}.cls-70{fill:#f7ab85;}.cls-71{fill:#a6c8fb;}.cls-72{fill:#6aa1c7;}.cls-73{fill:#f3cc17;}.cls-74{fill:#615e8e;}.cls-75{fill:#b6768b;}.cls-76{fill:#b67aa2;}.cls-77{fill:#0d0137;}.cls-78{fill:#05bec2;}.cls-79{fill:#98c3fd;}.cls-80{fill:#98c3fb;}.cls-81{fill:#a5c8fc;}.cls-82{fill:#98c2fb;}.cls-83{fill:#9cc0fd;}.cls-84{fill:#9ebffe;}.cls-85{fill:#97c0f7;}.cls-86{fill:#a0c4fb;}.cls-87{fill:#eff3fe;}.cls-88{fill:#fdab82;}.cls-89{fill:#03686a;}.cls-90{fill:#abd3fb;}.cls-91{fill:#06bdc0;}.cls-92{fill:#9ac1f8;}.cls-93{fill:#94c3fa;}.cls-94{fill:#97c2fb;}.cls-95{fill:#e7edfc;}.cls-96{fill:#99c3fb;}.cls-97{fill:#b0d2fd;}.cls-98{fill:#a7c9fb;}.cls-99{fill:#a9cafa;}.cls-100{fill:#fdaa01;}.cls-101{fill:#e2edfa;}.cls-102{fill:#9bc4fc;}.cls-103{fill:#a4c8fd;}.cls-104{fill:#9bc3fb;}.cls-105{fill:#9cc4fc;}.cls-106{fill:#e4f7f9;}.cls-107{fill:#9ec3fc;}.cls-108{fill:#f2f1fb;}.cls-109{fill:#fcae17;}.cls-110{fill:#01548f;}.cls-111{fill:#fd2980;}.cls-112{fill:#97c1fe;}.cls-113{fill:#9ac4fd;}.cls-114{fill:#9cc3fd;}.cls-115{fill:#c2d5fe;}.cls-116{fill:#e6f4f7;}.cls-117{fill:#9ac1fe;}.cls-118{fill:#e4eaf6;}.cls-119{fill:#9bbffc;}.cls-120{fill:#9cc4fd;}.cls-121{fill:#01676a;}.cls-122{fill:#09558d;}.cls-123{fill:#db9f80;}.cls-124{fill:#9bc4fd;}.cls-125{fill:#9ac0fd;}.cls-126{fill:#96c2fe;}.cls-127{fill:#98c0fe;}.cls-128{fill:#96c3fe;}.cls-129{fill:#0c013a;}.cls-130{fill:#170847;}.cls-131{fill:#9bc3fc;}.cls-132{fill:#a0c6fb;}.cls-133{fill:#0d033b;}.cls-134{fill:#f0fefd;}.cls-135{fill:#0c0634;}.cls-136{fill:#8b8ab2;}.cls-137{fill:#effcfe;}.cls-138{fill:#c6dffb;}.cls-139{fill:#faab02;}.cls-140{fill:#170945;}.cls-141{fill:#8b8488;}.cls-142{fill:#191c54;}.cls-143{fill:#d8e8fc;}.cls-144{fill:#bbe0f8;}.cls-145{fill:#04686a;}.cls-146{fill:#e07850;}.cls-147{fill:#a7c8fa;}.cls-148{fill:#8f93ba;}.cls-149{fill:#f0fefb;}.cls-150{fill:#a1c4fc;}.cls-151{fill:#dfecfd;}.cls-152{fill:#160445;}.cls-153{fill:#06538c;}.cls-154{fill:#190f4b;}.cls-155{fill:#1a0d48;}.cls-156{fill:#025e5e;}.cls-157{fill:#1b0e4a;}.cls-158{fill:#1c1446;}.cls-159{fill:#e37a51;}.cls-160{fill:#0a0142;}.cls-161{fill:#f9aa09;}.cls-162{fill:#bfe1fe;}.cls-163{fill:#e27a51;}.cls-164{fill:#fd1873;}.cls-165{fill:#07013a;}.cls-166{fill:#0f073d;}.cls-167{fill:#9bc6fc;}.cls-168{fill:#9cc2fb;}.cls-169{fill:#fcab81;}.cls-170{fill:#fb277c;}.cls-171{fill:#c0ebfe;}.cls-172{fill:#004a88;}.cls-173{fill:#1b0949;}.cls-174{fill:#014887;}.cls-175{fill:#99b;}.cls-176{fill:#fd64aa;}.cls-177{fill:#fb1773;}.cls-178{fill:#fe1878;}.cls-179{fill:#807f6c;}.cls-180{fill:#eeac85;}.cls-181{fill:#2e6ea0;}.cls-182{fill:#d4e9fe;}.cls-183{fill:#014986;}.cls-184{fill:#c2d8ea;}.cls-185{fill:#1e1249;}.cls-186{fill:#f4774d;}.cls-187{fill:#f81977;}.cls-188{fill:#01bdc1;}.cls-189{fill:#fcab01;}.cls-190{fill:#fcaa01;}.cls-191{fill:#e0784f;}.cls-192{fill:#96c4fe;}.cls-193{fill:#a7c9fc;}</style></defs><title>UpToDate</title><path class="cls-1" d="M378,141.48C378,193.1,322.71,235,254.5,235c-29.29,0-56.21-7.73-77.38-20.63-16.76,10.74-38,17.15-61.12,17.15-54.12,0-98-35.18-98-78.57s43.88-78.57,98-78.57a117.73,117.73,0,0,1,42.93,7.93C181.58,61.34,216,48,254.5,48,322.71,48,378,89.85,378,141.48Z" transform="translate(-18 -21.64)"/><path class="cls-2" d="M269.89,146.19c2.79,0,5.58.06,8.37,0a5,5,0,0,1,4.06,1.89c3.11,3.53,1.9,10.37-2.14,12.17-5.81.75-11.65.44-17.47.42-2.33,0-4.47.86-6.83.85q-43.61-.15-87.22,0c-4.06,0-7.87-1.76-12.12-1.17a12.42,12.42,0,0,0,2.15-7.13c-.11-2.09-.27-4-2-5.51a1.45,1.45,0,0,1-.56-1.45l15.4,0c.88-.87,2-.75,3.09-.75q46.08,0,92.16,0A4.43,4.43,0,0,1,269.89,146.19Z" transform="translate(-18 -21.64)"/><path class="cls-3" d="M260.5,163.53c-4.42.4-4.09,4.12-4.59,7-.56,3.23.13,6.47,1,9.63.54,2,2.15,1.64,3.6,1.65h0v.47a4.29,4.29,0,0,1-3.11.74q-43.65,0-87.29,0a19.31,19.31,0,0,1-4.63-.61,9.78,9.78,0,0,1-.45-18.92,18,18,0,0,1,5.31-.7h86.59C258.16,162.79,259.45,162.62,260.5,163.53Z" transform="translate(-18 -21.64)"/><path class="cls-4" d="M160.29,72.74c4.33,0,8.66,0,13,0,.81,0,1.72.32,2.42-.41,1.16-.77,2.43-.21,3.63-.22,9.35,0,18.69,0,28,0a8.12,8.12,0,0,1,3.23.3,1.68,1.68,0,0,1,.77,1.09c1.08,3.24,1.08,3.19,4.49,3.28,2.05.05,4.15-.4,6.15.43,1.27,2,1,4.3,1.4,6.48a2.33,2.33,0,0,1-.09.75,12.18,12.18,0,0,0-2,5.37c-.19,3.7,1.43,6.39,4.28,8.56.56.43,2.37.9.48,2.06a14.1,14.1,0,0,1-3,.15q-28.51,0-57,0c-1.23,0-2.51.24-3.65-.46-.62-1.07.43-1.15.93-1.4,3.4-1.67,4.82-4.47,4.8-8.15,0-2.73,0-5.45,0-8.18-.07-4.54-2.14-7.24-6.46-8.55C161.05,73.6,160.32,73.62,160.29,72.74Z" transform="translate(-18 -21.64)"/><path class="cls-3" d="M121.91,230c3.3-5.44,2.59-11.32,1.79-17.18a5.08,5.08,0,0,0-2.24-3.67c.94-1.2,2.29-.8,3.48-.8q33.1,0,66.21,0c1.72,0,3.43-.14,5.14-.06,6.6.31,10.13,4,10.18,10.59.07,8.69-3.12,11.94-11.78,11.94q-34.39,0-68.78,0C124.54,230.75,123.06,231.1,121.91,230Z" transform="translate(-18 -21.64)"/><path class="cls-3" d="M263.26,137.2a6.36,6.36,0,0,0,1.93,5.73c-.45,1-1.37.83-2.19.83a14.77,14.77,0,0,1-5.21-.61c.42-1.11.42-1.11,2.49-1.14a24.2,24.2,0,0,0-3.07.2c-1.64.1-2.36-.86-1.75-2.1,0-.07.06-.17,0-.22s-.14,0-.24,0H215.86c-.67,0-1.38-.23-2,.22,3.93-.32,7.82-.12,11.7-.14q12.86-.05,25.72,0c.93,0,2.46-.29,2.42,1,0,.95-1.56.59-2.43.59q-17.89,0-35.77,0c12.06,0,24.11,0,36.17,0,2,0,3.86-.09,5.58,1,.12,1.69-1.15.85-1.86,1a36.63,36.63,0,0,0-7.67-.47H216.18a7.13,7.13,0,0,0-3.22.36c-1.36.62-2.77.17-4.16.18-9.74,0-19.48-.07-29.22.06-2.9,0-5.76,0-8.31-1.76a9.06,9.06,0,0,1-4.17-8.81,9.3,9.3,0,0,1,5.32-8,12.34,12.34,0,0,1,5.65-1.26h76.67a5.84,5.84,0,0,1,2.75.41,2.21,2.21,0,0,1,.82,1.89,8.28,8.28,0,0,1-.16,2.35c-.14.57-.34,1.13-.49,1.69a7.7,7.7,0,0,0-.09,4.28c.48-.5,1.09-.87,1.49-.11C260,136.19,261.63,136.64,263.26,137.2Z" transform="translate(-18 -21.64)"/><path class="cls-3" d="M150.93,44.14c1.88-5.09,1.68-10.3,1-15.57-.18-1.41-1.3-2.29-1.47-3.62a2.35,2.35,0,0,1,1.93-.63c3.8,0,7.61-.15,11.41.09,2.35.68,4.76.24,7.14.36,1.46.08,2.94-.2,4.37.28.89.59,1.63,2.31,2.88.4a1,1,0,0,1,.69-.74,2.09,2.09,0,0,1,.78,0c8.39,0,16.78.22,25.17-.12l.36-.18a2.55,2.55,0,0,1,.73-.31c4.76.24,7.87,3.45,7.9,8.14a12.42,12.42,0,0,1-.1,2.31C211.8,38,209.64,41.28,208,44.87a2.71,2.71,0,0,1-1.34.61,2.63,2.63,0,0,1-1.16-.14c-.39-.13-.75-.34-1.16-.44-11-.2-22,0-33-.08-5.77,0-11.54,0-17.31,0C153,44.79,151.83,45,150.93,44.14Z" transform="translate(-18 -21.64)"/><path class="cls-5" d="M260.5,163.53q-45.53,0-91.05,0c-2.91,0-5.67.53-7.94,2.71-2.93,2.81-3.47,6.09-2.23,9.77,1.16,3.41,3.6,5.25,7.17,5.83a28.8,28.8,0,0,0,4.63.39H260.5l0,2.78c-.94,1-2.17.71-3.31.72q-23.25,0-46.5,0c-14.57,0-29.14-.16-43.69.17-10,.23-19.93.19-29.89.29-1.07,0-2.21.18-3.08-.72.78-.78,1.77-.43,2.67-.43,8.46,0,16.93,0,25.72,0-9.32-4.09-9.26-20.15,0-24.35h-9.58c-4.57-.5-9.16-.1-13.74-.22-1.32,0-2.65,0-4,0s-1.51-.57-1-1.63h0c4.81-1.27,9.72-.5,14.58-.69a20.43,20.43,0,0,0,4.4-.36c2.58-.67,3.84-2.34,3.67-4.91a4.33,4.33,0,0,0-4.36-4c-4.51-.2-9,0-13.53-.07a5.59,5.59,0,0,1-3.37-.69c-.73,0-1.51,0-1.34-1.1s1-.77,1.68-.77q10.15,0,20.3,0c4.12,2.42,3.39,6.4,3.16,10.14a5.55,5.55,0,0,1-2.33,3.9c41.13.39,82.17.69,123.21,0-1.16.92-2.53.26-3.77.5a120.8,120.8,0,0,1-14.94,0C260.16,161.35,260.84,162.62,260.5,163.53Z" transform="translate(-18 -21.64)"/><path class="cls-6" d="M292.32,210.78c6.52-1.05,12.85-3,19.3-4.35,2.81-.61,5.6-1.32,8.39-2,2.22-.55,3.91.08,5.72,1.59a152.46,152.46,0,0,1,14.65,14.36c.85.92,1.92.95,3,1.17,4.69,1,9.46,1.74,14.06,3.18-.14,2.3-1.82,2.82-3.65,3.07-1.59.22-3.23-.2-4.8.33-1,.37-1.38-.36-1.7-1s-.83-1-1.62-.63a3.65,3.65,0,0,1-2.12-.83c-7.74.06-13-5.22-19.06-8.82-.9-.53-1.41-1.56-2.8-1.31-.95.17-1.33-.86-1.66-1.73a4.27,4.27,0,0,1-2.68,3.27c-7.26,3.63-14.32,7.74-21.83,10.74-6.06,2.42-14.06,1.88-17.48-3.92-.5-.84-1.3-1.63-.7-2.77.79-.25,1.31.31,1.88.66,2.79,1.7,5.63,2.13,8.51.27a7.75,7.75,0,0,0,3.7-7.93,4.88,4.88,0,0,1,.29-3.17A.5.5,0,0,1,292.32,210.78Z" transform="translate(-18 -21.64)"/><path class="cls-3" d="M140.64,203.33c2.7-3.94,2.7-11,0-15,.52-1.55,1.87-1.1,2.91-1.1,10,0,19.94,0,29.92,0a41.91,41.91,0,0,0,7.46-.21,7.14,7.14,0,0,1,8.09,6.73,29.83,29.83,0,0,1,0,5.12,6.24,6.24,0,0,1-6.61,5.8,14.48,14.48,0,0,0-3.5-.18c-11.69,0-23.39,0-35.08,0C142.69,204.43,141.24,205,140.64,203.33Z" transform="translate(-18 -21.64)"/><path class="cls-3" d="M129.4,97.5c8-5.42,8.23-15.76.48-22,.28-1.29,1.38-1.12,2.24-1.13,8.1-.07,16.21-.1,24.31,0a16.7,16.7,0,0,1,3.92.62,8.4,8.4,0,0,1,6.28,7.81c.09,2.49.1,5,0,7.48a8.09,8.09,0,0,1-8,7.92c-9,.13-17.92.06-26.89,0A2.93,2.93,0,0,1,129.4,97.5Z" transform="translate(-18 -21.64)"/><path class="cls-7" d="M161.24,119.06c2.43-3.24,1.78-7,1.91-10.68a6.44,6.44,0,0,0-1.91-5.24c.52-1.55,1.87-1.09,2.91-1.1,8.8,0,17.59,0,26.39,0,3.73,0,7.47.12,11.2-.09a4.16,4.16,0,0,1,.81-.21,4.89,4.89,0,0,1,2.72.53c2,1,4,2.18,4.06,4.88a33.25,33.25,0,0,0,0,7.49,2.58,2.58,0,0,1-.05,1.14,7.6,7.6,0,0,1-6.73,4.27,3.81,3.81,0,0,1-.82-.19c-12.31-.23-24.62,0-36.93-.11C163.6,119.7,162.31,120,161.24,119.06Z" transform="translate(-18 -21.64)"/><path class="cls-8" d="M226.7,99.79c-5.76-3.68-7.55-8.53-5.06-13.73A4.53,4.53,0,0,1,223,84.2c2.1-.85,4.19.34,6.29,0,8,.4,16,1.26,23.93,2.42a14.42,14.42,0,0,1,6.55,2.33,2.29,2.29,0,0,0,1,.55c3.63.36,5.58,2.65,7.08,5.73,3.54,7.3,7.05,14.6,10.42,22a25.24,25.24,0,0,1,2.07,5.45c-.66,1.72-1.7,1.55-2.89.58l-1.24-1.5a2.75,2.75,0,0,1-.77-.64c-3.37-5.87-6.37-11.94-9.58-17.9-1.29-1.86-2.14-4-3.28-5.89A3,3,0,0,0,259,95.61c-8.75,1.7-17.5,3.41-26.24,5.19a9.53,9.53,0,0,1-5.48-.44A1.38,1.38,0,0,1,226.7,99.79Z" transform="translate(-18 -21.64)"/><path class="cls-9" d="M274.59,185.12c.86-2.64,1.5-5.35,3.35-7.57a16.65,16.65,0,0,1,9.71-5.5c.76.75.19,1.61.21,2.42,0,1.59.47,3,2.16,3.44a3.09,3.09,0,0,0,3.7-1.68c.42-.69.49-1.69,1.54-1.88l2.67,1.26a38.15,38.15,0,0,1-.33,12.26,9.46,9.46,0,0,1-1.36,3.42,4.21,4.21,0,0,0-1,1.74,80,80,0,0,1-4.1,8.92c-.31.62-.56,1.31-1.29,1.59-1.54-.09-1.31-1.32-1.36-2.25-.11-2.25,0-4.51,0-7a6.82,6.82,0,0,1-4.5,2,5.43,5.43,0,0,1-4.45-2.17,2,2,0,0,1-.25-1.1c-.15.87.42,1.59.53,2.41.4,4.31.62,8.62,1,12.93a8.8,8.8,0,0,0,1.82,4.89c-.28,2.63-3.69,5.27-6.74,5.21-1.34-1.21-1.12-3-1.75-4.5a45.58,45.58,0,0,1-1.13-6.87c.07-1.35-.51-2.61-.48-4a70.07,70.07,0,0,1,1.09-15.39C273.87,186.86,273.83,185.83,274.59,185.12Z" transform="translate(-18 -21.64)"/><path class="cls-5" d="M255.82,142.93c.47-.14.93.53,1.4,0,.15-.19.31-.2.46,0,2.5-.19,5,.61,7.49,0l1.37,0c3.26,0,3.26,0,3.33,3.24H171.53c-6.56-4.6-8.41-9-6.43-17,.81-3.23,2.6-6.18,6.43-6.92a3.33,3.33,0,0,1,2.42-.64c11.19,0,22.37-.1,33.56.06a4.46,4.46,0,0,1,.9.17,10,10,0,0,0,3.24.23h42.19a11.07,11.07,0,0,1,3.47.23,1.39,1.39,0,0,1,.66.61,1.44,1.44,0,0,1-.32,1.69q-39.88,0-79.76,0c-6,0-10.51,4.23-10.14,9.95.28,4.3,3.82,8.18,8.18,8.32,2.64.08,5.28,0,7.91,0,8.34,0,16.69,0,25,0,1.29,0,2.58.77,3.87,0,12.91,0,25.81,0,38.72,0C252.92,142.89,254.37,143.55,255.82,142.93Z" transform="translate(-18 -21.64)"/><path class="cls-8" d="M82.63,132.19c-1.52-1.68-1.73-3.45-.23-5.22,1.15-1.35.87-3,.87-4.46,0-3.17,1.51-4.89,4.34-5.78a6.1,6.1,0,0,0,1-.53c1.37.2,1,1.33,1.09,2.15.14,1.92.45,3.8.73,6.08a14.75,14.75,0,0,0,4.42-7c.26-.8.18-1.72.92-2.33,1.79-.54,3.53.19,5.29.23,2.16.45,4.62.41,5.35,3.23a1.67,1.67,0,0,1,0,.91l4.29,14.21c.07.22.17.44.23.66,1.41,5.08.72,6.17-4.39,7.14-1.6.3-3.18.68-4.77,1-2.15,1.64-4.92,1-7.42,2a14.16,14.16,0,0,0,3.92,2.09c.84.33,1.83.58,1.82,1.81-2.26,3.41-8.26,4.63-11.43,2.34l-.08,0c1.61-1.12.77-2.41.25-3.68a8,8,0,0,1,.78-1.68A3.25,3.25,0,0,0,88,141c-.62-.31-1.37-.34-1.87-.89a7.05,7.05,0,0,1-.8-2.64C85,135.41,84.62,133.4,82.63,132.19Z" transform="translate(-18 -21.64)"/><path class="cls-3" d="M271.78,51.13c-1.08.07-1.1,1-1.29,1.7A23.2,23.2,0,0,0,271.26,69c-1,.91-2.19.67-3.32.65-2.09,0-4.18.21-6.27,0a4.85,4.85,0,0,1-.77-.27,156.79,156.79,0,0,0-16.93,0c-.23.13-.46.25-.7.36a2.6,2.6,0,0,1-.76.2c-1.34.06-1.9-.85-2.25-1.91-.5-1.51-1.32-3-1-4.65,1.56-1.41,3.42-.19,5.18-.69-1.82-.15-3.6.12-5.31-.4a2.47,2.47,0,0,1-.9-2c0-1.65-1.23-3.23-.32-4.94,2.33-.79,4.75-.05,6.62-.35h-5a2.63,2.63,0,0,1-2.31-.83,3.26,3.26,0,0,1-.57-2.85c.5-1.15,1.55-1.23,2.56-1.24q15.19-.11,30.39,0a3.83,3.83,0,0,1,1.81.39A.63.63,0,0,1,271.78,51.13Z" transform="translate(-18 -21.64)"/><path class="cls-9" d="M296.54,100.35a6.48,6.48,0,0,1,5.57,4.2c.9,3.86.41,7.78.43,11.68-1,2.89-2.84,4.78-6,5.14-5.12-.16-10.24-.29-15.36-.16-1.22-.2-1.51-1.26-1.9-2.16-2.28-5.36-4.76-10.64-6.89-16.06-.34-.87-1.1-1.89.34-2.57,7.64-.06,15.28-.32,22.92.14A1.51,1.51,0,0,0,296.54,100.35Z" transform="translate(-18 -21.64)"/><path class="cls-10" d="M88.7,150.7c4.18,1,8.05.68,11.27-2.56.31-1,.79-1.77,1.93-1.9a9.87,9.87,0,0,1,5.42,6.54c-.34.64,0,1.36-.25,2,.28-.4-.11-1,.38-1.25a5.94,5.94,0,0,1,0,4.45c-.31-.14-.17-.5-.35-.73.17.52-.1,1.08.26,1.55-.89,8.8-1.75,17.61-2.06,26.46-.11,3.34-.27,6.67-.41,10-1.63,1.32-3.53.57-5.32.73a20.43,20.43,0,0,1-4.16-.17,1.74,1.74,0,0,1-.71-.42.57.57,0,0,1,.18-.71c2.85-.14,5.7,0,7.91-.07-2.18-.06-5,0-7.84,0-.87-.82-.29-1.75-.16-2.61,1.07-6.84,2.78-13.58,2.61-20.59a14.26,14.26,0,0,0-2.35-7.92Q92,159,89.37,154.12c-.54-1-1.37-2-.8-3.25Z" transform="translate(-18 -21.64)"/><path class="cls-11" d="M201.53,232.27c-3,0-5.93.09-8.89.09h-74.2c-.86,0-1.71-.08-2.57-.13-.21-1.62.27-2.44,2.12-2.22a27.33,27.33,0,0,0,3.91-.07c1.17,0,2.33.08,3.5.08h69.71a14.67,14.67,0,0,0,5.07-.65,7.84,7.84,0,0,0,5.45-7.63c0-1,0-2,0-3,0-6.38-3.33-9.69-9.81-9.72-5.54,0-11.07,0-16.61,0H125c-1.17,0-2.33.07-3.5.1a20.09,20.09,0,0,1-3-.14c-.88-.17-2.44.86-2.5-1.05s1.48-1.19,2.41-1.2c3.89-.06,7.78,0,11.67,0,1.32,0,2.64-.05,4-.08,1.08-.86,2.37-.64,3.6-.64h46c1.11,0,2.21-.24,3.32-.26a12.43,12.43,0,0,0,2.82.27c3.49,0,7,0,10.48,0a5.15,5.15,0,0,1,1.21.17c4.88,1.54,7.69,4.58,7.91,10,.11,2.8.47,5.55,0,8.35C208.42,229,206.06,231.44,201.53,232.27Z" transform="translate(-18 -21.64)"/><path class="cls-9" d="M94.89,194.89a1.43,1.43,0,0,0-.13.32c-.67,1-1.75.88-2.72.87-1.84,0-3.69,0-5.54-.13a2.24,2.24,0,0,1-1.16-.65c.37-7,.7-14,1.13-21,.37-6,.46-12,.35-18a15,15,0,0,1,.89-5,.6.6,0,0,1,.86-.46,43.46,43.46,0,0,0,6.21,10.88c3.74,4.87,3.69,10.29,3.06,15.76-.65,5.68-1.92,11.29-2.91,16.92A.41.41,0,0,1,94.89,194.89Z" transform="translate(-18 -21.64)"/><path class="cls-12" d="M279.69,193.5c3,3.18,6,3,9.34-1.1,0,3.44,0,6.39,0,9.34,0,.55-.62,1.76.91,1.49a7.45,7.45,0,0,1,3.33-1.82c1.21-.33,2.48-.66,2.59-2.22.31-4.24,3-6.2,6.76-7.08a21.64,21.64,0,0,1,5.21-1,2.26,2.26,0,0,1,2.51,1.25,1.87,1.87,0,0,1-.72,2.46c-1.3.73-.48,2-.92,2.85-.22,4.32-1.81,7.07-5.15,7.19-4.89.18-7.59,3.88-11.28,6l-.38.2a13,13,0,0,1-5.64,3.4c-1.27.46-2.71.73-3.79-.6a5.6,5.6,0,0,1-2.47-4.93c-.17-4.64-.58-9.27-.9-13.9C279.11,194.39,278.55,193.62,279.69,193.5Z" transform="translate(-18 -21.64)"/><path class="cls-13" d="M187,206.12c-.91.29-1.77.87-2.8.47a5,5,0,0,0-2.52-.22l-45.09,0a5.47,5.47,0,0,1-2.53-.2c-.57-1.35.36-1.38,1.25-1.4,1.47,0,2.94,0,4.41-.06a4.26,4.26,0,0,1,2.26-.42c13.61,0,27.23-.05,40.84,0,3.78-.78,5.57-2.88,5.59-6.59,0-1.09,0-2.18,0-3.28,0-4.21-2.72-6.92-7-7-1.69.64-3.38,0-5.07,0-12,.11-24.09,0-36.14,0a13.26,13.26,0,0,0-5.07-.33c-1.44.13-1.36-.59-1-1.55,8.5,0,17,.22,25.49,0,33.66-.95,67.32-.09,101-.45l14.06.08a4.4,4.4,0,0,1-.45,2.36,46.29,46.29,0,0,0-5.83-.28h-75.2c-.54,0-1.09,0-1.63,0-1.11,0-1.55.23-1,1.5,1.71,4.28,1.21,8.69.59,13.09a16.07,16.07,0,0,1-1.25,2.29,16.92,16.92,0,0,1-2,1.66C187.56,205.94,187.23,205.94,187,206.12Z" transform="translate(-18 -21.64)"/><path class="cls-14" d="M393,234.7c-.57,1.2-1.68.93-2.66.93H296.41c-31.44,0-62.88.4-94.31-.12-26.19-.43-52.37-.19-78.55-.26-5.74,0-11.51.63-17.25.31s-11.31.08-17,.08H31.67a6.26,6.26,0,0,1-2.28-.25c-.75-.3-1.44-.94-.18-1.62h0c1.21.81,2.58.45,3.88.45l355.78,0c1.38,0,2.82-.32,4.13.45Z" transform="translate(-18 -21.64)"/><path class="cls-15" d="M106.46,119.44a5.38,5.38,0,0,0-5.27-3.63c-.48-2.82-2.25-4.62-4.52-6.21-1.19-.84-1.19-2.45-.92-3.89s.79-2.69,1-4.06a3.93,3.93,0,0,0-3.08-4.72c-1.56-.2-2.16.47-1.7,2s1.14,2.74.81,4.29a10.58,10.58,0,0,0-.06,4.46,2.07,2.07,0,0,1-.1,1.06,1.21,1.21,0,0,1-1.16.68c-1.17-.43-1.69-1.51-2.41-2.4-1.64-2-2-2.05-3.67-.13A10.1,10.1,0,0,1,83.07,109c-1,.61-2.09,1.05-3.2.15s-2.35-1.57-2-3.28c3.16.91,3.37.84,5.06-2.42a9.24,9.24,0,0,1,2.71-3.42,11.81,11.81,0,0,0,3.51-3.92,6,6,0,0,1,5.33-3.4c2.59-.23,5.18-.7,7.77,0,4.07,2.29,4.48,5.16,1.22,8.54-1.88,1.95-1.69,2.78.84,3.79,3.11,1.23,3.59,1.94,3,5.26a4,4,0,0,0,1.16,4,4.35,4.35,0,0,1,1.28,4.24C108.91,119.89,107.64,119.45,106.46,119.44Z" transform="translate(-18 -21.64)"/><path class="cls-16" d="M129.4,97.5c9.81,0,19.63,0,29.44,0a7.4,7.4,0,0,0,7.1-7c.06-2.65,0-5.3,0-7.94-.06-3.23-2.93-6.71-6.09-7-9.78-1-19.59-.3-29.39-.39-.19,0-.39.22-.59.34h-.44c-1.76-.16-2.8-.81-1.88-2.78l32.74,0c4,.61,7.18,2.45,8,6.59a37.29,37.29,0,0,1,0,14.52,6.65,6.65,0,0,1-6,5.56c-1.88,1.25-4.06.24-6,.78a1.74,1.74,0,0,1-1.47.12l-25.22,0c-1.15,0-2.56.24-2.31-1.66C127.36,97.23,128.53,97.62,129.4,97.5Z" transform="translate(-18 -21.64)"/><path class="cls-6" d="M89.21,147.24l.14.18c2.11,2.2,2.11,2.2-.74,3.25-3.9.2-7.66,1.21-11.46,2-2.11.43-3.93.52-5.3-1.43-.14-3.25-2.36-5.62-5.36-5.7-1.11-1.16-3.31-2.27-2.94-3.55s2.84-1,4.38-1.29c3.57-.76,7.18-1.35,10.76-2a2.9,2.9,0,0,1,2.25.07,4,4,0,0,1,3,2.88,9.66,9.66,0,0,1-.17,1.84c-.14,2.25,1,3.45,3.25,3.56C87.73,147,88.53,146.62,89.21,147.24Z" transform="translate(-18 -21.64)"/><path class="cls-10" d="M242.7,69.73l.47-.35.41-.07c5-.15,9.93,0,14.9-.05a3.38,3.38,0,0,1,2.22.54,1.46,1.46,0,0,1,.23,1.83,2,2,0,0,1-1.07,1L259,73.8c-3.18.5-4.8,3-4.75,7.17l-1.68,2.14-.31-.06c-2.26.13-4.55-.38-6.8.25a2.46,2.46,0,0,1-.68.21c-2.64-.21-5.29-.41-7.69-1.72a1.39,1.39,0,0,1-.26-1.37,1.27,1.27,0,0,1,.64-.61c3.88-1.81,4.14-2.44,2.63-6.48A4.11,4.11,0,0,1,242.7,69.73Z" transform="translate(-18 -21.64)"/><path class="cls-7" d="M135.49,148.09c5.53,0,11.06,0,16.59,0,2.6,0,5.13,1.83,5.4,3.86.5,3.68-.84,5.62-4.27,6.57a20.25,20.25,0,0,1-5.33.31c-4.6.05-9.19,0-13.79,0,2.63-.84,2.07-3.2,2.3-5.09A12.49,12.49,0,0,0,135.49,148.09Z" transform="translate(-18 -21.64)"/><path class="cls-12" d="M295.24,174.35c-.25.65-.48,1.31-.76,1.94a3.8,3.8,0,0,1-7.25-2.22c.12-.68.27-1.35.41-2A14.19,14.19,0,0,0,289,168.2c-.37-1.53.3-2.89.68-4.29a1.52,1.52,0,0,1,.87-1.05c4.81-1.7,9.62-3,14.32.31a1.8,1.8,0,0,0-1.33,2c0,4.12-2.33,6.73-6.4,7.16C295.76,172.49,295.28,173.09,295.24,174.35Z" transform="translate(-18 -21.64)"/><path class="cls-17" d="M244.54,40.38c-.55,3.68-3.16,5.53-6.21,7-2.51,1.41-5.16.65-7.77.48-.33-.18-.66-.36-.52-.83A3.07,3.07,0,0,1,232.14,46c.78-.11,0-.46.15-.66.24-.59.8-.68,1.3-.87a5.67,5.67,0,0,0,3.74-5.12c1.79-2.08,2.41-4.24.37-6.54a16.24,16.24,0,0,1-1-1.32,7.67,7.67,0,0,1-.71-2.18,8.34,8.34,0,0,0-4.07-5.6c-.61-.33-1.54-.49-1.38-1.55,1.85,0,3.7-.12,5.55-.07a8.62,8.62,0,0,1,8.45,7.13Q244.62,34.78,244.54,40.38Z" transform="translate(-18 -21.64)"/><path class="cls-18" d="M85.35,195.3l.93.1c2.88.76,6,.53,8.64,2.27a3.16,3.16,0,0,1-.06,2.48c-1.94,7.68-4.16,15.28-5.76,23a3.65,3.65,0,0,1-.54,1c-1.23,1.38-1.94,3.11-3.05,4.57s-1.48,1.41-2.84.57c1.9-.49,2.44-2,2.7-3.68a60.15,60.15,0,0,0,.32-13.05C85.34,206.81,85.36,201.06,85.35,195.3Z" transform="translate(-18 -21.64)"/><path class="cls-11" d="M237.06,81.6l8.23,1.58a9.31,9.31,0,0,1,4.35.4c.81,1.26,2.24.9,3.37,1.17,3.39.79,6.82,1.44,10.25,2a5,5,0,0,1,4.26,3.38c1.33,3.38,2.87,6.68,4.32,10,.07.24.33.39.33.66l8.56,20.14a.52.52,0,0,1,.06.65l-.17,1.19a.29.29,0,0,1-.49,0Q273.59,108.82,267,94.89c-.3-.63-.75-1.19-1-1.83-.61-1.51-1.49-2.16-3.09-.86l-.24-2.81c-1,1.55-1.65,1.45-2.7.49-2.55-2.34-5.94-2.67-9.14-3-7.08-.82-14.16-1.74-21.29-2,0-.72.59-.85,1.1-.92A21.73,21.73,0,0,0,237.06,81.6Z" transform="translate(-18 -21.64)"/><path class="cls-17" d="M109.78,118.62a8.05,8.05,0,0,0-2.71-4.92c-1-.77-.62-2-.39-3.05.76-3.49.53-3.89-2.87-5.06-2.59-.89-3.12-2.24-1.6-4,3.93-4.55,3.93-4.8,0-8.79,1.87-.08,2.83,1.19,3.54,2.59a5.71,5.71,0,0,0,4.61,3.1c3.86.64,5.83,2.81,6.36,6.66a3.76,3.76,0,0,1-2.56,4.41c-3.7,1.54-3.69,1.55-3.49,5.63C110.78,116.43,110.9,117.7,109.78,118.62Z" transform="translate(-18 -21.64)"/><path class="cls-19" d="M230.17,47.51l8.16-.13c11.46,0,22.93.09,34.4,0,1.9,0,2.6.54,2.24,2.38-1.27-.35-1.88,1.59-3.23.93-10.73,0-21.45,0-32.18,0-.88,0-2.13-.58-2.5.94-1.17,0-1.57-1.4-2.68-1.53-1.35-.86-3.06-.81-4.4-1.7A.67.67,0,0,1,230.17,47.51Z" transform="translate(-18 -21.64)"/><path class="cls-20" d="M206.65,45.1l1-.46a2.88,2.88,0,0,1-1.09,3.55,2.73,2.73,0,0,1-1.69.07c-4.34-.4-8.69-.12-13-.17-4.74-.05-9.47,0-14.21,0a4.32,4.32,0,0,1-2.71-.43c-9.71,0-19.41-.09-29.12-.08-1.62,0-2.4-.36-1.61-2.09,3.26-.08,6.49-.58,9.75-.59,16,0,31.94,0,47.9,0C203.45,44.84,205,45.38,206.65,45.1Z" transform="translate(-18 -21.64)"/><path class="cls-21" d="M134.43,241.2H99.34c-.39,0-.78,0-1.17,0-.65-.06-1.72.21-1.66-.71s1.12-.61,1.77-.61q15.32,0,30.65,0h40.7c.55,0,1.09,0,1.64,0s1.32-.06,1.33.6c0,.85-.85.69-1.44.72s-.94,0-1.4,0Z" transform="translate(-18 -21.64)"/><path class="cls-21" d="M334.7,240.42c-.8,1-1.79.77-2.69.77H260.62a13.74,13.74,0,0,1-1.4,0c-.4,0-.85-.23-.88-.64-.05-.67.55-.61,1-.64s.94,0,1.4,0q35.57,0,71.15,0C332.77,239.88,333.76,239.54,334.7,240.42Z" transform="translate(-18 -21.64)"/><path class="cls-22" d="M95.26,195.41h4.17a4,4,0,0,1,.86,2.6,44.35,44.35,0,0,0,3.11,12.82c1,2.38,1.06,5,1.6,7.45l.11,5c-.48,2.41-2.05,4.22-3.48,6.07a1.45,1.45,0,0,1-2.5,0,.38.38,0,0,1-.11-.24c2.66-2,2.86-4.64,2.25-7.71-1.7-8.54-4.33-16.84-6.25-25.31A.94.94,0,0,1,95.26,195.41Z" transform="translate(-18 -21.64)"/><path class="cls-23" d="M296.94,188.33a55.36,55.36,0,0,0,.59-11.22,1.83,1.83,0,0,1,.38-1.51c3.52,1.75,5.85,4.82,8.43,7.62,2,4.46-.74,7.83-6.14,7.56C298.77,190.42,297.5,189.86,296.94,188.33Z" transform="translate(-18 -21.64)"/><path class="cls-18" d="M324.6,190.24c1.45,3.07,2.07,6.08-.91,8.67-2.31,2-4.87,1.51-7.45.65-2-1.22-1.41-3-1-4.73a31.86,31.86,0,0,1,1.4-3.93C318.46,187.06,322,186.77,324.6,190.24Z" transform="translate(-18 -21.64)"/><path class="cls-24" d="M299.91,190.26c5.17.26,7-1.76,6.43-7,2.29,2,4.59,4.09,6.87,6.14a5.5,5.5,0,0,0,2,1.46,2.2,2.2,0,0,1,.55,2.08,7.58,7.58,0,0,1-.3,1.78,3.18,3.18,0,0,1-.3.63c-.68,1.07-.33,2.56-1.42,3.46-1.87.41-3.34-.87-5-1.17a1.58,1.58,0,0,0-.59-1.2c-.76-.77-1.05-1.33.43-1.61a1.67,1.67,0,0,0,1.43-2.23c-.34-1.2-1.44-1.07-2.32-.94-1.74.26-3.47.67-5.2,1C301.27,192.24,300.12,191.75,299.91,190.26Z" transform="translate(-18 -21.64)"/><path class="cls-25" d="M174.9,47.65q14.75-.05,29.5-.09a2.57,2.57,0,0,1,.83.31c-.88.91-2,.66-3.08.67-7.15,0-14.31,0-21.46,0a7,7,0,0,0-3,.33c-8.18,2.52-9,13.16-5.28,18.56,1.94,2.81,4.89,3.66,8.18,3.65q13.44,0,26.87,0c1.15,0,2.35-.19,3.4.54.23.4.28.77-.18,1.06-10.52,0-21,0-31.55,0a22,22,0,0,1-3.44-.45c-5.46-2.14-8.49-8.64-7.22-15.08A14.71,14.71,0,0,1,174.9,47.65Z" transform="translate(-18 -21.64)"/><path class="cls-17" d="M286.74,159.33a10.51,10.51,0,0,1,17.26-2.2,4.76,4.76,0,0,1,1.48,3.56,2.13,2.13,0,0,1-2.62.91,10.13,10.13,0,0,1-2.61-1,9.07,9.07,0,0,0-7.16-.66C291,160.55,288.69,161.16,286.74,159.33Z" transform="translate(-18 -21.64)"/><path class="cls-26" d="M208.94,106.89c-.36-2.17-2.16-3.09-3.7-4.22a2.18,2.18,0,0,0-.46-.71c-.27-.39-.76-.71-.48-1.31a2.61,2.61,0,0,1,1.12-.54,4.14,4.14,0,0,1,1.31.06,6.39,6.39,0,0,1,2.27,1,8.67,8.67,0,0,1,3.47,7.75c-.06,1.4,0,2.8,0,4.2a8.47,8.47,0,0,1-3.93,7.73,7.44,7.44,0,0,1-2.2,1,18.26,18.26,0,0,1-3.77-.08,34.53,34.53,0,0,0-5.37-.13c-13.32.12-26.64-.22-40-.21a3.38,3.38,0,0,1-2.46-.46l0-.45c.37-.93,1.09-.69,1.78-.53,13.73-.24,27.46-.12,41.19-.14,1.48,0,3,0,4.44.07a1.33,1.33,0,0,0,.73-.29,8.55,8.55,0,0,0,6-4c1-.55.35-1.44.41-2.16.17-1.91-.18-3.84.26-5.74.07-.3.07-.54,0-.23,0,0-.14,0-.22.05a.78.78,0,0,1-.49-.15A.44.44,0,0,1,208.94,106.89Z" transform="translate(-18 -21.64)"/><path class="cls-27" d="M105,218.27c-1.38-1.49-.89-3.54-1.58-5.27a51.55,51.55,0,0,1-4-17.6l5.47-.1Q104.94,206.79,105,218.27Z" transform="translate(-18 -21.64)"/><path class="cls-28" d="M286.74,159.33a8.89,8.89,0,0,0,6.14,0c3.32-1.41,6.19-.09,9.06,1.28a3.53,3.53,0,0,0,3.54,0,2.46,2.46,0,0,1-.57,2.47c-.47,0-1,.1-1.38-.12-4-2.63-8-.73-12,0a1.64,1.64,0,0,0-1.44,1.57A13.4,13.4,0,0,1,289,168.2c-2.64.08-3.69-.85-3.8-3.41A9.49,9.49,0,0,1,286.74,159.33Z" transform="translate(-18 -21.64)"/><path class="cls-29" d="M150,24.55c-1.56,0-3.11-.09-4.67-.07-1.11,0-1.52-.43-1.5-1.53s.64-1.28,1.52-1.25c.39,0,.78,0,1.17,0q36.32,0,72.65,0c1.14,0,2.34-.31,3.42.36-1.24,1.22-2.83.49-4.24.76-2.61.09-5.23,0-7.85,0a7.31,7.31,0,0,1-1.75,0c-20.3-.06-40.61,0-60.91,0-.49,0-1.21-.4-1.44.45,9.46.18,18.88,0,28.31.07,9.12,0,18.23,0,27.35,0a8.18,8.18,0,0,1,3.24.29.67.67,0,0,1,.39.74v.22a5.84,5.84,0,0,1-3,.33c-7.95-.1-15.9-.2-23.83-.06-9.41.16-18.81-.46-28.21-.18A2.25,2.25,0,0,1,150,24.55Z" transform="translate(-18 -21.64)"/><path class="cls-22" d="M79.87,109.19c2.64.35,4.1-1.33,5.45-3.18s2.09-2,3.65-.11c.88,1.07,1.7,2.18,2.54,3.28.26,2.6-1.53,3.7-3.43,4.71h-.33C82.61,114,81.45,113.3,79.87,109.19Z" transform="translate(-18 -21.64)"/><path class="cls-30" d="M95.69,115.38c0,4-2.2,6.83-4.66,9.58-.25.28-.56.63-1,.45s-.37-.79-.42-1.23c-.25-2.67-.2-5.38-1-8a5.85,5.85,0,0,0-.9-2.29l.19-.14c2.07-.25,4.38.26,5.89-1.83C95.36,112.58,95.49,114,95.69,115.38Z" transform="translate(-18 -21.64)"/><path class="cls-31" d="M367.71,229.05c-1.62.9-3.3,1.72-4.85,2.74-1.37.9-2.4,1.24-3.13-.65-.12-.31-.59-.48-.89-.71-.21-.47,0-.81.29-1.16a3.94,3.94,0,0,1,.69-.67c1.58-.68,1.89-2.1,2.07-3.59,1.22-.81,1.67.43,2.27,1,1,.9,1.83,1,2.56-.27.46.39-.06.9.16,1.31,1.65-3.54,4.86-3.47,8.55-4C373.3,226.42,370,227.08,367.71,229.05Z" transform="translate(-18 -21.64)"/><path class="cls-32" d="M89.16,96.15a3.1,3.1,0,0,1-1.59,3.14,13.22,13.22,0,0,0-4.84,5.8c-1.25,2.62-2.75,2.79-4.85.82C78.81,101.36,85.05,96,89.16,96.15Z" transform="translate(-18 -21.64)"/><path class="cls-33" d="M202.89,121.36l3.73,0a14.41,14.41,0,0,1,4.59-.62l43.35,0c1.15,0,2.34-.21,3.42.44a.57.57,0,0,1,.1.81,3.31,3.31,0,0,1-2,.33H209.94a5.53,5.53,0,0,1-1.85-.19c-11.33-.11-22.67,0-34-.05a8.48,8.48,0,0,1-2.54-.13c-4.87,0-9.74,0-14.62-.1-.72,0-1.56.37-2.14-.43.47-.4,1-.26,1.57-.26h45.16A2.57,2.57,0,0,1,202.89,121.36Z" transform="translate(-18 -21.64)"/><path class="cls-34" d="M315.3,194.9l0-1.74c.13-1.16.77-2.24.52-3.46.07-2.13,1.26-3.18,3.25-3.74s3.77-1.41,5.65-2.14c1-.37,1.51-.28,1.18,1-.47,1.8-.86,3.62-1.28,5.43-.46-.28-.92-.56-1.38-.85-2.71-1.74-4.59-1.25-6,1.64-.6,1.24-1,2.57-1.54,3.86C315.57,195.06,315.44,195.05,315.3,194.9Z" transform="translate(-18 -21.64)"/><path class="cls-35" d="M182.8,204.3c-.49.53-1.14.42-1.75.42l-41.35,0,.94-1.35c.77.8,1.77.44,2.66.45,12.29,0,24.58,0,36.87,0C181.05,203.82,182.06,203.45,182.8,204.3Z" transform="translate(-18 -21.64)"/><path class="cls-36" d="M286.66,126.91c1.14.12,2,.57,1.75,1.9a2,2,0,0,1-2.2,1.89,4.06,4.06,0,0,1-3.49-1.44c-.52-.63-1-1.4-1.88-1.66-.61.93.31,2-.32,3.09-1.65-2-3.13-3.88-2.66-6.6a3.78,3.78,0,0,1,4.22.9C283.36,126.21,285,126.52,286.66,126.91Z" transform="translate(-18 -21.64)"/><path class="cls-37" d="M254.23,81c-2.22-3,1-4.66,1.76-6.92.51-1.61,2-.33,3-.26,1.82,3.83,1.2,6.15-1.82,7.17C256.14,81.3,255.2,80.78,254.23,81Z" transform="translate(-18 -21.64)"/><path class="cls-38" d="M99.12,229.36a1.9,1.9,0,0,0,2.67-1c1-1.73,2.2-3.36,3.31-5,1.42.9,1.69,2.15,1.41,3.75a19,19,0,0,0,0,3.42c-.33.57.3,1.41-.77,2l-.68-4.27c-.94.21-1,1-1.2,1.62a3.47,3.47,0,0,1-4.09,2.6c-.93-.1-2,.07-2.22-1.15S98.17,229.66,99.12,229.36Z" transform="translate(-18 -21.64)"/><path class="cls-39" d="M140.18,187.39a5,5,0,0,1,2.74-.4c6.69.19,13.38-.16,20.08.22,2.81.16,5.73-.18,8.61-.21a56,56,0,0,1,9.78.4c-.76.82-1.76.46-2.65.46-11.81,0-23.63,0-35.44,0-.89,0-1.88-.35-2.65.45A1,1,0,0,1,140.18,187.39Z" transform="translate(-18 -21.64)"/><path class="cls-40" d="M260.45,71.76l.57-1.38a2.23,2.23,0,0,1,0-.89,1.19,1.19,0,0,1,.34-.48l9.88-.05,2.32,0c1,2.37.56,3.24-1.83,3.28-3.19.06-6.37,0-9.56,0A2.18,2.18,0,0,1,260.45,71.76Z" transform="translate(-18 -21.64)"/><path class="cls-41" d="M66.5,145.52c1.31-1.33,2.38-1,3.38.42a21.54,21.54,0,0,0,2,2.51,1.72,1.72,0,0,1,0,2.77c-1.83.86-3.68,1-5.13-.56S65.41,147.28,66.5,145.52Z" transform="translate(-18 -21.64)"/><path class="cls-42" d="M230.54,22.12a11,11,0,0,1,6.54,9.22c-2,0-3.41-1.17-4.92-2.21-1-3.27-3.48-5.14-6.66-6.68,1.41-.86,2.57-.52,3.72-.39Z" transform="translate(-18 -21.64)"/><path class="cls-43" d="M101.9,146.24a4.56,4.56,0,0,1-1.93,1.9c-1.51-1.4-3.74-1.37-5.31-2.67-.46-.38-1.11-.55-1.5-1.35,2.84-.94,5.79-1.1,8.65-1.65Z" transform="translate(-18 -21.64)"/><path class="cls-44" d="M206.65,45.1a1.69,1.69,0,0,1-1.5.45l-61-.07c1.91-.65,3.9,0,5.83-.38a4.88,4.88,0,0,1,2.95-.49h49.79a6.14,6.14,0,0,1,3,.42Z" transform="translate(-18 -21.64)"/><path class="cls-45" d="M83.53,141.43,81,138.71c1.46-.57,1.26-1.92,1.41-3.08s.18-2.3.27-3.45c2.05.3,3,1.42,3,3.55a26.11,26.11,0,0,0,.73,4.33C85.6,140.91,84.83,141.73,83.53,141.43Z" transform="translate(-18 -21.64)"/><path class="cls-46" d="M205.26,100.27a1,1,0,0,1-.94.53c-1.05,1-2.36.64-3.56.64-14.68,0-29.36,0-44,0a5.63,5.63,0,0,0-1.17.25.72.72,0,0,1-.72-.06l-.1-1.38.89-.38a10.4,10.4,0,0,1,5.28-.18,34.85,34.85,0,0,0,5.57.35l36.25,0A6.64,6.64,0,0,1,205.26,100.27Z" transform="translate(-18 -21.64)"/><path class="cls-47" d="M257.18,130.31c.09-.6-.08-1.28.48-1.76a2.24,2.24,0,0,1,1.67,1.09,4.85,4.85,0,0,1,.75,1.87,2.35,2.35,0,0,0,2.25,2.12,1.91,1.91,0,0,1,.52.38c1.72.86,1.26,2,.4,3.19-1.57.2-3.18.4-3.92-1.46-.52-1.33-1.12-1.45-2-.41A10.72,10.72,0,0,1,257.18,130.31Z" transform="translate(-18 -21.64)"/><path class="cls-48" d="M229.22,22.06l-2.78.18c2.8,1.52,5.61,3,6,6.72-1.34.91-2.52.14-3.72-.34-1.62-2-3-4.18-5.35-5.44a.8.8,0,0,1-.33-1C225.1,22,227.15,21.33,229.22,22.06Z" transform="translate(-18 -21.64)"/><path class="cls-49" d="M205.71,45a15.67,15.67,0,0,1-1.62.16H150.93a9.21,9.21,0,0,1-.93-.09l.47-.49a3.11,3.11,0,0,1,1.82-.22h51.13a3.12,3.12,0,0,1,1.82.22Z" transform="translate(-18 -21.64)"/><path class="cls-50" d="M150,24.55l55.71.06a3.18,3.18,0,0,0,0,.34,7.53,7.53,0,0,1-3.21.21q-10.59,0-21.19,0a4.36,4.36,0,0,1-2.28-.22h-.47a1.65,1.65,0,0,1-1.26.54c-4.4-.77-8.86.1-13.25-.54H150.47Z" transform="translate(-18 -21.64)"/><path class="cls-51" d="M205.25,44.61H150.47l.46-.47q25.83,0,51.66,0C203.48,44.16,204.48,43.8,205.25,44.61Z" transform="translate(-18 -21.64)"/><path class="cls-52" d="M223,22.15c2.19,1.71,4.7,3.12,5.58,6-1.16,1-2.46.7-3.77.45a2.64,2.64,0,0,1-1.35-1.51,8.3,8.3,0,0,0-4.09-3.9c-.44-.2-1.12-.26-1-1l4.17-.11A1.73,1.73,0,0,1,223,22.15Z" transform="translate(-18 -21.64)"/><path class="cls-53" d="M134,206.16q24,0,47.94,0c.75,0,1.58-.26,2.2.45q-17.51.06-35,.11c-5.06,0-10.12-.07-15.17-.11A3.59,3.59,0,0,0,134,206.16Z" transform="translate(-18 -21.64)"/><path class="cls-54" d="M202.93,119.58a2.61,2.61,0,0,0-.08.36c-.46.42-1,.27-1.56.27H157.49a2.78,2.78,0,0,1-1.37-.18c-.54-.14-.91.24-1.34.44-.16-1.18.72-.93,1.36-.95,1.7,0,3.4-.06,5.09-.09a27.76,27.76,0,0,1,5.1-.13q16.77,0,33.53,0a8.64,8.64,0,0,1,2.55.13Z" transform="translate(-18 -21.64)"/><path class="cls-55" d="M359.31,229.56l-.48.87-.49,0a15.18,15.18,0,0,0-8-1.56,3,3,0,0,1-1.59-.48l-.22-.26c1-1.89,2.77-.78,4.11-.82,2.15-.06,3.74-.69,4.75-2.61.82.07,1.19.81,1.78,1.21a1.44,1.44,0,0,1,.64,1A3.92,3.92,0,0,1,359.31,229.56Z" transform="translate(-18 -21.64)"/><path class="cls-56" d="M154.81,101.68a1.13,1.13,0,0,1,.38-.09,8.81,8.81,0,0,1,3-.33c14,0,27.92,0,41.89,0,1,0,2.23-.58,2.84.83l-.51.16a21,21,0,0,1-4.41.13q-17.47,0-34.94,0a6.08,6.08,0,0,1-2.31-.14C158.81,101.79,156.7,102.87,154.81,101.68Z" transform="translate(-18 -21.64)"/><path class="cls-57" d="M202.89,121.36l-48.11.07,0-.5q22.73,0,45.47,0C201.12,120.94,202.11,120.6,202.89,121.36Z" transform="translate(-18 -21.64)"/><path class="cls-58" d="M272.19,100.79l-.33-.66q11.43,0,22.86,0a12.55,12.55,0,0,1,1.83.26c-.7.73-1.61.43-2.43.43C286.8,100.8,279.49,100.79,272.19,100.79Z" transform="translate(-18 -21.64)"/><path class="cls-59" d="M262.86,134l-.17.06-.18,0a3.38,3.38,0,0,1-2.41-4.26c1.33-1.59,1-3.93,2.52-5.45,1.38-.4,2.74-.65,4,.36-3.23,1.21-3.66,3.79-3.29,6.75C263.42,132.35,263.65,133.27,262.86,134Z" transform="translate(-18 -21.64)"/><path class="cls-60" d="M160.77,102.28h41.65c-.74.65-1.64.37-2.47.37-12,0-24,0-36,0-.89,0-1.89-.36-2.66.45A.88.88,0,0,1,160.77,102.28Z" transform="translate(-18 -21.64)"/><path class="cls-61" d="M202.42,119.43H161.24q0-.19,0-.38,19.48,0,39,0C200.94,119.07,201.76,118.83,202.42,119.43Z" transform="translate(-18 -21.64)"/><path class="cls-62" d="M260.45,71.76c3.48,0,7-.14,10.44.05,2.32.13,3.12-.68,2.7-2.87C275,69,274.95,69,275,70.6c0,1.11.17,2.21-1.57,2.17-4.51-.1-9-.1-13.55-.14A1.07,1.07,0,0,1,260.45,71.76Z" transform="translate(-18 -21.64)"/><path class="cls-63" d="M171.54,122h36.52q.16.13.11.25t-.1.13H171.52Q171.54,122.13,171.54,122Z" transform="translate(-18 -21.64)"/><path class="cls-64" d="M266.6,124.69l-4.1,0c-.85-1-.26-1.86.16-2.77a1.12,1.12,0,0,1,.67-.3,33.08,33.08,0,0,0,5.5,0,1.06,1.06,0,0,1,.68.28c.82,1.73-.33,2.53-1.56,3.3Z" transform="translate(-18 -21.64)"/><path class="cls-65" d="M82.68,229.31a1.53,1.53,0,0,0,2.29-.69c1-1.64,2.09-3.2,3.14-4.79,1,1.92-.2,3.42-1,5-1.41,2.71-3.19,3.48-6.07,2.63-.66-.9.25-1.31.59-1.9Z" transform="translate(-18 -21.64)"/><path class="cls-66" d="M302.54,116.23c-1.1-1.4-.16-3-.36-4.44-.28-2.08.53-4.26-.59-6.28-.09-.17.33-.63.52-.95C303.65,108.39,303.19,112.31,302.54,116.23Z" transform="translate(-18 -21.64)"/><path class="cls-67" d="M280.81,121.58l-.06-.65c4.46,0,8.92,0,13.39,0,.81,0,1.71-.3,2.41.43C291.3,121.95,286.05,121.51,280.81,121.58Z" transform="translate(-18 -21.64)"/><path class="cls-68" d="M286.66,126.91a5.08,5.08,0,0,1-4.54-1.3,5.64,5.64,0,0,0-4.27-1.52l-.39-.86c1,.27,1.93.47,2.68-.49l.49,0C282.15,124.86,284.52,125.72,286.66,126.91Z" transform="translate(-18 -21.64)"/><path class="cls-69" d="M244.54,40.38a30,30,0,0,1,0-11.2A31.49,31.49,0,0,1,244.54,40.38Z" transform="translate(-18 -21.64)"/><path class="cls-7" d="M134.09,158.85c-.12,1.64,1,1.41,2,1.41,4.75,0,9.5,0,14.25,0,.82,0,1.73-.29,2.44.43l-17.3,0C134.22,160.73,133,160.71,134.09,158.85Z" transform="translate(-18 -21.64)"/><path class="cls-70" d="M359.36,226.69l-.19-.76c.93-.23,2.15.37,2.71-.93.46,2,.61,3.76-2.12,4C359.22,228.33,359.79,227.43,359.36,226.69Z" transform="translate(-18 -21.64)"/><path class="cls-71" d="M271.74,50.7c1.18-.48,2.21-1.09,2.08-2.65,1.08.31.48,1.38,1.15,1.72-.12,2.65-1.65,2-3.19,1.37Q271.75,50.92,271.74,50.7Z" transform="translate(-18 -21.64)"/><path class="cls-72" d="M269.38,121.89l-.48,0a19.19,19.19,0,0,1-5.55,0,1.9,1.9,0,0,0-.33-.11q-.41-.38.05-.69c3.29-.85,6.65-.16,10-.42a4,4,0,0,1,2.93.66l.27.37-6.3.18A.34.34,0,0,1,269.38,121.89Z" transform="translate(-18 -21.64)"/><path class="cls-73" d="M315.3,194.9h.4c-.34,1.62-.49,3.21.54,4.67-.79.17-1.48,1.23-2.39.26.45-1.62.34-3.37,1.1-4.92A1.23,1.23,0,0,0,315.3,194.9Z" transform="translate(-18 -21.64)"/><path class="cls-74" d="M249.65,83.58c-1.56,1-2.91-.23-4.36-.4a.34.34,0,0,1,.22-.18,36.68,36.68,0,0,1,7-.15l.1.12-.07.15C251.67,83.84,250.58,83.22,249.65,83.58Z" transform="translate(-18 -21.64)"/><path class="cls-75" d="M315,194.9a16.82,16.82,0,0,1-1.1,4.92l-.07-1C314,197.43,314,196,315,194.9Z" transform="translate(-18 -21.64)"/><path class="cls-3" d="M127.55,72.71c-.46,1.66.42,2.41,1.88,2.78C126.8,75.48,126.56,75.12,127.55,72.71Z" transform="translate(-18 -21.64)"/><path class="cls-76" d="M315.8,189.7c.7,1.28,0,2.35-.52,3.46l0-2.33C315.7,190.58,315.72,190.13,315.8,189.7Z" transform="translate(-18 -21.64)"/><path class="cls-77" d="M107.46,153.57l-.21,1.9c-.41-1.16-.52-1.95.07-2.69Z" transform="translate(-18 -21.64)"/><path class="cls-77" d="M107.36,158.84c-.58-.52-.48-1.16-.22-2.2l.31,1.38Z" transform="translate(-18 -21.64)"/><path class="cls-78" d="M174.37,178.54a4,4,0,0,0-.33-.32c-2.82-2.18-2.82-2.18-5.7-.07-.23.17-.49.31-1.11.69v-9.7a.87.87,0,0,1,.42-1.18,2.53,2.53,0,0,1,.9-.2c6.28-.85,6.73-.46,6.73,5.79,0,.93,0,1.86,0,2.79C175.1,177.13,175.73,178.25,174.37,178.54Z" transform="translate(-18 -21.64)"/><path class="cls-79" d="M203.53,172.87H186.73c-.62,0-1.24,0-1.86-.07a.59.59,0,0,1-.56-.62.61.61,0,0,1,.59-.6c.54,0,1.09-.06,1.63-.06h33.62q.82,0,1.63,0a.63.63,0,0,1,.65.54c.06.49-.27.7-.69.73s-1.09,0-1.63,0Z" transform="translate(-18 -21.64)"/><path class="cls-80" d="M174.37,178.54c.82-.45.3-1.29.55-1.9a.37.37,0,0,1,.58.27c0,.43.1.82.63.91q19.15,0,38.29,0a3.6,3.6,0,0,1,2.05.22c-.08,1.06-.88.91-1.56.91H175.64C175.17,179,174.69,179,174.37,178.54Z" transform="translate(-18 -21.64)"/><path class="cls-81" d="M175.21,176.65h-.29c0-2.24-.11-4.48-.06-6.71,0-1.19-.37-1.69-1.58-1.64-1.54.06-3.09,0-4.63,0-.66,0-1.24.06-1.42.84-.42-.41-1.33-.42-1.21-1.22s1-.62,1.51-.62q8.61,0,17.23,0c.6,0,1.63-.34,1.59.75,0,.85-.95.6-1.52.61-3,0-6.05,0-9.08,0-.52,1.81-.08,3.67-.25,5.5C175.43,175,175.8,175.89,175.21,176.65Z" transform="translate(-18 -21.64)"/><path class="cls-82" d="M224.92,174.8c2.17,0,4.34,0,6.52,0,.52,0,1.24-.11,1.29.63s-.67.72-1.18.72q-6.87,0-13.73,0c-.51,0-1.24.08-1.17-.72s.79-.61,1.3-.61C220.27,174.79,222.59,174.8,224.92,174.8Z" transform="translate(-18 -21.64)"/><path class="cls-83" d="M227.73,168.65h-5.81c-.54,0-1.26,0-1.31-.63s.67-.72,1.21-.72q5.81,0,11.63,0c.52,0,1.24-.07,1.17.72s-.78.61-1.3.62C231.45,168.66,229.59,168.65,227.73,168.65Z" transform="translate(-18 -21.64)"/><path class="cls-81" d="M216.47,178q-19.26,0-38.53,0c-.89,0-1.89.37-2.64-.46.15-.22.3-.21.45,0q19,0,38.07,0C214.71,177.61,215.7,177.23,216.47,178Z" transform="translate(-18 -21.64)"/><path class="cls-84" d="M200,168.66c-1.78,0-3.56,0-5.34,0-.52,0-1.22,0-1.19-.74,0-.55.63-.61,1.1-.61h11.39c.47,0,1,0,1.05.63,0,.78-.67.72-1.2.72C203.85,168.67,201.91,168.66,200,168.66Z" transform="translate(-18 -21.64)"/><path class="cls-85" d="M244.65,176.15a9.18,9.18,0,0,1-1.07,0c-.62-.08-1.66.3-1.64-.69s1.06-.57,1.69-.65a3.19,3.19,0,0,1,.92,0c.85.14,2.39-.43,2.38.59C246.92,176.77,245.34,175.86,244.65,176.15Z" transform="translate(-18 -21.64)"/><path class="cls-86" d="M246.65,169.19c-.85-.17-2.13.26-2.1-.64,0-1.3,1.42-.7,2.22-.74s1.91-.4,1.84.67C248.54,169.7,247.2,168.81,246.65,169.19Z" transform="translate(-18 -21.64)"/><path class="cls-87" d="M175.75,177.57h-.23l-.23,0-.08-.92c.41-2.64-.5-5.36.54-8Q175.75,173.13,175.75,177.57Z" transform="translate(-18 -21.64)"/><path class="cls-88" d="M210.7,72.7l.05-.94a3.31,3.31,0,0,1-.48-2.34c.62-2.53.14-5.23,1.21-7.68,1-.9,1.31.21,1.73.67a2.87,2.87,0,0,0,4.09.61c1.84-1.23,2.07-.32,1.93,1.29-.3,1.48-.5,3-.72,4.48-.14,2.35-.14,2.35,2.62,2.34,3.7.31,7.39.7,11.06,1.26,1.59.47,3-.22,4.5-.63a4.47,4.47,0,0,1,1.41,0,3.2,3.2,0,0,1,2.34,1.36c2.19,4.24,1,6.77-3.4,7.24a1.85,1.85,0,0,1-2.27-.6c-1.41-1.66-3.21-1.85-5.18-1.67-2.52-.08-5.08.52-7.55-.45-2,0-4-.13-6.05-.14C211.33,77.42,211.11,77.24,210.7,72.7Z" transform="translate(-18 -21.64)"/><path class="cls-89" d="M230,77.54c1.83-.18,3.69-.59,4.82,1.58.4.76,1.4.92,2.21,1.2q0,.64,0,1.28c-1.28,2-3.57,2.08-5.53,2.75a19.71,19.71,0,0,1-2,.47A23.9,23.9,0,0,1,223,84.2a3.37,3.37,0,0,1,.09-.35C225.33,81.69,227.69,79.64,230,77.54Z" transform="translate(-18 -21.64)"/><path class="cls-90" d="M205.26,100.27c-2.64,0-5.28-.13-7.92-.13l-39.65-.08c-.69,0-1.39-.08-2.08-.13,2.13-1.13,4.41-.28,6.6-.52.48.56,1.14.42,1.74.42l62.75,0,.66.17a.75.75,0,0,1-.45.73c-4.16.64-8.35.22-12.53.27-2.61,0-5.28.39-7.8-.68Z" transform="translate(-18 -21.64)"/><path class="cls-91" d="M230,77.54a17.39,17.39,0,0,1-6.92,6.32,25.26,25.26,0,0,1-1-6.26Z" transform="translate(-18 -21.64)"/><path class="cls-92" d="M158.43,224.83H134.8c-.62,0-1.25,0-1.87,0s-1-.23-.9-.83.55-.45.92-.48.78,0,1.17,0h48.67a3.42,3.42,0,0,1,.47,0c.72.1,1.94-.32,1.93.69s-1.23.66-2,.66Q170.83,224.85,158.43,224.83Z" transform="translate(-18 -21.64)"/><path class="cls-93" d="M169.75,220.17c-7.48,0-15,0-22.43,0-.66,0-1.85.45-1.81-.74,0-.93,1.12-.58,1.75-.58q22.43,0,44.86,0a6.38,6.38,0,0,1,1.61.17.91.91,0,0,1,.5.66c0,.37-.33.47-.65.49-.54,0-1.09,0-1.63,0Z" transform="translate(-18 -21.64)"/><path class="cls-94" d="M132.23,214.56c.15-1.2,1.09-.9,1.8-.9q28.37,0,56.73,0c.71,0,1.65-.31,1.81.89a34.16,34.16,0,0,1-6.44.7q-23.74,0-47.47,0A25.26,25.26,0,0,1,132.23,214.56Z" transform="translate(-18 -21.64)"/><path class="cls-95" d="M190.27,215.06c-.41,1.52-1.66.88-2.53.89q-25,.06-50.08,0a39.82,39.82,0,0,0-5.06.46c0-1.15,1.22-.69,1.49-1.35a2.79,2.79,0,0,1,1.81-.24h52.56A2.79,2.79,0,0,1,190.27,215.06Z" transform="translate(-18 -21.64)"/><path class="cls-96" d="M159.47,227.23c3.34,0,6.68,0,10,0,.64,0,1.66-.25,1.66.72,0,.76-.94.62-1.53.63H149.11c-.6,0-1.53.14-1.54-.62,0-1,1-.72,1.64-.72C152.63,227.22,156.05,227.23,159.47,227.23Z" transform="translate(-18 -21.64)"/><path class="cls-97" d="M190.27,215.06H134.09c-.64-.11-1.39.21-1.86-.5h60.35C192,215.38,191,214.89,190.27,215.06Z" transform="translate(-18 -21.64)"/><path class="cls-98" d="M191.55,227.63c-1.39,0-2.79,0-4.18,0-.49,0-1-.2-1.06-.71s.53-.64,1-.65q4.41,0,8.83,0c.36,0,.85-.05.93.46s-.4.84-.85.85c-1.55,0-3.09,0-4.64,0Z" transform="translate(-18 -21.64)"/><path class="cls-99" d="M133,226.17c.8.35,2.17-.44,2.17.74,0,1-1.34.77-2.14.72s-2.09.5-2.07-.7S132.41,226.58,133,226.17Z" transform="translate(-18 -21.64)"/><path class="cls-100" d="M263.09,121.36l-.08.46-.51,2.84c-.62,1.73-.12,3.92-2.06,5.12a.88.88,0,0,1-1.32,0l-1.45-1.27.08-2c.64-1.1.08-2.26.18-3.39,0-.42-.25-.85.07-1.25v-.48a3.92,3.92,0,0,1-.38-.77,120.6,120.6,0,0,1,1-14.15c.53-5.45.67-5.44-4.74-5.44-5.91,0-11.82,0-17.73,0-1.13,0-2.37.23-3.28-.78,5.87-1.22,11.73-2.46,17.6-3.67,2.94-.6,5.9-1.13,8.84-1.74,1.5-.31,2.64-.21,3.43,1.44,1.13,2.37,2.51,4.61,3.78,6.91-.11,4.22-1.28,8.29-1.86,12.44a46.62,46.62,0,0,1-.93,4.81A4.4,4.4,0,0,1,263.09,121.36Z" transform="translate(-18 -21.64)"/><path class="cls-101" d="M257.69,142.93h-.46a7.29,7.29,0,0,0-4.15-1c-13.18.09-26.36.06-39.54.05-.35,0-.79.07-1-.79h41c-.8-.81-1.66-.58-2.49-.58-12.32,0-24.65,0-37,0-.89,0-1.89.36-2.65-.46.9-.68,1.94-.44,2.93-.45q21.23,0,42.46,0c.38,1.48-1.31.5-1.56,1.45,2.26,1.77,5-.55,7.55.87C261.09,143.14,259.11,141.74,257.69,142.93Z" transform="translate(-18 -21.64)"/><path class="cls-102" d="M186.94,135.73h47C231.58,137.19,189.09,137.16,186.94,135.73Z" transform="translate(-18 -21.64)"/><path class="cls-103" d="M254,131.71c.54.09,1.27.18,1.17.85-.13.86-1,.54-1.55.54q-12.62,0-25.25,0h-5.45l0-.86c2.77-1.11,5.78-.15,8.63-.54,3.47-.53,7-.23,10.43-.21C245.91,131.52,249.94,131.15,254,131.71Z" transform="translate(-18 -21.64)"/><path class="cls-104" d="M256.74,139.65a3.78,3.78,0,0,1-2.23.49l-43.16,0c.09-1,.83-1,1.55-1h42.6A1.4,1.4,0,0,1,256.74,139.65Z" transform="translate(-18 -21.64)"/><path class="cls-101" d="M255.82,142.93c-.62.7-1.44.45-2.19.45q-19.35,0-38.7,0c-.75,0-1.57.25-2.19-.44.69-.77,1.61-.46,2.42-.46q18.14,0,36.27,0A42.69,42.69,0,0,1,255.82,142.93Z" transform="translate(-18 -21.64)"/><path class="cls-105" d="M190.58,128.41c1.85-.71,37-.69,38.72,0C227.47,129.14,192.32,129.12,190.58,128.41Z" transform="translate(-18 -21.64)"/><path class="cls-106" d="M254,131.71H231.46c.45-.59,1.1-.48,1.71-.48h19.08C252.85,131.23,253.51,131.12,254,131.71Z" transform="translate(-18 -21.64)"/><path class="cls-107" d="M175.86,132.86a12.11,12.11,0,0,1,8.13,0Z" transform="translate(-18 -21.64)"/><path class="cls-108" d="M257.18,130.31l.12,5C256.26,133.68,256.61,132,257.18,130.31Z" transform="translate(-18 -21.64)"/><path class="cls-109" d="M258.09,123.15c0,1.15.94,2.38-.34,3.39l-.1-1.86.1-1.31A.25.25,0,0,1,258.09,123.15Z" transform="translate(-18 -21.64)"/><path class="cls-110" d="M224.49,28.14l4.13.06,3.82.76,4.63,2.38.9,1.11c.56,2.27-.36,3.46-2.58,3.27a9.09,9.09,0,0,1-3.1-1,7.36,7.36,0,0,0-5.25-.45,39.38,39.38,0,0,0-9.83,4.27c-4.76,2.87-5.78,7.67-6.6,12.58a19.16,19.16,0,0,1-1,4.56c-.85,2-2,2.21-3.77,1a9.83,9.83,0,0,1-.2-4.7,24.48,24.48,0,0,0,.52-3.38,2.67,2.67,0,0,1,.39-.65c.74-1,.64-2.2,1.06-3.27a34.54,34.54,0,0,1,5.75-9.89,1.72,1.72,0,0,1,.16-.57,2.66,2.66,0,0,1,.52-.75,21.51,21.51,0,0,1,2.41-2C218.88,29.65,221.25,27.83,224.49,28.14Z" transform="translate(-18 -21.64)"/><path class="cls-111" d="M213.75,34.34l-.35.41A20.91,20.91,0,0,0,213,30c-1.09-3.45-3.87-5-7.28-5.57q0-.18,0-.35c-.69-.56-1.5-.25-2.24-.25q-28.05,0-56.11,0a6,6,0,0,1-2.54-.19c-.25-.63-.12-1.08.62-1.17a15.86,15.86,0,0,1,1.87,0h59.1a8.28,8.28,0,0,0,2.55-.13h1.4c3.67.42,6.39,4.59,6.67,7.21a3.38,3.38,0,0,1-.49,2.44L214.19,34a4.8,4.8,0,0,1,.13-3.23C213.58,32.16,214.2,33.33,213.75,34.34Z" transform="translate(-18 -21.64)"/><path class="cls-112" d="M176.57,29.64c4.82,0,9.65,0,14.47,0,.62,0,1.67-.42,1.75.53s-1,.8-1.63.8q-14.7,0-29.41,0c-.6,0-1.53.15-1.54-.62,0-1,1-.72,1.65-.72C166.77,29.63,171.67,29.64,176.57,29.64Z" transform="translate(-18 -21.64)"/><path class="cls-113" d="M160.32,40.38c.12-1.21,1.06-.92,1.78-.92q18.12,0,36.23,0c.73,0,1.66-.26,1.77.94a6.59,6.59,0,0,1-3,.36c-11,.07-22.09.35-33.13-.12C162.77,40.59,161.51,40.91,160.32,40.38Z" transform="translate(-18 -21.64)"/><path class="cls-114" d="M202.11,35h-28.4v-.48h28.4Z" transform="translate(-18 -21.64)"/><path class="cls-115" d="M160.32,40.38l39.78,0c-.66.78-1.56.34-2.35.48q-16.85.54-33.69,0C162.82,40.63,161.46,41.36,160.32,40.38Z" transform="translate(-18 -21.64)"/><path class="cls-116" d="M164.06,40.88h33.69c-.53.65-1.28.45-2,.45q-14.89,0-29.79,0C165.34,41.33,164.59,41.52,164.06,40.88Z" transform="translate(-18 -21.64)"/><path class="cls-117" d="M199.34,28.17c-1.47,0-2.94,0-4.4,0-.42,0-.8-.2-.8-.65s.38-.65.8-.65q4.64,0,9.27,0c.4,0,.84.11.81.6a.79.79,0,0,1-.81.69c-1.62,0-3.24,0-4.87,0Z" transform="translate(-18 -21.64)"/><path class="cls-118" d="M179,24.95h26.68c-.45.59-1.11.47-1.71.47H180.75C180.14,25.41,179.49,25.53,179,24.95Z" transform="translate(-18 -21.64)"/><path class="cls-118" d="M164.05,24.95h14.51v.86a2.07,2.07,0,0,1-2.82,0c-2.92-.91-5.91-.16-8.85-.42C165.94,25.32,164.89,25.78,164.05,24.95Z" transform="translate(-18 -21.64)"/><path class="cls-119" d="M161.2,28.3c-.8-.37-2.22.41-2.08-.86.13-1.1,1.54-.54,2.38-.58.68,0,2-.38,1.88.62C163.28,28.84,161.83,27.78,161.2,28.3Z" transform="translate(-18 -21.64)"/><path class="cls-120" d="M175.75,25.83l2.82,0c.61,1.78-.87,1-1.39,1S175.32,27.44,175.75,25.83Z" transform="translate(-18 -21.64)"/><path class="cls-121" d="M332.61,231.39a39.17,39.17,0,0,1-7.9-.4c-5.15-.63-10.23.38-15.34.82a236.61,236.61,0,0,1-26.36.46c-4.36-1.45-6.53-4.65-7.19-9,0-1.14-.21-2.3.4-3.37,1.28-.41,1.2.43,1.16,1.24a10.31,10.31,0,0,0,9.61,7.14,22.09,22.09,0,0,0,12.48-2.86c5.37-3,11-5.55,16.48-8.29,3.22-1.6,3.22-1.6,3.75-4.9.76.37.55,1.26,1,1.77s.18,2.46,1.43.47c.41-.65.94.15,1.28.5,4.42,4.47,10.25,6.68,15.55,9.75a3.12,3.12,0,0,0,3.33.12c.75-.45,1.49-.69,1.68.58a1.81,1.81,0,0,1-.26,2.4c-.84.54-2,.75-2,2.08s-1,1.34-2,1.36C337.24,231.26,334.91,230.91,332.61,231.39Z" transform="translate(-18 -21.64)"/><path class="cls-10" d="M277.36,221.1l-.83-1.3c-.73-.3-1-.76-.54-1.5a13.2,13.2,0,0,0,6.52-4.53c2.38.94,4.38-.1,6.37-1.22,1-.56,2-1,3.06-1.57.07,1.32.22,2.63.2,4,0,3.54-1.49,6.34-4.71,8s-6.16,1.08-9-1C278.09,221.67,277.73,221.38,277.36,221.1Z" transform="translate(-18 -21.64)"/><path class="cls-122" d="M345.6,226.31c.49-1.53,1.14-1.63,1.83-.15.32.69.4,1.5,1.1,2h0c.48.61.95,1.23.39,2-3,.73-4.22-.31-3.74-3.25A1.54,1.54,0,0,1,345.6,226.31Z" transform="translate(-18 -21.64)"/><path class="cls-123" d="M345.6,226.31q0,.21.06.41c-.87,2-1.26,2.17-2.36.92a4.73,4.73,0,0,0,.6-2.28Z" transform="translate(-18 -21.64)"/><path class="cls-124" d="M171.24,190H143.79v-.49h27.44Z" transform="translate(-18 -21.64)"/><path class="cls-125" d="M159,195.81c-2.56,0-5.13,0-7.69,0-.59,0-1.44.13-1.44-.72,0-.67.76-.64,1.3-.64h15.62c.52,0,1.27-.12,1.3.61,0,.95-.83.73-1.39.74C164.17,195.83,161.6,195.81,159,195.81Z" transform="translate(-18 -21.64)"/><path class="cls-126" d="M179.25,201.45h-15.4c-.36,0-.84.05-.93-.46a.65.65,0,0,1,.66-.77c4.95,0,9.91-.52,14.84.29C178.58,200.51,178.69,200.79,179.25,201.45Z" transform="translate(-18 -21.64)"/><path class="cls-127" d="M179.52,193H174.6c-.48,0-1,0-1.06-.64s.52-.7,1-.7h10.06c.48,0,1.06.09,1.08.65s-.55.69-1,.69C182.95,193,181.23,193,179.52,193Z" transform="translate(-18 -21.64)"/><path class="cls-107" d="M156.87,201.46c-3.13,0-5.6,0-8.07,0-.36,0-.87.06-.91-.46a1,1,0,0,1,.44-.7C149.32,199.66,155.25,200.22,156.87,201.46Z" transform="translate(-18 -21.64)"/><path class="cls-105" d="M149.87,83c2.73,0,5.45,0,8.18,0,.43,0,1.07-.11,1.09.54s-.53.51-1,.56a134.56,134.56,0,0,1-16.32.13c-.5,0-1.52.25-1.44-.7s1-.51,1.54-.52C144.57,83,147.22,83,149.87,83Z" transform="translate(-18 -21.64)"/><path class="cls-126" d="M153.52,89.09c-2.41,0-4.82,0-7.22,0-.59,0-1.68.42-1.65-.62,0-.82,1.06-.69,1.75-.7,1.63,0,3.26,0,4.89,0,3,0,6.06,0,9.09,0,.74,0,1.94-.24,2,.68,0,1.16-1.19.61-1.84.63C158.18,89.13,155.85,89.09,153.52,89.09Z" transform="translate(-18 -21.64)"/><path class="cls-124" d="M161.87,93.54H144.68v-.49h17.19Z" transform="translate(-18 -21.64)"/><path class="cls-94" d="M150.58,79.14c-2.64,1.47-5.4,1-8.15.73l0-.73Z" transform="translate(-18 -21.64)"/><path class="cls-128" d="M178.45,104.08c3.89,0,7.77,0,11.66,0,.67,0,1.85-.46,1.86.7,0,.94-1.09.62-1.72.62q-11.78,0-23.55,0c-.23,0-.47,0-.7,0-.55,0-1.24-.1-1.2-.78s.81-.55,1.3-.55C170.21,104.07,174.33,104.08,178.45,104.08Z" transform="translate(-18 -21.64)"/><path class="cls-82" d="M179.74,110.62c-2.4,0-4.81,0-7.21,0-.6,0-1.68.41-1.64-.63,0-.82,1.06-.69,1.74-.7,1.47,0,2.95,0,4.42,0,3.34,0,6.67,0,10,0,.74,0,1.93-.24,2,.68,0,1.16-1.18.62-1.84.64C184.71,110.66,182.22,110.62,179.74,110.62Z" transform="translate(-18 -21.64)"/><path class="cls-129" d="M202.93,102.12c-.82-.67-1.8-.38-2.7-.38q-21.12,0-42.25,0c-.93,0-1.86-.09-2.79-.13l.43-.33a4.35,4.35,0,0,1,2.29-.22q21.86,0,43.73,0a7.57,7.57,0,0,1,3.61.71c.05.32.51.64,0,.94Z" transform="translate(-18 -21.64)"/><path class="cls-130" d="M200.12,113.39c-1.39-1.35-2,.4-3.34.92v-6.49c.94-1.8,2.53-.63,3.82-.86a1,1,0,0,1,.56.44c-.26,1.35.06,2.72-.13,4.08C200.92,112.23,201.06,113.06,200.12,113.39Z" transform="translate(-18 -21.64)"/><path class="cls-131" d="M184,115.39H199.8v.55H184Z" transform="translate(-18 -21.64)"/><path class="cls-132" d="M201,107.43c-1.39.18-2.86-.46-4.18.39-.83-.19-2.34.45-2.34-.7s1.49-.64,2.33-.66c2.71-.07,5.42,0,8.13,0,.62,0,1.48,0,1.52.71.05.93-.88.61-1.42.64-1,.06-2,0-3,.06a.41.41,0,0,1-.46.12C201.28,107.84,201.21,107.54,201,107.43Z" transform="translate(-18 -21.64)"/><path class="cls-102" d="M176.9,116h-8.31l0-.42h8.32Z" transform="translate(-18 -21.64)"/><path class="cls-133" d="M209.45,107.39l.55-1c-.27,2.69,0,5.38-.11,8.05,0,.49.08,1.41-1,1.18l0-.78a1,1,0,0,1,0-.77C209.29,111.85,208.5,109.56,209.45,107.39Z" transform="translate(-18 -21.64)"/><path class="cls-134" d="M209.09,114.46a.46.46,0,0,1-.15.37,15.83,15.83,0,0,1,0-7.93.44.44,0,0,1,.15.37A38.9,38.9,0,0,1,209.09,114.46Z" transform="translate(-18 -21.64)"/><path class="cls-135" d="M200.12,113.39a11.21,11.21,0,0,0,.34-4.74c0-.46,0-.73.46-.82,1,2.17.81,5-.37,6.13Z" transform="translate(-18 -21.64)"/><path class="cls-136" d="M200.55,114c1-2,.36-4.08.37-6.13a1.34,1.34,0,0,0,0-.4l.6.43a21.35,21.35,0,0,1-.07,6.52C201.1,114.4,200.7,114.46,200.55,114Z" transform="translate(-18 -21.64)"/><path class="cls-137" d="M201.49,114.37q0-3.26.07-6.52a1,1,0,0,1,.4,0C201.74,110,202.51,112.26,201.49,114.37Z" transform="translate(-18 -21.64)"/><path class="cls-9" d="M232.88,100.26c8.26,0,16.51,0,24.77-.09,1.72,0,2.26.27,2.05,2.15-.67,6.19-1.11,12.4-1.65,18.61a3.63,3.63,0,0,1-2.05.22q-22.88,0-45.75,0c-.7,0-1.73.62-2.14-.61a8.19,8.19,0,0,0,3.74-7.74,26.18,26.18,0,0,1,0-3.94c.27-3.15-1.14-5.5-3.37-7.51.17-1.3,1.19-.72,1.82-.73,4.9-.05,9.81,0,14.71,0,.75,0,1.56.29,2.24-.29a.85.85,0,0,1,.11-.3A15.51,15.51,0,0,0,232.88,100.26Z" transform="translate(-18 -21.64)"/><path class="cls-110" d="M263.25,120.91c.9-5.94,1.57-11.92,3.29-17.71L276,121.37l-2.85,0c-2.45-.37-4.92-.06-7.37-.18C264.9,121.1,264,121.38,263.25,120.91Z" transform="translate(-18 -21.64)"/><path class="cls-8" d="M276.32,223.42c.74,4.07,3.28,6.79,6.68,8.86q-23.93,0-47.85.07c-11.2,0-22.41-.05-33.61-.08,2.95-1.18,5.68-2.73,6.67-6a19.61,19.61,0,0,0,.63-8.72,6.21,6.21,0,0,1-.27-1.59c.55-4.35-3.08-8.13-7-9.16a1.09,1.09,0,0,1,.61-.65,6.47,6.47,0,0,1,2.31-.24q33.15,0,66.3,0c.39,0,.78,0,1.16.05a2,2,0,0,1,1.52.78l1.17,7.27c-.25,1.21-.73.3-.89,0-.64-1.05-.73-2.34-1.51-3.58.93,2.67,1.89,5.09,2.91,7.49a5.88,5.88,0,0,1-.09,5c-1,2.2-1.67,4.51-2.61,6.72.81-1.8,1.48-3.66,2.23-5.49C274.89,223.6,275.11,222.22,276.32,223.42Z" transform="translate(-18 -21.64)"/><path class="cls-4" d="M190.27,202.39c.45-5.34,1.86-10.79-2-15.71a3.29,3.29,0,0,1,1.95-.2q40.58,0,81.16,0c.95,0,2.29-.65,2.72,1a104.52,104.52,0,0,0-1,15.85c-.92,1.51-2.44,1.17-3.8,1.18-10.06,0-20.13,0-30.19,0-13,0-26.05,0-38.65,0-.74-.08-.6.33-.57,0,0,0,0-.06.13,0,.61.12,1.61-.25,1.51.86-.07.78-.89.76-1.5.76q-4.33.07-8.66,0c-.75,0-1.69.05-1.63-1.13s.71-1.78,1.84-1.58,2.37.08,3.54.19C193.46,203.39,191.6,204,190.27,202.39Z" transform="translate(-18 -21.64)"/><path class="cls-138" d="M190.27,202.39c2.21,1.15,4.64.93,7,1.41-1.85,0-3.7,0-5.55,0-1,0-1.58.33-1.55,1.28s.94.58,1.44.58c3.19,0,6.39,0,9.58-.24-.87-1-2.07-.36-3.39-1,3,0,5.44-.6,8-.59,21.36.06,42.73,0,64.09,0a5.5,5.5,0,0,0,3.19-.46l.31,3.45-.75-.19a3.68,3.68,0,0,0-2.06-.22H203.56a3.46,3.46,0,0,0-2.05.23l0,.23-1-.23a54.08,54.08,0,0,0-11.24,0,2.3,2.3,0,0,1-2.36-.48l.47-.46a5.17,5.17,0,0,0,1.87-1.43A2.68,2.68,0,0,1,190.27,202.39Z" transform="translate(-18 -21.64)"/><path class="cls-139" d="M276.32,223.42c-1.29-.39-1.08.76-1.33,1.36-.8,1.94-1.55,3.9-2.3,5.86-.15.38-.31.77-.79.67-.73-.16-.44-.68-.28-1.1,1-2.55,1.85-5.12,2.93-7.61a5,5,0,0,0,.09-4.24c-1.07-2.5-2-5.06-3-7.6-.2-.54-.76-1.29,0-1.63s.76.61,1,1.1a23.4,23.4,0,0,1,1.43,3.89s.14.07.21.06a.63.63,0,0,0,.2-.12l1.4,4.25.54,1.5Z" transform="translate(-18 -21.64)"/><path class="cls-140" d="M295.17,193.54l-2,8.42-3.2,1.26c1.42-3.62,3.55-6.92,4.76-10.62C295.62,192.58,295.37,193.07,295.17,193.54Z" transform="translate(-18 -21.64)"/><path class="cls-141" d="M279.69,193.5c-.66.31-.3,1-.55,1.46a3.14,3.14,0,0,1-.28-2.45C279.47,192.6,279.58,193.05,279.69,193.5Z" transform="translate(-18 -21.64)"/><path class="cls-142" d="M295.17,193.54l-.44-.94c.24-.59.33-1.3,1.13-1.44A5.45,5.45,0,0,1,295.17,193.54Z" transform="translate(-18 -21.64)"/><path class="cls-143" d="M258.09,123.15l-.34.21-.12-.55a4.43,4.43,0,0,0-2.51-.24l-44.53,0a5.05,5.05,0,0,1-2.52-.22h0q0-.19,0-.38l49.94,0Z" transform="translate(-18 -21.64)"/><path class="cls-144" d="M208.06,122.33q23.47,0,46.93,0c.88,0,1.88-.42,2.63.46q-23.45,0-46.9,0C209.83,122.78,208.83,123.14,208.06,122.33Z" transform="translate(-18 -21.64)"/><path class="cls-43" d="M101.83,136.32c-3.64,1.95-7.73,2.54-11.61,3.76a1.19,1.19,0,0,1-1.38-.64,12.31,12.31,0,0,1-.84-1.66c-1.73-4.46-1.53-4.74,3.13-4.69.62,0,1.25,0,1.86,0,4,.28,7.2-.82,8.62-5,.93.42.52,1.14.65,1.68C103,132,103.36,134.23,101.83,136.32Z" transform="translate(-18 -21.64)"/><path class="cls-22" d="M83.53,141.43c1-.42,1.72-1.22,2.81-1.36,4.34.51,5.42,3.23,2.86,7.18-1.81.51-3.58.94-5.15-.65S83,143.21,83.53,141.43Z" transform="translate(-18 -21.64)"/><path class="cls-145" d="M237.16,72.24c-1.54.31-2.93,1.56-4.65.71-.23-1.08.39-1.94.74-2.86,2-5.25,3.63-10.51,2.35-16.26-.3-1.33-1.18-2.55-.89-4,1.55-.37,1.64,1.13,2.35,1.84l.56,2.34c.14.47.78.79.46,1.41,0,1.59,1,3,.64,4.7-1.21,3.14-1,6.42-1,9.68A3.58,3.58,0,0,1,237.16,72.24Z" transform="translate(-18 -21.64)"/><path class="cls-146" d="M237.16,72.24c0-1.92.09-3.83,0-5.74-.12-2.31-.24-4.56,1.56-6.38l.68,1.83a1.16,1.16,0,0,1,.29,1.39c.38,1.48.84,2.95,1.11,4.45a2.26,2.26,0,0,0,1.92,1.95l-2.27,3.34-2.4-.85a33.07,33.07,0,0,1-.17-6.76c-.36,2,.25,4.43-.27,6.76l-.21,0Z" transform="translate(-18 -21.64)"/><path class="cls-105" d="M238.07,55.41,237.61,54c2.58.9,5.25.19,7.86.43.87.08,1.81-.27,2.59,1Z" transform="translate(-18 -21.64)"/><path class="cls-147" d="M239.68,63.34l-.29-1.39c1.94,0,3.88,0,5.82,0,.52,0,1.21,0,1.11.78-.07.6-.64.58-1.1.58Z" transform="translate(-18 -21.64)"/><path class="cls-148" d="M261.38,69a1,1,0,0,1,0,.44c-3.83.47-7.67.09-11.51.19-2.23.05-4.47,0-6.71,0l-.1-.12.08-.13a3.8,3.8,0,0,1,0-.39c2.44-.57,4.92-.25,7.38-.23,3.62,0,7.26-.36,10.88.22Z" transform="translate(-18 -21.64)"/><path class="cls-149" d="M261.43,69H243.18A68.54,68.54,0,0,1,261.43,69Z" transform="translate(-18 -21.64)"/><path class="cls-99" d="M258.21,61.81c.92.38,2.41-.44,2.42.75s-1.49.79-2.32.71-2.72.68-2.7-.67S257.43,62.37,258.21,61.81Z" transform="translate(-18 -21.64)"/><path class="cls-150" d="M260.4,56.35c-1-.21-2.3.33-2.3-.75s1.34-.66,2.11-.66,2.15-.41,2.18.56C262.43,56.93,260.91,55.85,260.4,56.35Z" transform="translate(-18 -21.64)"/><path class="cls-151" d="M393,234.69q-180.64,0-361.27,0c-.87,0-2.14.64-2.51-.91q180.32,0,360.65,0C391,233.78,392.27,233.29,393,234.69Z" transform="translate(-18 -21.64)"/><path class="cls-152" d="M343.31,227.64c1.37,1.18,1.67-.36,2.36-.92-.3,3,0,3.3,3.35,3.22a1.57,1.57,0,0,1,1-.44,4.83,4.83,0,0,1,1.49.13,20.37,20.37,0,0,0,3.41.3c.42.13,1,.21,1,.71.06.7-.58.5-1,.52-.75,0-1.5,0-2.25,0-2.49.11-5-.22-7.47.18h-3.78c-.5-.71.11-1.61-.41-2.32C341.1,227.45,342.34,227.77,343.31,227.64Z" transform="translate(-18 -21.64)"/><path class="cls-153" d="M351.35,230.07l-1.47-.13c-.33-.49-.37-1,.17-1.33,2.77-.94,6.58-.09,8.29,1.84a8.62,8.62,0,0,1-5.51.85c-.22,0-.29-.11-.23-.18a.28.28,0,0,1,.2-.12c.77,0,1.54,0,2.31,0,.17,0,.59,0,.37-.31-.11-.17-.55-.14-.84-.2C353.6,229.92,352.41,230.54,351.35,230.07Z" transform="translate(-18 -21.64)"/><path class="cls-154" d="M88.57,223.33l1.1,1.34a5,5,0,0,1,0,2.73c-.21,1.47.79,3.08-.52,4.42-.52-.69,0-1.56-.39-2.26-.31-.4.23-1.25-.57-1.28-.26,0-.56.62-.84,1-.33-.06-.36-.36-.47-.59a21.45,21.45,0,0,0,1.23-4.82Z" transform="translate(-18 -21.64)"/><path class="cls-155" d="M86.87,228.64l.47.59c-1.23,3.46-4.07,4.46-6.29,2.22C83.3,231.14,85.74,231.26,86.87,228.64Z" transform="translate(-18 -21.64)"/><path class="cls-156" d="M341.05,229c.69.67.31,1.54.42,2.32a44.74,44.74,0,0,1-8.86,0c2.08-1,4.27-.33,6.4-.39C340.46,231,341.26,230.62,341.05,229Z" transform="translate(-18 -21.64)"/><path class="cls-157" d="M352.81,231a.37.37,0,0,0,0,.3l-7.58.07C347.73,230.52,350.28,231.1,352.81,231Z" transform="translate(-18 -21.64)"/><path class="cls-158" d="M89.67,227.4v-2.73c.81.7.13,1.61.33,2.4Z" transform="translate(-18 -21.64)"/><path class="cls-158" d="M88.75,229.56c.66.66.3,1.5.39,2.26C88.51,231.15,88.77,230.33,88.75,229.56Z" transform="translate(-18 -21.64)"/><path class="cls-159" d="M95.36,195.95l-.58,1.77c-2.87-.61-5.8-1-8.49-2.32l8.48-.19.49.21Z" transform="translate(-18 -21.64)"/><path class="cls-160" d="M94.89,194.89l0-.45h9.35v.45Z" transform="translate(-18 -21.64)"/><path class="cls-161" d="M123.42,207.66h70.1v.23H123.44Z" transform="translate(-18 -21.64)"/><path class="cls-162" d="M189.33,206.6a27.61,27.61,0,0,1,11.24,0Z" transform="translate(-18 -21.64)"/><path class="cls-4" d="M189.32,204.23c0,1.26-.85,1.48-1.87,1.43A2.49,2.49,0,0,1,189.32,204.23Z" transform="translate(-18 -21.64)"/><path class="cls-163" d="M92.33,108.79,93.85,112c-.43,2.49-2.45,2.16-4.15,2.27a5.64,5.64,0,0,1-1.79-.5c1.56-1.24,3.07-2.53,3.58-4.59Z" transform="translate(-18 -21.64)"/><path class="cls-164" d="M92.4,103.14a7.26,7.26,0,0,1,0,4.67A5.44,5.44,0,0,1,92.4,103.14Z" transform="translate(-18 -21.64)"/><path class="cls-165" d="M243.2,69.63c6.07-.45,12.14-.12,18.22-.18a.76.76,0,0,1-.39.93,6,6,0,0,0-3.18-.49C253,69.74,248.07,70.21,243.2,69.63Z" transform="translate(-18 -21.64)"/><path class="cls-166" d="M252.51,82.84a48,48,0,0,1-7,.15c0-.39.24-1.07.45-1C248.06,83.15,250.41,82,252.51,82.84Z" transform="translate(-18 -21.64)"/><path class="cls-167" d="M142,155.59h10.58c.41,0,.83.18.86.61a.82.82,0,0,1-.53.61c-3.46.07-6.94.47-10.37-.39C142.39,156.41,142.33,156.19,142,155.59Z" transform="translate(-18 -21.64)"/><path class="cls-168" d="M140,151.07h13.94l0,.44H140Z" transform="translate(-18 -21.64)"/><path class="cls-107" d="M144.06,153.6a10.06,10.06,0,0,1-5.94.16C140.06,152.87,142.07,153.34,144.06,153.6Z" transform="translate(-18 -21.64)"/><path class="cls-10" d="M206.21,56.74c2.33,1,2.88-.59,3.23-2.3.68-3.34.94-6.76,2.15-10A12.21,12.21,0,0,1,216,38.62a37.7,37.7,0,0,1,11.2-5.14c2.65-.81,5,.57,7.39,1.45s3.24,0,3.34-2.48c2.38,2.69,2.26,4.82-.42,6.91-2.12,1.39-3.72.1-5.09-1.23s-2.27-1.6-3.32.29a11.22,11.22,0,0,1-3,2.89c-1.19,1.17-1.24,2.78-1.67,4.24a9.72,9.72,0,0,1-1.14,3.25,1.77,1.77,0,0,1-.57.42c-1.91.6-3.8,1.32-5.76,1.75a4.21,4.21,0,0,0-3.47,3.8c-.43,2.25-.29,4.65-1.54,6.71l-1.12,8c-.49.23-.84,0-1.19-.32a15.52,15.52,0,0,1-2.12-3.25,13,13,0,0,1-.54-1.23,29.48,29.48,0,0,1-1.33-5.07,6.46,6.46,0,0,1-.09-1.48A1.8,1.8,0,0,1,206.21,56.74Z" transform="translate(-18 -21.64)"/><path class="cls-169" d="M225.87,40.92c1.34-1.28,2.87-2.43,3.69-4.14.65-1.37,1.19-1,1.95-.14,1.61,1.78,3.42,3.19,6.06,2.72A5.33,5.33,0,0,1,233.92,45c-.5.17-1,.29-1.54.43-.47.73-1.47.8-1.92,1.55l-.3.55,0,.74c.61,1.7-.21,2.87-1.51,3.75a3.45,3.45,0,0,1-4,.2c-1.16-.76-2.32-1.69-1.62-3.41l.15-.07a3.49,3.49,0,0,1,1.58.12,2.55,2.55,0,0,0,2.74-1.27,2.65,2.65,0,0,0-.14-3.21C226.58,43.34,225.54,42.42,225.87,40.92Z" transform="translate(-18 -21.64)"/><path class="cls-170" d="M230.47,47c-.08-1.41.88-1.53,1.92-1.55.2.17,1,.18.32.63A4.15,4.15,0,0,1,230.47,47Z" transform="translate(-18 -21.64)"/><path class="cls-6" d="M223,48.78c.34,1.84,1.16,3.26,3.26,3.35,2.67.11,3.29-1.88,3.85-3.89,1.6.33,3.32.28,4.58,1.57A18.75,18.75,0,0,1,236,63.36a34.74,34.74,0,0,1-3.52,9.59l-11.85-1.26c-1-.79-1-2-1.39-3.13a16.25,16.25,0,0,1-.57-4.07V62.88c-3.17,2.24-5,1.86-6.73-1.39.39-2.68.76-5.35,1.17-8a2.92,2.92,0,0,1,2.05-2.6C217.83,50.22,220.31,49.06,223,48.78Z" transform="translate(-18 -21.64)"/><path class="cls-171" d="M206.59,47.91a.54.54,0,0,1,0,.44,2.92,2.92,0,0,1-2.57.8c-7.78-.09-15.56,0-23.34-.05-1.22,0-2.52.23-3.55-.73.69-.77,1.6-.45,2.42-.46q12.83,0,25.66,0Z" transform="translate(-18 -21.64)"/><path class="cls-5" d="M177.16,48.36c9.51.11,19-.22,28.54.17a4,4,0,0,0,.91-.18,6.53,6.53,0,0,1-.37,3.37,12.36,12.36,0,0,0-2.54-.35c-7.33,0-14.65,0-22,0-5.28.06-8.74,3.79-8.54,9,.18,4.63,3.47,7.76,8.46,7.81,8.18.09,16.37,0,24.55,0a7.39,7.39,0,0,1,3.86.66l.81.53-.12,2.31c-10.12,0-20.23-.09-30.35,0-6.61.08-10.47-4.36-10.74-10.86-.19-4.7,1-8.77,5.21-11.47A19.17,19.17,0,0,1,177.16,48.36Z" transform="translate(-18 -21.64)"/><path class="cls-172" d="M208.1,120.51c.72.71,1.63.4,2.45.4q23.75,0,47.5,0l0,.49-51.38-.07Z" transform="translate(-18 -21.64)"/><path class="cls-173" d="M205.25,101.73a27.52,27.52,0,0,0-6.94-.47h-42.7c.77-.8,1.77-.45,2.66-.45q23,0,46,0Z" transform="translate(-18 -21.64)"/><path class="cls-57" d="M156.12,120l43-.05c1.25,0,2.49,0,3.74,0,.15.89-.55.5-.85.5q-22.19,0-44.37,0C157.09,120.46,156.53,120.53,156.12,120Z" transform="translate(-18 -21.64)"/><path class="cls-174" d="M227.24,100.26c-.64.87-1.57.51-2.37.52-4.67,0-9.33,0-14,0-.82,0-1.74-.3-2.39.52a3.37,3.37,0,0,1-1.89-1Z" transform="translate(-18 -21.64)"/><path class="cls-175" d="M209.09,114.46q0-3.6,0-7.2a1.31,1.31,0,0,1,.36.13C209.28,109.75,209.91,112.14,209.09,114.46Z" transform="translate(-18 -21.64)"/><path class="cls-176" d="M216.51,31.88c.37-4.77-2.34-7.57-6.18-9.65l8.11,0c2.89,1.09,5.21,2.77,6,5.95A24.39,24.39,0,0,0,216.51,31.88Z" transform="translate(-18 -21.64)"/><path class="cls-177" d="M208.94,22.24c-.83.67-1.8.35-2.7.35q-29.44,0-58.87,0c-.87,0-2.13-.64-2.51.9q.25.14.16.28c-.06.09-.11.14-.17.14-.86-.93-1-1.62.57-1.78a4.51,4.51,0,0,1,.47,0Z" transform="translate(-18 -21.64)"/><path class="cls-178" d="M144.85,24q0-.21,0-.42h58.76c.69,0,1.38.06,2.07.1,0,0,.09.11.09.17a.65.65,0,0,1-.08.22l-58.26,0C146.57,24,145.71,24,144.85,24Z" transform="translate(-18 -21.64)"/><path class="cls-179" d="M359.36,226.69c.68.69.37,1.55.41,2.36l-.45.51Z" transform="translate(-18 -21.64)"/><path class="cls-180" d="M259.11,129.82l1.32,0c-.32,1.9.9,3.06,2.06,4.24C259.21,134.36,259.76,131.61,259.11,129.82Z" transform="translate(-18 -21.64)"/><path class="cls-181" d="M350.05,228.6l-.17,1.33H349a2.61,2.61,0,0,1-.48-1.79C349.08,228.15,349.66,228.07,350.05,228.6Z" transform="translate(-18 -21.64)"/><path class="cls-182" d="M263.35,121.94l5.55,0A8.14,8.14,0,0,1,263.35,121.94Z" transform="translate(-18 -21.64)"/><path class="cls-183" d="M263.25,120.91c3.28.27,6.61-.46,9.86.42l-10,0Z" transform="translate(-18 -21.64)"/><path class="cls-184" d="M219.73,68.29l.94,3.4c-3.26,0-3.26,0-2.77-2.63C218.35,68.44,218.87,68,219.73,68.29Z" transform="translate(-18 -21.64)"/><path class="cls-185" d="M219.73,68.29l-1.83.77a18.14,18.14,0,0,1,.82-4.58Z" transform="translate(-18 -21.64)"/><path class="cls-186" d="M237.59,72.21v-6.9H238q0,3.46,0,6.91h-.22Z" transform="translate(-18 -21.64)"/><path class="cls-3" d="M210.06,68.92q-14.38,0-28.76,0a8.81,8.81,0,0,1-8.72-6.45,9,9,0,0,1,4-10.34,9.64,9.64,0,0,1,5.29-1.51q11.57.14,23.15,0c1.08,0,1.14.37,1.21,1.1l0,5-.1,1.49c-.7,1.32-2,1-3.11,1.06s-2,0-3.3,0c2.31.37,4.41-.24,6.45.32l1.37,5.13c-.88.88-2,.67-3.08.68-4.24,0-8.49,0-12.16,0,4.84.23,10.27-.34,15.68.28Z" transform="translate(-18 -21.64)"/><path class="cls-187" d="M213.75,34.34c0-1.1-.24-2.21.44-3.28q0,1.45,0,2.9Z" transform="translate(-18 -21.64)"/><path class="cls-188" d="M334.57,226.91c-10.62.16-21.18-1.13-31.66,1.31l-.17-.73c.78-.41,1.56-.84,2.35-1.24,4.44-2.25,8.91-4.44,13.31-6.76a3.6,3.6,0,0,1,4.08.15C326.46,222.16,330.54,224.5,334.57,226.91Z" transform="translate(-18 -21.64)"/><path class="cls-189" d="M233,222.24c-1.14,2.9-2.06,5.26-3,7.61-.25.62-.35,1.66-1.22,1.42-1.09-.31-.23-1.23-.06-1.72.69-2,1.47-3.93,2.35-5.84a7.45,7.45,0,0,0,0-6.52c-1-2.2-1.78-4.48-2.66-6.72-.2-.5-.54-1.11.21-1.37s.81.48,1,1l3.35,8.44c1.19-3.09,2.17-5.69,3.2-8.27.21-.54.4-1.44,1.19-1.14,1,.37.13,1.06,0,1.53-1.06,2.84-2.12,5.68-3.31,8.47-.58,1.36.08,2.43.5,3.56.9,2.4,1.9,4.77,2.8,7.17.17.46.41,1.17-.36,1.35-.55.13-.72-.44-.89-.88C235.2,227.79,234.23,225.28,233,222.24Z" transform="translate(-18 -21.64)"/><path class="cls-190" d="M247.32,218.48c1.12-2.77,2-5.13,3.05-7.45.3-.68.17-2.19,1.33-1.74.95.37.13,1.55-.14,2.28q-1.28,3.5-2.78,6.93a5,5,0,0,0,.08,4.06c.85,2.17,1.72,4.34,2.5,6.53.25.69,1.4,1.69.13,2.11-1.07.35-.92-1.14-1.27-1.82-1-2-1.29-4.32-2.82-6.46-1.68,2.19-2,4.8-3.19,7-.28.54,0,1.74-1.09,1.27-.78-.33-.34-1.21-.06-1.86.88-2.08,1.69-4.19,2.64-6.23a6.07,6.07,0,0,0,0-5.38c-1-2.27-1.87-4.61-2.76-6.93-.21-.55-.6-1.31.22-1.59s.79.53,1,1C245.13,212.83,246.14,215.41,247.32,218.48Z" transform="translate(-18 -21.64)"/><path class="cls-190" d="M218.57,218.22c1.65-2.76,2.31-5.51,3.4-8.08.2-.46.19-1.27,1-1.05,1,.27.43,1,.22,1.52-.84,2.18-1.6,4.39-2.56,6.51a7.54,7.54,0,0,0,0,6.52c.91,2.06,1.66,4.19,2.46,6.3.16.43.81,1,0,1.35s-.93-.44-1.12-.92c-1-2.5-2-5-3.06-7.84-1.57,2.53-2,5.15-3.16,7.48-.26.54-.3,1.47-1.11,1.12s-.32-1.09-.09-1.66c.88-2.24,1.71-4.51,2.67-6.72a5.23,5.23,0,0,0,0-4.86,79.3,79.3,0,0,1-2.94-7.61c-.15-.41-.58-.92,0-1.19s1,.35,1.16.85c.9,2.32,1.75,4.65,2.64,7C218.09,217.28,218.28,217.61,218.57,218.22Z" transform="translate(-18 -21.64)"/><path class="cls-190" d="M261.74,218.41c1.17-2.93,2.17-5.5,3.22-8.05.21-.51.14-1.53,1-1.25,1,.33.37,1.12.13,1.71-1,2.52-2,5-3.06,7.55a4.18,4.18,0,0,0-.14,3.36c1.08,2.66,2.08,5.35,3.07,8,.18.48.95,1.18,0,1.5-.79.27-1-.64-1.17-1.17-1-2.43-1.95-4.87-3-7.62-1.64,3.07-2.22,6.17-3.88,8.82-.94-.49-.65-1.11-.45-1.67.94-2.55,1.81-5.13,2.91-7.61a4.13,4.13,0,0,0-.05-3.74c-1.07-2.41-1.92-4.91-2.8-7.4-.2-.56-1.17-1.37-.21-1.75s1.08.82,1.35,1.49c.81,2.1,1.6,4.21,2.41,6.31C261.17,217.29,261.36,217.62,261.74,218.41Z" transform="translate(-18 -21.64)"/><path class="cls-162" d="M201.51,206.61c.69-.77,1.6-.46,2.42-.46q33.16,0,66.31,0c.82,0,1.73-.31,2.43.44-.7,0-1.39.11-2.09.11h-67C202.9,206.71,202.21,206.64,201.51,206.61Z" transform="translate(-18 -21.64)"/><path class="cls-157" d="M351.35,230.07c1.11,0,2.27-.34,3.3.39C353.55,230.34,352.37,230.86,351.35,230.07Z" transform="translate(-18 -21.64)"/><path class="cls-191" d="M225.87,40.92a9,9,0,0,0,1.53,2.57c1.83,1.51,1.56,3.27.45,4.73a3,3,0,0,1-4.67.5c.49-2.09,1-4.18,1.46-6.26A1.82,1.82,0,0,1,225.87,40.92Z" transform="translate(-18 -21.64)"/><path class="cls-192" d="M208,65.72c-1.8.75-3.69.32-5.53.36-3.57.07-7.15,0-10.72,0a3.08,3.08,0,0,1-3.08-1.36h18.89Z" transform="translate(-18 -21.64)"/><path class="cls-193" d="M206.16,59.62c-2.41.85-4.91.25-7.36.39-.48,0-1-.14-.9-.76s.63-.59,1.09-.59c1.55,0,3.1,0,4.64,0a4.43,4.43,0,0,0,2.48-.41Z" transform="translate(-18 -21.64)"/><path class="cls-102" d="M199.8,55.2H179.47v-.47h20.33Z" transform="translate(-18 -21.64)"/></svg>